<?xml version="1.0" encoding="utf-8" standalone="no"?>
<!DOCTYPE svg PUBLIC "-//W3C//DTD SVG 1.1//EN"
  "http://www.w3.org/Graphics/SVG/1.1/DTD/svg11.dtd">
<!-- Created with matplotlib (https://matplotlib.org/) -->
<svg height="345.6pt" version="1.1" viewBox="0 0 460.8 345.6" width="460.8pt" xmlns="http://www.w3.org/2000/svg" xmlns:xlink="http://www.w3.org/1999/xlink">
 <metadata>
  <rdf:RDF xmlns:cc="http://creativecommons.org/ns#" xmlns:dc="http://purl.org/dc/elements/1.1/" xmlns:rdf="http://www.w3.org/1999/02/22-rdf-syntax-ns#">
   <cc:Work>
    <dc:type rdf:resource="http://purl.org/dc/dcmitype/StillImage"/>
    <dc:date>2022-12-05T14:36:09.823729</dc:date>
    <dc:format>image/svg+xml</dc:format>
    <dc:creator>
     <cc:Agent>
      <dc:title>Matplotlib v3.3.4, https://matplotlib.org/</dc:title>
     </cc:Agent>
    </dc:creator>
   </cc:Work>
  </rdf:RDF>
 </metadata>
 <defs>
  <style type="text/css">*{stroke-linecap:butt;stroke-linejoin:round;}</style>
 </defs>
 <g id="figure_1">
  <g id="patch_1">
   <path d="M 0 345.6 
L 460.8 345.6 
L 460.8 0 
L 0 0 
z
" style="fill:#ffffff;"/>
  </g>
  <g id="axes_1">
   <g id="patch_2">
    <path d="M 57.6 307.584 
L 343.296 307.584 
L 343.296 41.472 
L 57.6 41.472 
z
" style="fill:#ffffff;"/>
   </g>
   <g id="matplotlib.axis_1">
    <g id="xtick_1">
     <g id="line2d_1">
      <defs>
       <path d="M 0 0 
L 0 3.5 
" id="m52e3c374f6" style="stroke:#000000;stroke-width:0.8;"/>
      </defs>
      <g>
       <use style="stroke:#000000;stroke-width:0.8;" x="330.309818" xlink:href="#m52e3c374f6" y="307.584"/>
      </g>
     </g>
     <g id="text_1">
      <!-- 275 -->
      <g transform="translate(318.857318 323.702125)scale(0.12 -0.12)">
       <defs>
        <path d="M 19.1875 8.296875 
L 53.609375 8.296875 
L 53.609375 0 
L 7.328125 0 
L 7.328125 8.296875 
Q 12.9375 14.109375 22.625 23.890625 
Q 32.328125 33.6875 34.8125 36.53125 
Q 39.546875 41.84375 41.421875 45.53125 
Q 43.3125 49.21875 43.3125 52.78125 
Q 43.3125 58.59375 39.234375 62.25 
Q 35.15625 65.921875 28.609375 65.921875 
Q 23.96875 65.921875 18.8125 64.3125 
Q 13.671875 62.703125 7.8125 59.421875 
L 7.8125 69.390625 
Q 13.765625 71.78125 18.9375 73 
Q 24.125 74.21875 28.421875 74.21875 
Q 39.75 74.21875 46.484375 68.546875 
Q 53.21875 62.890625 53.21875 53.421875 
Q 53.21875 48.921875 51.53125 44.890625 
Q 49.859375 40.875 45.40625 35.40625 
Q 44.1875 33.984375 37.640625 27.21875 
Q 31.109375 20.453125 19.1875 8.296875 
z
" id="DejaVuSans-50"/>
        <path d="M 8.203125 72.90625 
L 55.078125 72.90625 
L 55.078125 68.703125 
L 28.609375 0 
L 18.3125 0 
L 43.21875 64.59375 
L 8.203125 64.59375 
z
" id="DejaVuSans-55"/>
        <path d="M 10.796875 72.90625 
L 49.515625 72.90625 
L 49.515625 64.59375 
L 19.828125 64.59375 
L 19.828125 46.734375 
Q 21.96875 47.46875 24.109375 47.828125 
Q 26.265625 48.1875 28.421875 48.1875 
Q 40.625 48.1875 47.75 41.5 
Q 54.890625 34.8125 54.890625 23.390625 
Q 54.890625 11.625 47.5625 5.09375 
Q 40.234375 -1.421875 26.90625 -1.421875 
Q 22.3125 -1.421875 17.546875 -0.640625 
Q 12.796875 0.140625 7.71875 1.703125 
L 7.71875 11.625 
Q 12.109375 9.234375 16.796875 8.0625 
Q 21.484375 6.890625 26.703125 6.890625 
Q 35.15625 6.890625 40.078125 11.328125 
Q 45.015625 15.765625 45.015625 23.390625 
Q 45.015625 31 40.078125 35.4375 
Q 35.15625 39.890625 26.703125 39.890625 
Q 22.75 39.890625 18.8125 39.015625 
Q 14.890625 38.140625 10.796875 36.28125 
z
" id="DejaVuSans-53"/>
       </defs>
       <use xlink:href="#DejaVuSans-50"/>
       <use x="63.623047" xlink:href="#DejaVuSans-55"/>
       <use x="127.246094" xlink:href="#DejaVuSans-53"/>
      </g>
     </g>
    </g>
    <g id="xtick_2">
     <g id="line2d_2">
      <g>
       <use style="stroke:#000000;stroke-width:0.8;" x="265.378909" xlink:href="#m52e3c374f6" y="307.584"/>
      </g>
     </g>
     <g id="text_2">
      <!-- 280 -->
      <g transform="translate(253.926409 323.702125)scale(0.12 -0.12)">
       <defs>
        <path d="M 31.78125 34.625 
Q 24.75 34.625 20.71875 30.859375 
Q 16.703125 27.09375 16.703125 20.515625 
Q 16.703125 13.921875 20.71875 10.15625 
Q 24.75 6.390625 31.78125 6.390625 
Q 38.8125 6.390625 42.859375 10.171875 
Q 46.921875 13.96875 46.921875 20.515625 
Q 46.921875 27.09375 42.890625 30.859375 
Q 38.875 34.625 31.78125 34.625 
z
M 21.921875 38.8125 
Q 15.578125 40.375 12.03125 44.71875 
Q 8.5 49.078125 8.5 55.328125 
Q 8.5 64.0625 14.71875 69.140625 
Q 20.953125 74.21875 31.78125 74.21875 
Q 42.671875 74.21875 48.875 69.140625 
Q 55.078125 64.0625 55.078125 55.328125 
Q 55.078125 49.078125 51.53125 44.71875 
Q 48 40.375 41.703125 38.8125 
Q 48.828125 37.15625 52.796875 32.3125 
Q 56.78125 27.484375 56.78125 20.515625 
Q 56.78125 9.90625 50.3125 4.234375 
Q 43.84375 -1.421875 31.78125 -1.421875 
Q 19.734375 -1.421875 13.25 4.234375 
Q 6.78125 9.90625 6.78125 20.515625 
Q 6.78125 27.484375 10.78125 32.3125 
Q 14.796875 37.15625 21.921875 38.8125 
z
M 18.3125 54.390625 
Q 18.3125 48.734375 21.84375 45.5625 
Q 25.390625 42.390625 31.78125 42.390625 
Q 38.140625 42.390625 41.71875 45.5625 
Q 45.3125 48.734375 45.3125 54.390625 
Q 45.3125 60.0625 41.71875 63.234375 
Q 38.140625 66.40625 31.78125 66.40625 
Q 25.390625 66.40625 21.84375 63.234375 
Q 18.3125 60.0625 18.3125 54.390625 
z
" id="DejaVuSans-56"/>
        <path d="M 31.78125 66.40625 
Q 24.171875 66.40625 20.328125 58.90625 
Q 16.5 51.421875 16.5 36.375 
Q 16.5 21.390625 20.328125 13.890625 
Q 24.171875 6.390625 31.78125 6.390625 
Q 39.453125 6.390625 43.28125 13.890625 
Q 47.125 21.390625 47.125 36.375 
Q 47.125 51.421875 43.28125 58.90625 
Q 39.453125 66.40625 31.78125 66.40625 
z
M 31.78125 74.21875 
Q 44.046875 74.21875 50.515625 64.515625 
Q 56.984375 54.828125 56.984375 36.375 
Q 56.984375 17.96875 50.515625 8.265625 
Q 44.046875 -1.421875 31.78125 -1.421875 
Q 19.53125 -1.421875 13.0625 8.265625 
Q 6.59375 17.96875 6.59375 36.375 
Q 6.59375 54.828125 13.0625 64.515625 
Q 19.53125 74.21875 31.78125 74.21875 
z
" id="DejaVuSans-48"/>
       </defs>
       <use xlink:href="#DejaVuSans-50"/>
       <use x="63.623047" xlink:href="#DejaVuSans-56"/>
       <use x="127.246094" xlink:href="#DejaVuSans-48"/>
      </g>
     </g>
    </g>
    <g id="xtick_3">
     <g id="line2d_3">
      <g>
       <use style="stroke:#000000;stroke-width:0.8;" x="200.448" xlink:href="#m52e3c374f6" y="307.584"/>
      </g>
     </g>
     <g id="text_3">
      <!-- 285 -->
      <g transform="translate(188.9955 323.702125)scale(0.12 -0.12)">
       <use xlink:href="#DejaVuSans-50"/>
       <use x="63.623047" xlink:href="#DejaVuSans-56"/>
       <use x="127.246094" xlink:href="#DejaVuSans-53"/>
      </g>
     </g>
    </g>
    <g id="xtick_4">
     <g id="line2d_4">
      <g>
       <use style="stroke:#000000;stroke-width:0.8;" x="135.517091" xlink:href="#m52e3c374f6" y="307.584"/>
      </g>
     </g>
     <g id="text_4">
      <!-- 290 -->
      <g transform="translate(124.064591 323.702125)scale(0.12 -0.12)">
       <defs>
        <path d="M 10.984375 1.515625 
L 10.984375 10.5 
Q 14.703125 8.734375 18.5 7.8125 
Q 22.3125 6.890625 25.984375 6.890625 
Q 35.75 6.890625 40.890625 13.453125 
Q 46.046875 20.015625 46.78125 33.40625 
Q 43.953125 29.203125 39.59375 26.953125 
Q 35.25 24.703125 29.984375 24.703125 
Q 19.046875 24.703125 12.671875 31.3125 
Q 6.296875 37.9375 6.296875 49.421875 
Q 6.296875 60.640625 12.9375 67.421875 
Q 19.578125 74.21875 30.609375 74.21875 
Q 43.265625 74.21875 49.921875 64.515625 
Q 56.59375 54.828125 56.59375 36.375 
Q 56.59375 19.140625 48.40625 8.859375 
Q 40.234375 -1.421875 26.421875 -1.421875 
Q 22.703125 -1.421875 18.890625 -0.6875 
Q 15.09375 0.046875 10.984375 1.515625 
z
M 30.609375 32.421875 
Q 37.25 32.421875 41.125 36.953125 
Q 45.015625 41.5 45.015625 49.421875 
Q 45.015625 57.28125 41.125 61.84375 
Q 37.25 66.40625 30.609375 66.40625 
Q 23.96875 66.40625 20.09375 61.84375 
Q 16.21875 57.28125 16.21875 49.421875 
Q 16.21875 41.5 20.09375 36.953125 
Q 23.96875 32.421875 30.609375 32.421875 
z
" id="DejaVuSans-57"/>
       </defs>
       <use xlink:href="#DejaVuSans-50"/>
       <use x="63.623047" xlink:href="#DejaVuSans-57"/>
       <use x="127.246094" xlink:href="#DejaVuSans-48"/>
      </g>
     </g>
    </g>
    <g id="xtick_5">
     <g id="line2d_5">
      <g>
       <use style="stroke:#000000;stroke-width:0.8;" x="70.586182" xlink:href="#m52e3c374f6" y="307.584"/>
      </g>
     </g>
     <g id="text_5">
      <!-- 295 -->
      <g transform="translate(59.133682 323.702125)scale(0.12 -0.12)">
       <use xlink:href="#DejaVuSans-50"/>
       <use x="63.623047" xlink:href="#DejaVuSans-57"/>
       <use x="127.246094" xlink:href="#DejaVuSans-53"/>
      </g>
     </g>
    </g>
    <g id="text_6">
     <!-- Binding Energy [eV] -->
     <g transform="translate(130.479719 340.835562)scale(0.14 -0.14)">
      <defs>
       <path d="M 19.671875 34.8125 
L 19.671875 8.109375 
L 35.5 8.109375 
Q 43.453125 8.109375 47.28125 11.40625 
Q 51.125 14.703125 51.125 21.484375 
Q 51.125 28.328125 47.28125 31.5625 
Q 43.453125 34.8125 35.5 34.8125 
z
M 19.671875 64.796875 
L 19.671875 42.828125 
L 34.28125 42.828125 
Q 41.5 42.828125 45.03125 45.53125 
Q 48.578125 48.25 48.578125 53.8125 
Q 48.578125 59.328125 45.03125 62.0625 
Q 41.5 64.796875 34.28125 64.796875 
z
M 9.8125 72.90625 
L 35.015625 72.90625 
Q 46.296875 72.90625 52.390625 68.21875 
Q 58.5 63.53125 58.5 54.890625 
Q 58.5 48.1875 55.375 44.234375 
Q 52.25 40.28125 46.1875 39.3125 
Q 53.46875 37.75 57.5 32.78125 
Q 61.53125 27.828125 61.53125 20.40625 
Q 61.53125 10.640625 54.890625 5.3125 
Q 48.25 0 35.984375 0 
L 9.8125 0 
z
" id="DejaVuSans-66"/>
       <path d="M 9.421875 54.6875 
L 18.40625 54.6875 
L 18.40625 0 
L 9.421875 0 
z
M 9.421875 75.984375 
L 18.40625 75.984375 
L 18.40625 64.59375 
L 9.421875 64.59375 
z
" id="DejaVuSans-105"/>
       <path d="M 54.890625 33.015625 
L 54.890625 0 
L 45.90625 0 
L 45.90625 32.71875 
Q 45.90625 40.484375 42.875 44.328125 
Q 39.84375 48.1875 33.796875 48.1875 
Q 26.515625 48.1875 22.3125 43.546875 
Q 18.109375 38.921875 18.109375 30.90625 
L 18.109375 0 
L 9.078125 0 
L 9.078125 54.6875 
L 18.109375 54.6875 
L 18.109375 46.1875 
Q 21.34375 51.125 25.703125 53.5625 
Q 30.078125 56 35.796875 56 
Q 45.21875 56 50.046875 50.171875 
Q 54.890625 44.34375 54.890625 33.015625 
z
" id="DejaVuSans-110"/>
       <path d="M 45.40625 46.390625 
L 45.40625 75.984375 
L 54.390625 75.984375 
L 54.390625 0 
L 45.40625 0 
L 45.40625 8.203125 
Q 42.578125 3.328125 38.25 0.953125 
Q 33.9375 -1.421875 27.875 -1.421875 
Q 17.96875 -1.421875 11.734375 6.484375 
Q 5.515625 14.40625 5.515625 27.296875 
Q 5.515625 40.1875 11.734375 48.09375 
Q 17.96875 56 27.875 56 
Q 33.9375 56 38.25 53.625 
Q 42.578125 51.265625 45.40625 46.390625 
z
M 14.796875 27.296875 
Q 14.796875 17.390625 18.875 11.75 
Q 22.953125 6.109375 30.078125 6.109375 
Q 37.203125 6.109375 41.296875 11.75 
Q 45.40625 17.390625 45.40625 27.296875 
Q 45.40625 37.203125 41.296875 42.84375 
Q 37.203125 48.484375 30.078125 48.484375 
Q 22.953125 48.484375 18.875 42.84375 
Q 14.796875 37.203125 14.796875 27.296875 
z
" id="DejaVuSans-100"/>
       <path d="M 45.40625 27.984375 
Q 45.40625 37.75 41.375 43.109375 
Q 37.359375 48.484375 30.078125 48.484375 
Q 22.859375 48.484375 18.828125 43.109375 
Q 14.796875 37.75 14.796875 27.984375 
Q 14.796875 18.265625 18.828125 12.890625 
Q 22.859375 7.515625 30.078125 7.515625 
Q 37.359375 7.515625 41.375 12.890625 
Q 45.40625 18.265625 45.40625 27.984375 
z
M 54.390625 6.78125 
Q 54.390625 -7.171875 48.1875 -13.984375 
Q 42 -20.796875 29.203125 -20.796875 
Q 24.46875 -20.796875 20.265625 -20.09375 
Q 16.0625 -19.390625 12.109375 -17.921875 
L 12.109375 -9.1875 
Q 16.0625 -11.328125 19.921875 -12.34375 
Q 23.78125 -13.375 27.78125 -13.375 
Q 36.625 -13.375 41.015625 -8.765625 
Q 45.40625 -4.15625 45.40625 5.171875 
L 45.40625 9.625 
Q 42.625 4.78125 38.28125 2.390625 
Q 33.9375 0 27.875 0 
Q 17.828125 0 11.671875 7.65625 
Q 5.515625 15.328125 5.515625 27.984375 
Q 5.515625 40.671875 11.671875 48.328125 
Q 17.828125 56 27.875 56 
Q 33.9375 56 38.28125 53.609375 
Q 42.625 51.21875 45.40625 46.390625 
L 45.40625 54.6875 
L 54.390625 54.6875 
z
" id="DejaVuSans-103"/>
       <path id="DejaVuSans-32"/>
       <path d="M 9.8125 72.90625 
L 55.90625 72.90625 
L 55.90625 64.59375 
L 19.671875 64.59375 
L 19.671875 43.015625 
L 54.390625 43.015625 
L 54.390625 34.71875 
L 19.671875 34.71875 
L 19.671875 8.296875 
L 56.78125 8.296875 
L 56.78125 0 
L 9.8125 0 
z
" id="DejaVuSans-69"/>
       <path d="M 56.203125 29.59375 
L 56.203125 25.203125 
L 14.890625 25.203125 
Q 15.484375 15.921875 20.484375 11.0625 
Q 25.484375 6.203125 34.421875 6.203125 
Q 39.59375 6.203125 44.453125 7.46875 
Q 49.3125 8.734375 54.109375 11.28125 
L 54.109375 2.78125 
Q 49.265625 0.734375 44.1875 -0.34375 
Q 39.109375 -1.421875 33.890625 -1.421875 
Q 20.796875 -1.421875 13.15625 6.1875 
Q 5.515625 13.8125 5.515625 26.8125 
Q 5.515625 40.234375 12.765625 48.109375 
Q 20.015625 56 32.328125 56 
Q 43.359375 56 49.78125 48.890625 
Q 56.203125 41.796875 56.203125 29.59375 
z
M 47.21875 32.234375 
Q 47.125 39.59375 43.09375 43.984375 
Q 39.0625 48.390625 32.421875 48.390625 
Q 24.90625 48.390625 20.390625 44.140625 
Q 15.875 39.890625 15.1875 32.171875 
z
" id="DejaVuSans-101"/>
       <path d="M 41.109375 46.296875 
Q 39.59375 47.171875 37.8125 47.578125 
Q 36.03125 48 33.890625 48 
Q 26.265625 48 22.1875 43.046875 
Q 18.109375 38.09375 18.109375 28.8125 
L 18.109375 0 
L 9.078125 0 
L 9.078125 54.6875 
L 18.109375 54.6875 
L 18.109375 46.1875 
Q 20.953125 51.171875 25.484375 53.578125 
Q 30.03125 56 36.53125 56 
Q 37.453125 56 38.578125 55.875 
Q 39.703125 55.765625 41.0625 55.515625 
z
" id="DejaVuSans-114"/>
       <path d="M 32.171875 -5.078125 
Q 28.375 -14.84375 24.75 -17.8125 
Q 21.140625 -20.796875 15.09375 -20.796875 
L 7.90625 -20.796875 
L 7.90625 -13.28125 
L 13.1875 -13.28125 
Q 16.890625 -13.28125 18.9375 -11.515625 
Q 21 -9.765625 23.484375 -3.21875 
L 25.09375 0.875 
L 2.984375 54.6875 
L 12.5 54.6875 
L 29.59375 11.921875 
L 46.6875 54.6875 
L 56.203125 54.6875 
z
" id="DejaVuSans-121"/>
       <path d="M 8.59375 75.984375 
L 29.296875 75.984375 
L 29.296875 69 
L 17.578125 69 
L 17.578125 -6.203125 
L 29.296875 -6.203125 
L 29.296875 -13.1875 
L 8.59375 -13.1875 
z
" id="DejaVuSans-91"/>
       <path d="M 28.609375 0 
L 0.78125 72.90625 
L 11.078125 72.90625 
L 34.1875 11.53125 
L 57.328125 72.90625 
L 67.578125 72.90625 
L 39.796875 0 
z
" id="DejaVuSans-86"/>
       <path d="M 30.421875 75.984375 
L 30.421875 -13.1875 
L 9.71875 -13.1875 
L 9.71875 -6.203125 
L 21.390625 -6.203125 
L 21.390625 69 
L 9.71875 69 
L 9.71875 75.984375 
z
" id="DejaVuSans-93"/>
      </defs>
      <use xlink:href="#DejaVuSans-66"/>
      <use x="68.603516" xlink:href="#DejaVuSans-105"/>
      <use x="96.386719" xlink:href="#DejaVuSans-110"/>
      <use x="159.765625" xlink:href="#DejaVuSans-100"/>
      <use x="223.242188" xlink:href="#DejaVuSans-105"/>
      <use x="251.025391" xlink:href="#DejaVuSans-110"/>
      <use x="314.404297" xlink:href="#DejaVuSans-103"/>
      <use x="377.880859" xlink:href="#DejaVuSans-32"/>
      <use x="409.667969" xlink:href="#DejaVuSans-69"/>
      <use x="472.851562" xlink:href="#DejaVuSans-110"/>
      <use x="536.230469" xlink:href="#DejaVuSans-101"/>
      <use x="597.753906" xlink:href="#DejaVuSans-114"/>
      <use x="637.117188" xlink:href="#DejaVuSans-103"/>
      <use x="700.59375" xlink:href="#DejaVuSans-121"/>
      <use x="759.773438" xlink:href="#DejaVuSans-32"/>
      <use x="791.560547" xlink:href="#DejaVuSans-91"/>
      <use x="830.574219" xlink:href="#DejaVuSans-101"/>
      <use x="892.097656" xlink:href="#DejaVuSans-86"/>
      <use x="960.505859" xlink:href="#DejaVuSans-93"/>
     </g>
    </g>
   </g>
   <g id="matplotlib.axis_2">
    <g id="ytick_1"/>
    <g id="ytick_2"/>
    <g id="ytick_3"/>
    <g id="ytick_4"/>
    <g id="ytick_5"/>
    <g id="ytick_6"/>
    <g id="ytick_7"/>
    <g id="text_7">
     <!-- Intensity [a.u.] -->
     <g transform="translate(50.688437 225.857687)rotate(-90)scale(0.14 -0.14)">
      <defs>
       <path d="M 9.8125 72.90625 
L 19.671875 72.90625 
L 19.671875 0 
L 9.8125 0 
z
" id="DejaVuSans-73"/>
       <path d="M 18.3125 70.21875 
L 18.3125 54.6875 
L 36.8125 54.6875 
L 36.8125 47.703125 
L 18.3125 47.703125 
L 18.3125 18.015625 
Q 18.3125 11.328125 20.140625 9.421875 
Q 21.96875 7.515625 27.59375 7.515625 
L 36.8125 7.515625 
L 36.8125 0 
L 27.59375 0 
Q 17.1875 0 13.234375 3.875 
Q 9.28125 7.765625 9.28125 18.015625 
L 9.28125 47.703125 
L 2.6875 47.703125 
L 2.6875 54.6875 
L 9.28125 54.6875 
L 9.28125 70.21875 
z
" id="DejaVuSans-116"/>
       <path d="M 44.28125 53.078125 
L 44.28125 44.578125 
Q 40.484375 46.53125 36.375 47.5 
Q 32.28125 48.484375 27.875 48.484375 
Q 21.1875 48.484375 17.84375 46.4375 
Q 14.5 44.390625 14.5 40.28125 
Q 14.5 37.15625 16.890625 35.375 
Q 19.28125 33.59375 26.515625 31.984375 
L 29.59375 31.296875 
Q 39.15625 29.25 43.1875 25.515625 
Q 47.21875 21.78125 47.21875 15.09375 
Q 47.21875 7.46875 41.1875 3.015625 
Q 35.15625 -1.421875 24.609375 -1.421875 
Q 20.21875 -1.421875 15.453125 -0.5625 
Q 10.6875 0.296875 5.421875 2 
L 5.421875 11.28125 
Q 10.40625 8.6875 15.234375 7.390625 
Q 20.0625 6.109375 24.8125 6.109375 
Q 31.15625 6.109375 34.5625 8.28125 
Q 37.984375 10.453125 37.984375 14.40625 
Q 37.984375 18.0625 35.515625 20.015625 
Q 33.0625 21.96875 24.703125 23.78125 
L 21.578125 24.515625 
Q 13.234375 26.265625 9.515625 29.90625 
Q 5.8125 33.546875 5.8125 39.890625 
Q 5.8125 47.609375 11.28125 51.796875 
Q 16.75 56 26.8125 56 
Q 31.78125 56 36.171875 55.265625 
Q 40.578125 54.546875 44.28125 53.078125 
z
" id="DejaVuSans-115"/>
       <path d="M 34.28125 27.484375 
Q 23.390625 27.484375 19.1875 25 
Q 14.984375 22.515625 14.984375 16.5 
Q 14.984375 11.71875 18.140625 8.90625 
Q 21.296875 6.109375 26.703125 6.109375 
Q 34.1875 6.109375 38.703125 11.40625 
Q 43.21875 16.703125 43.21875 25.484375 
L 43.21875 27.484375 
z
M 52.203125 31.203125 
L 52.203125 0 
L 43.21875 0 
L 43.21875 8.296875 
Q 40.140625 3.328125 35.546875 0.953125 
Q 30.953125 -1.421875 24.3125 -1.421875 
Q 15.921875 -1.421875 10.953125 3.296875 
Q 6 8.015625 6 15.921875 
Q 6 25.140625 12.171875 29.828125 
Q 18.359375 34.515625 30.609375 34.515625 
L 43.21875 34.515625 
L 43.21875 35.40625 
Q 43.21875 41.609375 39.140625 45 
Q 35.0625 48.390625 27.6875 48.390625 
Q 23 48.390625 18.546875 47.265625 
Q 14.109375 46.140625 10.015625 43.890625 
L 10.015625 52.203125 
Q 14.9375 54.109375 19.578125 55.046875 
Q 24.21875 56 28.609375 56 
Q 40.484375 56 46.34375 49.84375 
Q 52.203125 43.703125 52.203125 31.203125 
z
" id="DejaVuSans-97"/>
       <path d="M 10.6875 12.40625 
L 21 12.40625 
L 21 0 
L 10.6875 0 
z
" id="DejaVuSans-46"/>
       <path d="M 8.5 21.578125 
L 8.5 54.6875 
L 17.484375 54.6875 
L 17.484375 21.921875 
Q 17.484375 14.15625 20.5 10.265625 
Q 23.53125 6.390625 29.59375 6.390625 
Q 36.859375 6.390625 41.078125 11.03125 
Q 45.3125 15.671875 45.3125 23.6875 
L 45.3125 54.6875 
L 54.296875 54.6875 
L 54.296875 0 
L 45.3125 0 
L 45.3125 8.40625 
Q 42.046875 3.421875 37.71875 1 
Q 33.40625 -1.421875 27.6875 -1.421875 
Q 18.265625 -1.421875 13.375 4.4375 
Q 8.5 10.296875 8.5 21.578125 
z
M 31.109375 56 
z
" id="DejaVuSans-117"/>
      </defs>
      <use xlink:href="#DejaVuSans-73"/>
      <use x="29.492188" xlink:href="#DejaVuSans-110"/>
      <use x="92.871094" xlink:href="#DejaVuSans-116"/>
      <use x="132.080078" xlink:href="#DejaVuSans-101"/>
      <use x="193.603516" xlink:href="#DejaVuSans-110"/>
      <use x="256.982422" xlink:href="#DejaVuSans-115"/>
      <use x="309.082031" xlink:href="#DejaVuSans-105"/>
      <use x="336.865234" xlink:href="#DejaVuSans-116"/>
      <use x="376.074219" xlink:href="#DejaVuSans-121"/>
      <use x="435.253906" xlink:href="#DejaVuSans-32"/>
      <use x="467.041016" xlink:href="#DejaVuSans-91"/>
      <use x="506.054688" xlink:href="#DejaVuSans-97"/>
      <use x="567.333984" xlink:href="#DejaVuSans-46"/>
      <use x="599.121094" xlink:href="#DejaVuSans-117"/>
      <use x="662.5" xlink:href="#DejaVuSans-46"/>
      <use x="694.287109" xlink:href="#DejaVuSans-93"/>
     </g>
    </g>
   </g>
   <g id="line2d_6">
    <path clip-path="url(#p65b53e5aa9)" d="M 70.586182 53.68785 
L 77.079273 53.722646 
L 83.572364 53.695583 
L 90.065455 53.651122 
L 96.558545 53.568 
L 103.051636 53.666587 
L 109.544727 53.78837 
L 116.037818 53.751642 
L 122.530909 53.656921 
L 129.024 53.743909 
L 135.517091 53.612461 
L 142.010182 53.641457 
L 148.503273 53.670453 
L 154.996364 53.705248 
L 161.489455 53.757441 
L 167.982545 53.595063 
L 174.475636 53.651122 
L 180.968727 53.645323 
L 187.461818 53.734244 
L 193.954909 53.598929 
L 200.448 53.776772 
L 206.941091 53.732311 
L 213.434182 53.761307 
L 219.927273 53.678185 
L 226.420364 53.637591 
L 232.913455 53.732311 
L 239.406545 53.595063 
L 245.899636 53.765173 
L 252.392727 53.71298 
L 258.885818 53.703315 
L 265.378909 53.612461 
L 271.872 53.711047 
L 278.365091 53.66852 
L 284.858182 53.614394 
L 291.351273 53.716846 
L 297.844364 53.767106 
L 304.337455 53.691717 
L 310.830545 53.71878 
L 317.323636 53.740043 
L 323.816727 53.641457 
L 330.309818 53.743909 
" style="fill:none;stroke:#4e5f69;stroke-linecap:square;stroke-width:1.5;"/>
   </g>
   <g id="line2d_7">
    <path clip-path="url(#p65b53e5aa9)" d="M 70.586182 63.490455 
L 77.079273 63.401533 
L 83.572364 63.451793 
L 90.065455 63.351274 
L 96.558545 63.463392 
L 103.051636 63.345474 
L 109.544727 63.413132 
L 116.037818 63.273951 
L 122.530909 63.469191 
L 129.024 63.393801 
L 135.517091 63.376403 
L 142.010182 63.372537 
L 148.503273 63.413132 
L 154.996364 63.382203 
L 161.489455 63.293281 
L 167.982545 63.393801 
L 174.475636 63.364805 
L 180.968727 63.341608 
L 187.461818 63.250754 
L 193.954909 63.546514 
L 200.448 63.335809 
L 206.941091 63.345474 
L 213.434182 63.215959 
L 219.927273 63.415065 
L 226.420364 63.287482 
L 232.913455 63.347407 
L 239.406545 63.34934 
L 245.899636 63.289415 
L 252.392727 63.308746 
L 258.885818 63.225624 
L 265.378909 63.416998 
L 271.872 63.357073 
L 278.365091 63.270085 
L 284.858182 63.368671 
L 291.351273 63.335809 
L 297.844364 63.357073 
L 304.337455 63.326144 
L 310.830545 63.442128 
L 317.323636 63.301014 
L 323.816727 63.343541 
L 330.309818 63.339675 
" style="fill:none;stroke:#51636e;stroke-linecap:square;stroke-width:1.5;"/>
   </g>
   <g id="line2d_8">
    <path clip-path="url(#p65b53e5aa9)" d="M 70.586182 73.101685 
L 77.079273 73.045626 
L 83.572364 73.105551 
L 90.065455 73.088153 
L 96.558545 73.053358 
L 103.051636 73.04176 
L 109.544727 72.945106 
L 116.037818 73.138413 
L 122.530909 73.053358 
L 129.024 73.020496 
L 135.517091 72.950905 
L 142.010182 73.06109 
L 148.503273 73.020496 
L 154.996364 73.020496 
L 161.489455 73.024362 
L 167.982545 73.088153 
L 174.475636 73.151945 
L 180.968727 73.04176 
L 187.461818 73.059157 
L 193.954909 73.074622 
L 200.448 72.943173 
L 206.941091 72.977968 
L 213.434182 72.993433 
L 219.927273 72.993433 
L 226.420364 73.051425 
L 232.913455 73.01663 
L 239.406545 73.045626 
L 245.899636 73.039827 
L 252.392727 73.030161 
L 258.885818 72.960571 
L 265.378909 73.055291 
L 271.872 73.043693 
L 278.365091 73.034027 
L 284.858182 72.883248 
L 291.351273 73.039827 
L 297.844364 72.974102 
L 304.337455 73.030161 
L 310.830545 73.012764 
L 317.323636 72.981834 
L 323.816727 72.997299 
L 330.309818 72.989567 
" style="fill:none;stroke:#546772;stroke-linecap:square;stroke-width:1.5;"/>
   </g>
   <g id="line2d_9">
    <path clip-path="url(#p65b53e5aa9)" d="M 70.586182 82.680053 
L 77.079273 82.707116 
L 83.572364 82.689718 
L 90.065455 82.672321 
L 96.558545 82.757376 
L 103.051636 82.651057 
L 109.544727 82.654923 
L 116.037818 82.623994 
L 122.530909 82.693584 
L 129.024 82.656856 
L 135.517091 82.672321 
L 142.010182 82.770907 
L 148.503273 82.705183 
L 154.996364 82.745777 
L 161.489455 82.579533 
L 167.982545 82.8231 
L 174.475636 82.699384 
L 180.968727 82.75351 
L 187.461818 82.687785 
L 193.954909 82.776706 
L 200.448 82.62786 
L 206.941091 82.709049 
L 213.434182 82.70325 
L 219.927273 82.67812 
L 226.420364 82.674254 
L 232.913455 82.726447 
L 239.406545 82.695517 
L 245.899636 82.799903 
L 252.392727 82.701317 
L 258.885818 82.716781 
L 265.378909 82.784439 
L 271.872 82.606596 
L 278.365091 82.726447 
L 284.858182 82.662655 
L 291.351273 82.714848 
L 297.844364 82.654923 
L 304.337455 82.598864 
L 310.830545 82.641392 
L 317.323636 82.660722 
L 323.816727 82.691651 
L 330.309818 82.629793 
" style="fill:none;stroke:#586b76;stroke-linecap:square;stroke-width:1.5;"/>
   </g>
   <g id="line2d_10">
    <path clip-path="url(#p65b53e5aa9)" d="M 70.586182 92.293216 
L 77.079273 92.507787 
L 83.572364 92.335744 
L 90.065455 92.424665 
L 96.558545 92.399535 
L 103.051636 92.376338 
L 109.544727 92.380204 
L 116.037818 92.372472 
L 122.530909 92.362807 
L 129.024 92.353141 
L 135.517091 92.405334 
L 142.010182 92.360874 
L 148.503273 92.362807 
L 154.996364 92.310614 
L 161.489455 92.299015 
L 167.982545 92.349275 
L 174.475636 92.324145 
L 180.968727 92.333811 
L 187.461818 92.281618 
L 193.954909 92.349275 
L 200.448 92.293216 
L 206.941091 92.270019 
L 213.434182 92.258421 
L 219.927273 92.382138 
L 226.420364 92.279685 
L 232.913455 92.297082 
L 239.406545 92.312547 
L 245.899636 92.387937 
L 252.392727 92.335744 
L 258.885818 92.328012 
L 265.378909 92.411134 
L 271.872 92.318346 
L 278.365091 92.418866 
L 284.858182 92.351208 
L 291.351273 92.252622 
L 297.844364 92.329945 
L 304.337455 92.275819 
L 310.830545 92.428531 
L 317.323636 92.308681 
L 323.816727 92.357008 
L 330.309818 92.23909 
" style="fill:none;stroke:#5b6f7b;stroke-linecap:square;stroke-width:1.5;"/>
   </g>
   <g id="line2d_11">
    <path clip-path="url(#p65b53e5aa9)" d="M 70.586182 102.045561 
L 77.079273 101.970171 
L 83.572364 101.869651 
L 90.065455 102.099687 
L 96.558545 102.032029 
L 103.051636 101.997234 
L 109.544727 102.078423 
L 116.037818 102.049427 
L 122.530909 102.093887 
L 129.024 102.061025 
L 135.517091 102.082289 
L 142.010182 102.153813 
L 148.503273 102.105486 
L 154.996364 102.090021 
L 161.489455 101.991435 
L 167.982545 102.103553 
L 174.475636 102.039761 
L 180.968727 102.010765 
L 187.461818 102.043628 
L 193.954909 101.983702 
L 200.448 102.006899 
L 206.941091 102.010765 
L 213.434182 101.948907 
L 219.927273 101.890915 
L 226.420364 102.088088 
L 232.913455 102.05136 
L 239.406545 102.041695 
L 245.899636 101.972104 
L 252.392727 101.985635 
L 258.885818 102.043628 
L 265.378909 102.064891 
L 271.872 102.033962 
L 278.365091 102.084222 
L 284.858182 102.016565 
L 291.351273 101.921844 
L 297.844364 102.020431 
L 304.337455 101.997234 
L 310.830545 102.030096 
L 317.323636 102.082289 
L 323.816727 101.914112 
L 330.309818 102.016565 
" style="fill:none;stroke:#5e7380;stroke-linecap:square;stroke-width:1.5;"/>
   </g>
   <g id="line2d_12">
    <path clip-path="url(#p65b53e5aa9)" d="M 70.586182 111.701252 
L 77.079273 111.616196 
L 83.572364 111.815303 
L 90.065455 111.710917 
L 96.558545 111.734114 
L 103.051636 111.681921 
L 109.544727 111.697385 
L 116.037818 111.718649 
L 122.530909 111.716716 
L 129.024 111.701252 
L 135.517091 111.718649 
L 142.010182 111.596866 
L 148.503273 111.666456 
L 154.996364 111.697385 
L 161.489455 111.786307 
L 167.982545 111.705118 
L 174.475636 111.745712 
L 180.968727 111.736047 
L 187.461818 111.707051 
L 193.954909 111.678055 
L 200.448 111.670322 
L 206.941091 111.668389 
L 213.434182 111.650992 
L 219.927273 111.730248 
L 226.420364 111.577535 
L 232.913455 111.770842 
L 239.406545 111.581401 
L 245.899636 111.720582 
L 252.392727 111.639393 
L 258.885818 111.716716 
L 265.378909 111.679988 
L 271.872 111.784374 
L 278.365091 111.776641 
L 284.858182 111.71285 
L 291.351273 111.635527 
L 297.844364 111.724448 
L 304.337455 111.54274 
L 310.830545 111.720582 
L 317.323636 111.666456 
L 323.816727 111.569803 
L 330.309818 111.608464 
" style="fill:none;stroke:#617784;stroke-linecap:square;stroke-width:1.5;"/>
   </g>
   <g id="line2d_13">
    <path clip-path="url(#p65b53e5aa9)" d="M 70.586182 121.384005 
L 77.079273 121.4246 
L 83.572364 121.387872 
L 90.065455 121.333746 
L 96.558545 121.418801 
L 103.051636 121.428466 
L 109.544727 121.411068 
L 116.037818 121.366608 
L 122.530909 121.322147 
L 129.024 121.283486 
L 135.517091 121.29895 
L 142.010182 121.368541 
L 148.503273 121.441998 
L 154.996364 121.382072 
L 161.489455 121.430399 
L 167.982545 121.37434 
L 174.475636 121.436198 
L 180.968727 121.391738 
L 187.461818 121.370474 
L 193.954909 121.260289 
L 200.448 121.39947 
L 206.941091 121.351143 
L 213.434182 121.409135 
L 219.927273 121.436198 
L 226.420364 121.360809 
L 232.913455 121.39947 
L 239.406545 121.356942 
L 245.899636 121.252557 
L 252.392727 121.237092 
L 258.885818 121.413001 
L 265.378909 121.345344 
L 271.872 121.389805 
L 278.365091 121.312482 
L 284.858182 121.246757 
L 291.351273 121.401403 
L 297.844364 121.356942 
L 304.337455 121.384005 
L 310.830545 121.213895 
L 317.323636 121.490324 
L 323.816727 121.242891 
L 330.309818 121.376273 
" style="fill:none;stroke:#657b89;stroke-linecap:square;stroke-width:1.5;"/>
   </g>
   <g id="line2d_14">
    <path clip-path="url(#p65b53e5aa9)" d="M 70.586182 131.033897 
L 77.079273 131.088023 
L 83.572364 131.039696 
L 90.065455 131.037763 
L 96.558545 130.997169 
L 103.051636 131.059027 
L 109.544727 131.024232 
L 116.037818 130.989436 
L 122.530909 131.093822 
L 129.024 131.008767 
L 135.517091 131.018432 
L 142.010182 131.018432 
L 148.503273 131.109287 
L 154.996364 131.053228 
L 161.489455 131.109287 
L 167.982545 130.98557 
L 174.475636 131.039696 
L 180.968727 131.033897 
L 187.461818 131.06096 
L 193.954909 131.03583 
L 200.448 130.983637 
L 206.941091 130.914047 
L 213.434182 130.98557 
L 219.927273 130.867653 
L 226.420364 130.954641 
L 232.913455 131.043562 
L 239.406545 130.991369 
L 245.899636 131.028098 
L 252.392727 131.047429 
L 258.885818 131.124751 
L 265.378909 130.958507 
L 271.872 131.068692 
L 278.365091 130.954641 
L 284.858182 131.002968 
L 291.351273 131.064826 
L 297.844364 130.96044 
L 304.337455 131.002968 
L 310.830545 131.06096 
L 317.323636 130.98557 
L 323.816727 130.968173 
L 330.309818 130.850255 
" style="fill:none;stroke:#687f8d;stroke-linecap:square;stroke-width:1.5;"/>
   </g>
   <g id="line2d_15">
    <path clip-path="url(#p65b53e5aa9)" d="M 70.586182 140.712785 
L 77.079273 140.706986 
L 83.572364 140.774643 
L 90.065455 140.739848 
L 96.558545 140.745647 
L 103.051636 140.679923 
L 109.544727 140.712785 
L 116.037818 140.612265 
L 122.530909 140.82297 
L 129.024 140.616131 
L 135.517091 140.685722 
L 142.010182 140.666391 
L 148.503273 140.77271 
L 154.996364 140.72245 
L 161.489455 140.801706 
L 167.982545 140.724383 
L 174.475636 140.735982 
L 180.968727 140.666391 
L 187.461818 140.701186 
L 193.954909 140.730182 
L 200.448 140.641261 
L 206.941091 140.720517 
L 213.434182 140.662525 
L 219.927273 140.67219 
L 226.420364 140.716651 
L 232.913455 140.55234 
L 239.406545 140.701186 
L 245.899636 140.679923 
L 252.392727 140.666391 
L 258.885818 140.656726 
L 265.378909 140.701186 
L 271.872 140.701186 
L 278.365091 140.666391 
L 284.858182 140.764978 
L 291.351273 140.67219 
L 297.844364 140.763045 
L 304.337455 140.643194 
L 310.830545 140.732115 
L 317.323636 140.67219 
L 323.816727 140.705052 
L 330.309818 140.687655 
" style="fill:none;stroke:#6b8392;stroke-linecap:square;stroke-width:1.5;"/>
   </g>
   <g id="line2d_16">
    <path clip-path="url(#p65b53e5aa9)" d="M 70.586182 150.447732 
L 77.079273 150.368476 
L 83.572364 150.385873 
L 90.065455 150.40907 
L 96.558545 150.436133 
L 103.051636 150.337546 
L 109.544727 150.391672 
L 116.037818 150.360743 
L 122.530909 150.412936 
L 129.024 150.331747 
L 135.517091 150.30855 
L 142.010182 150.418735 
L 148.503273 150.296952 
L 154.996364 150.353011 
L 161.489455 150.376208 
L 167.982545 150.380074 
L 174.475636 150.33948 
L 180.968727 150.318216 
L 187.461818 150.267956 
L 193.954909 150.351078 
L 200.448 150.335613 
L 206.941091 150.287287 
L 213.434182 150.420669 
L 219.927273 150.387806 
L 226.420364 150.380074 
L 232.913455 150.372342 
L 239.406545 150.31435 
L 245.899636 150.28922 
L 252.392727 150.349145 
L 258.885818 150.327881 
L 265.378909 150.40907 
L 271.872 150.443865 
L 278.365091 150.387806 
L 284.858182 150.262157 
L 291.351273 150.368476 
L 297.844364 150.407137 
L 304.337455 150.380074 
L 310.830545 150.422602 
L 317.323636 150.310483 
L 323.816727 150.225428 
L 330.309818 150.353011 
" style="fill:none;stroke:#6e8796;stroke-linecap:square;stroke-width:1.5;"/>
   </g>
   <g id="line2d_17">
    <path clip-path="url(#p65b53e5aa9)" d="M 70.586182 160.09569 
L 77.079273 160.058962 
L 83.572364 160.161415 
L 90.065455 160.041564 
L 96.558545 160.093757 
L 103.051636 160.087958 
L 109.544727 160.002903 
L 116.037818 160.086025 
L 122.530909 159.935245 
L 129.024 160.053163 
L 135.517091 160.028033 
L 142.010182 160.004836 
L 148.503273 159.997103 
L 154.996364 160.039631 
L 161.489455 159.964241 
L 167.982545 160.09569 
L 174.475636 160.097623 
L 180.968727 160.016434 
L 187.461818 159.981639 
L 193.954909 160.082159 
L 200.448 159.985505 
L 206.941091 159.997103 
L 213.434182 160.00097 
L 219.927273 159.97584 
L 226.420364 159.993237 
L 232.913455 159.960375 
L 239.406545 159.999037 
L 245.899636 160.037698 
L 252.392727 160.033832 
L 258.885818 160.028033 
L 265.378909 160.082159 
L 271.872 160.107289 
L 278.365091 160.00097 
L 284.858182 160.051229 
L 291.351273 160.016434 
L 297.844364 159.85019 
L 304.337455 159.993237 
L 310.830545 160.033832 
L 317.323636 160.035765 
L 323.816727 160.035765 
L 330.309818 160.033832 
" style="fill:none;stroke:#728b9a;stroke-linecap:square;stroke-width:1.5;"/>
   </g>
   <g id="line2d_18">
    <path clip-path="url(#p65b53e5aa9)" d="M 70.586182 169.716586 
L 77.079273 169.761046 
L 83.572364 169.70692 
L 90.065455 169.797775 
L 96.558545 169.699188 
L 103.051636 169.793909 
L 109.544727 169.674058 
L 116.037818 169.70692 
L 122.530909 169.749448 
L 129.024 169.743649 
L 135.517091 169.735916 
L 142.010182 169.666326 
L 148.503273 169.679857 
L 154.996364 169.689523 
L 161.489455 169.75718 
L 167.982545 169.733983 
L 174.475636 169.790042 
L 180.968727 169.652794 
L 187.461818 169.650861 
L 193.954909 169.701121 
L 200.448 169.724318 
L 206.941091 169.639263 
L 213.434182 169.646995 
L 219.927273 169.733983 
L 226.420364 169.629597 
L 232.913455 169.730117 
L 239.406545 169.664393 
L 245.899636 169.683723 
L 252.392727 169.515546 
L 258.885818 169.666326 
L 265.378909 169.668259 
L 271.872 169.728184 
L 278.365091 169.639263 
L 284.858182 169.793909 
L 291.351273 169.639263 
L 297.844364 169.762979 
L 304.337455 169.716586 
L 310.830545 169.672125 
L 317.323636 169.594802 
L 323.816727 169.668259 
L 330.309818 169.571605 
" style="fill:none;stroke:#758f9f;stroke-linecap:square;stroke-width:1.5;"/>
   </g>
   <g id="line2d_19">
    <path clip-path="url(#p65b53e5aa9)" d="M 70.586182 179.306552 
L 77.079273 179.312351 
L 83.572364 179.302686 
L 90.065455 179.426403 
L 96.558545 179.34328 
L 103.051636 179.426403 
L 109.544727 179.356812 
L 116.037818 179.41867 
L 122.530909 179.318151 
L 129.024 179.405139 
L 135.517091 179.325883 
L 142.010182 179.322017 
L 148.503273 179.385808 
L 154.996364 179.395473 
L 161.489455 179.279489 
L 167.982545 179.308485 
L 174.475636 179.345214 
L 180.968727 179.335548 
L 187.461818 179.441867 
L 193.954909 179.339414 
L 200.448 179.331682 
L 206.941091 179.414804 
L 213.434182 179.416737 
L 219.927273 179.32395 
L 226.420364 179.439934 
L 232.913455 179.202166 
L 239.406545 179.383875 
L 245.899636 179.354879 
L 252.392727 179.252426 
L 258.885818 179.403206 
L 265.378909 179.372277 
L 271.872 179.289154 
L 278.365091 179.381942 
L 284.858182 179.410938 
L 291.351273 179.304619 
L 297.844364 179.291088 
L 304.337455 179.364544 
L 310.830545 179.352946 
L 317.323636 179.281422 
L 323.816727 179.387741 
L 330.309818 179.325883 
" style="fill:none;stroke:#7893a3;stroke-linecap:square;stroke-width:1.5;"/>
   </g>
   <g id="line2d_20">
    <path clip-path="url(#p65b53e5aa9)" d="M 70.586182 189.08016 
L 77.079273 189.165215 
L 83.572364 189.018302 
L 90.065455 189.06083 
L 96.558545 189.033767 
L 103.051636 188.989306 
L 109.544727 188.975774 
L 116.037818 189.033767 
L 122.530909 189.041499 
L 129.024 189.0357 
L 135.517091 189.037633 
L 142.010182 189.039566 
L 148.503273 189.049231 
L 154.996364 189.01057 
L 161.489455 189.062763 
L 167.982545 189.062763 
L 174.475636 189.05503 
L 180.968727 189.031834 
L 187.461818 189.097558 
L 193.954909 189.099491 
L 200.448 189.014436 
L 206.941091 189.109156 
L 213.434182 189.051164 
L 219.927273 189.056963 
L 226.420364 189.08016 
L 232.913455 189.012503 
L 239.406545 189.064696 
L 245.899636 189.027967 
L 252.392727 189.058897 
L 258.885818 189.0299 
L 265.378909 189.004771 
L 271.872 189.064696 
L 278.365091 189.047298 
L 284.858182 189.026034 
L 291.351273 188.993172 
L 297.844364 189.026034 
L 304.337455 189.066629 
L 310.830545 189.039566 
L 317.323636 189.027967 
L 323.816727 189.0299 
L 330.309818 188.96031 
" style="fill:none;stroke:#7b98a8;stroke-linecap:square;stroke-width:1.5;"/>
   </g>
   <g id="line2d_21">
    <path clip-path="url(#p65b53e5aa9)" d="M 70.586182 198.797709 
L 77.079273 198.699123 
L 83.572364 198.708788 
L 90.065455 198.720387 
L 96.558545 198.731985 
L 103.051636 198.701056 
L 109.544727 198.76678 
L 116.037818 198.74745 
L 122.530909 198.718454 
L 129.024 198.863434 
L 135.517091 198.616001 
L 142.010182 198.811241 
L 148.503273 198.612135 
L 154.996364 198.685591 
L 161.489455 198.664328 
L 167.982545 198.64693 
L 174.475636 198.608268 
L 180.968727 198.683658 
L 187.461818 198.699123 
L 193.954909 198.693324 
L 200.448 198.668194 
L 206.941091 198.656595 
L 213.434182 198.658528 
L 219.927273 198.670127 
L 226.420364 198.731985 
L 232.913455 198.745517 
L 239.406545 198.629532 
L 245.899636 198.602469 
L 252.392727 198.731985 
L 258.885818 198.760981 
L 265.378909 198.726186 
L 271.872 198.685591 
L 278.365091 198.731985 
L 284.858182 198.675926 
L 291.351273 198.673993 
L 297.844364 198.598603 
L 304.337455 198.710721 
L 310.830545 198.768713 
L 317.323636 198.631465 
L 323.816727 198.656595 
L 330.309818 198.623733 
" style="fill:none;stroke:#7e9cac;stroke-linecap:square;stroke-width:1.5;"/>
   </g>
   <g id="line2d_22">
    <path clip-path="url(#p65b53e5aa9)" d="M 70.586182 208.416672 
L 77.079273 208.387676 
L 83.572364 208.38381 
L 90.065455 208.43407 
L 96.558545 208.470798 
L 103.051636 208.422471 
L 109.544727 208.265892 
L 116.037818 208.35868 
L 122.530909 208.304554 
L 129.024 208.405074 
L 135.517091 208.306487 
L 142.010182 208.393475 
L 148.503273 208.325818 
L 154.996364 208.412806 
L 161.489455 208.43407 
L 167.982545 208.265892 
L 174.475636 208.42827 
L 180.968727 208.350948 
L 187.461818 208.389609 
L 193.954909 208.30842 
L 200.448 208.376077 
L 206.941091 208.40314 
L 213.434182 208.347081 
L 219.927273 208.323885 
L 226.420364 208.306487 
L 232.913455 208.347081 
L 239.406545 208.204034 
L 245.899636 208.341282 
L 252.392727 208.312286 
L 258.885818 208.362546 
L 265.378909 208.327751 
L 271.872 208.339349 
L 278.365091 208.362546 
L 284.858182 208.320018 
L 291.351273 208.302621 
L 297.844364 208.277491 
L 304.337455 208.271692 
L 310.830545 208.399274 
L 317.323636 208.323885 
L 323.816727 208.279424 
L 330.309818 208.250428 
" style="fill:none;stroke:#82a0b1;stroke-linecap:square;stroke-width:1.5;"/>
   </g>
   <g id="line2d_23">
    <path clip-path="url(#p65b53e5aa9)" d="M 70.586182 218.000839 
L 77.079273 217.991174 
L 83.572364 217.973776 
L 90.065455 218.058831 
L 96.558545 218.033701 
L 103.051636 218.008571 
L 109.544727 218.047233 
L 116.037818 217.985375 
L 122.530909 218.126489 
L 129.024 218.051099 
L 135.517091 218.054965 
L 142.010182 218.083961 
L 148.503273 217.935115 
L 154.996364 217.954445 
L 161.489455 217.958312 
L 167.982545 218.014371 
L 174.475636 218.004705 
L 180.968727 217.952512 
L 187.461818 218.051099 
L 193.954909 217.96991 
L 200.448 217.973776 
L 206.941091 217.890654 
L 213.434182 218.043367 
L 219.927273 218.060764 
L 226.420364 218.107158 
L 232.913455 218.076229 
L 239.406545 217.977642 
L 245.899636 217.933182 
L 252.392727 217.921583 
L 258.885818 218.033701 
L 265.378909 218.002772 
L 271.872 218.031768 
L 278.365091 218.068497 
L 284.858182 218.031768 
L 291.351273 218.031768 
L 297.844364 217.989241 
L 304.337455 217.99504 
L 310.830545 217.966044 
L 317.323636 217.981508 
L 323.816727 217.979575 
L 330.309818 218.002772 
" style="fill:none;stroke:#85a4b5;stroke-linecap:square;stroke-width:1.5;"/>
   </g>
   <g id="line2d_24">
    <path clip-path="url(#p65b53e5aa9)" d="M 70.586182 227.689392 
L 77.079273 227.737719 
L 83.572364 227.668128 
L 90.065455 227.762849 
L 96.558545 227.811176 
L 103.051636 227.693258 
L 109.544727 227.65653 
L 116.037818 227.699058 
L 122.530909 227.80731 
L 129.024 227.615936 
L 135.517091 227.786046 
L 142.010182 227.695191 
L 148.503273 227.733853 
L 154.996364 227.797644 
L 161.489455 227.642999 
L 167.982545 227.770581 
L 174.475636 227.70679 
L 180.968727 227.718388 
L 187.461818 227.646865 
L 193.954909 227.760916 
L 200.448 227.724188 
L 206.941091 227.747384 
L 213.434182 227.65653 
L 219.927273 227.602404 
L 226.420364 227.648798 
L 232.913455 227.714522 
L 239.406545 227.646865 
L 245.899636 227.629467 
L 252.392727 227.685526 
L 258.885818 227.635266 
L 265.378909 227.641065 
L 271.872 227.68166 
L 278.365091 227.648798 
L 284.858182 227.677794 
L 291.351273 227.700991 
L 297.844364 227.685526 
L 304.337455 227.687459 
L 310.830545 227.724188 
L 317.323636 227.670062 
L 323.816727 227.590806 
L 330.309818 227.675861 
" style="fill:none;stroke:#88a8ba;stroke-linecap:square;stroke-width:1.5;"/>
   </g>
   <g id="line2d_25">
    <path clip-path="url(#p65b53e5aa9)" d="M 70.586182 237.347016 
L 77.079273 237.379878 
L 83.572364 237.453335 
L 90.065455 237.39341 
L 96.558545 237.399209 
L 103.051636 237.455268 
L 109.544727 237.385678 
L 116.037818 237.360548 
L 122.530909 237.406941 
L 129.024 237.345083 
L 135.517091 237.341217 
L 142.010182 237.327685 
L 148.503273 237.385678 
L 154.996364 237.289024 
L 161.489455 237.2175 
L 167.982545 237.310288 
L 174.475636 237.325752 
L 180.968727 237.352815 
L 187.461818 237.26776 
L 193.954909 237.405008 
L 200.448 237.316087 
L 206.941091 237.306422 
L 213.434182 237.352815 
L 219.927273 237.41854 
L 226.420364 237.323819 
L 232.913455 237.304489 
L 239.406545 237.364414 
L 245.899636 237.401142 
L 252.392727 237.329619 
L 258.885818 237.254229 
L 265.378909 237.29289 
L 271.872 237.339284 
L 278.365091 237.399209 
L 284.858182 237.345083 
L 291.351273 237.366347 
L 297.844364 237.347016 
L 304.337455 237.275493 
L 310.830545 237.26776 
L 317.323636 237.356682 
L 323.816727 237.327685 
L 330.309818 237.403075 
" style="fill:none;stroke:#8bacbe;stroke-linecap:square;stroke-width:1.5;"/>
   </g>
   <g id="line2d_26">
    <path clip-path="url(#p65b53e5aa9)" d="M 70.586182 247.047168 
L 77.079273 247.118691 
L 83.572364 247.14962 
L 90.065455 247.085829 
L 96.558545 247.037502 
L 103.051636 247.093561 
L 109.544727 247.025904 
L 116.037818 247.039435 
L 122.530909 246.969845 
L 129.024 246.93505 
L 135.517091 246.911853 
L 142.010182 247.0549 
L 148.503273 247.093561 
L 154.996364 247.035569 
L 161.489455 247.049101 
L 167.982545 247.093561 
L 174.475636 246.973711 
L 180.968727 247.093561 
L 187.461818 247.025904 
L 193.954909 246.981443 
L 200.448 247.010439 
L 206.941091 247.045235 
L 213.434182 247.052967 
L 219.927273 247.08003 
L 226.420364 246.998841 
L 232.913455 247.074231 
L 239.406545 247.00464 
L 245.899636 247.056833 
L 252.392727 246.946648 
L 258.885818 247.00464 
L 265.378909 247.081963 
L 271.872 246.989176 
L 278.365091 246.938916 
L 284.858182 247.033636 
L 291.351273 247.056833 
L 297.844364 247.045235 
L 304.337455 246.896388 
L 310.830545 246.97951 
L 317.323636 246.993042 
L 323.816727 246.958246 
L 330.309818 247.047168 
" style="fill:none;stroke:#8fb0c3;stroke-linecap:square;stroke-width:1.5;"/>
   </g>
   <g id="line2d_27">
    <path clip-path="url(#p65b53e5aa9)" d="M 70.586182 256.737654 
L 77.079273 256.679662 
L 83.572364 256.648733 
L 90.065455 256.735721 
L 96.558545 256.756985 
L 103.051636 256.671929 
L 109.544727 256.637134 
L 116.037818 256.710591 
L 122.530909 256.735721 
L 129.024 256.710591 
L 135.517091 256.687394 
L 142.010182 256.679662 
L 148.503273 256.704792 
L 154.996364 256.71639 
L 161.489455 256.708658 
L 167.982545 256.679662 
L 174.475636 256.650666 
L 180.968727 256.708658 
L 187.461818 256.62167 
L 193.954909 256.743453 
L 200.448 256.588807 
L 206.941091 256.747319 
L 213.434182 256.656465 
L 219.927273 256.693193 
L 226.420364 256.704792 
L 232.913455 256.664197 
L 239.406545 256.594607 
L 245.899636 256.567544 
L 252.392727 256.689327 
L 258.885818 256.648733 
L 265.378909 256.714457 
L 271.872 256.656465 
L 278.365091 256.770516 
L 284.858182 256.617803 
L 291.351273 256.623603 
L 297.844364 256.644866 
L 304.337455 256.706725 
L 310.830545 256.727988 
L 317.323636 256.6468 
L 323.816727 256.687394 
L 330.309818 256.563677 
" style="fill:none;stroke:#92b4c8;stroke-linecap:square;stroke-width:1.5;"/>
   </g>
   <g id="line2d_28">
    <path clip-path="url(#p65b53e5aa9)" d="M 70.586182 266.391412 
L 77.079273 266.337286 
L 83.572364 266.37788 
L 90.065455 266.383679 
L 96.558545 266.281227 
L 103.051636 266.354683 
L 109.544727 266.381746 
L 116.037818 266.472601 
L 122.530909 266.391412 
L 129.024 266.445538 
L 135.517091 266.339219 
L 142.010182 266.356616 
L 148.503273 266.267695 
L 154.996364 266.35275 
L 161.489455 266.379813 
L 167.982545 266.314089 
L 174.475636 266.439738 
L 180.968727 266.238699 
L 187.461818 266.408809 
L 193.954909 266.319888 
L 200.448 266.317955 
L 206.941091 266.32762 
L 213.434182 266.287026 
L 219.927273 266.314089 
L 226.420364 266.379813 
L 232.913455 266.290892 
L 239.406545 266.310223 
L 245.899636 266.362416 
L 252.392727 266.290892 
L 258.885818 266.348884 
L 265.378909 266.412675 
L 271.872 266.341152 
L 278.365091 266.383679 
L 284.858182 266.267695 
L 291.351273 266.341152 
L 297.844364 266.449404 
L 304.337455 266.290892 
L 310.830545 266.240632 
L 317.323636 266.331486 
L 323.816727 266.325687 
L 330.309818 266.40301 
" style="fill:none;stroke:#95b8cc;stroke-linecap:square;stroke-width:1.5;"/>
   </g>
   <g id="line2d_29">
    <path clip-path="url(#p65b53e5aa9)" d="M 70.586182 276.083831 
L 77.079273 276.012307 
L 83.572364 276.035504 
L 90.065455 276.006508 
L 96.558545 275.923386 
L 103.051636 276.037437 
L 109.544727 275.952382 
L 116.037818 276.045169 
L 122.530909 275.979445 
L 129.024 276.081898 
L 135.517091 275.992977 
L 142.010182 276.091563 
L 148.503273 275.967847 
L 154.996364 275.967847 
L 161.489455 275.971713 
L 167.982545 275.992977 
L 174.475636 275.996843 
L 180.968727 275.938851 
L 187.461818 275.998776 
L 193.954909 276.031638 
L 200.448 275.996843 
L 206.941091 275.91952 
L 213.434182 276.018106 
L 219.927273 276.033571 
L 226.420364 275.983311 
L 232.913455 275.94465 
L 239.406545 275.96978 
L 245.899636 276.023906 
L 252.392727 276.010374 
L 258.885818 276.029705 
L 265.378909 275.991043 
L 271.872 276.025839 
L 278.365091 275.954315 
L 284.858182 276.050969 
L 291.351273 275.946583 
L 297.844364 276.108961 
L 304.337455 275.954315 
L 310.830545 275.938851 
L 317.323636 275.977512 
L 323.816727 275.873126 
L 330.309818 276.045169 
" style="fill:none;stroke:#98bcd1;stroke-linecap:square;stroke-width:1.5;"/>
   </g>
   <g id="line2d_30">
    <path clip-path="url(#p65b53e5aa9)" d="M 70.586182 285.669931 
L 77.079273 285.633203 
L 83.572364 285.722124 
L 90.065455 285.617738 
L 96.558545 285.639002 
L 103.051636 285.780116 
L 109.544727 285.698927 
L 116.037818 285.739522 
L 122.530909 285.623537 
L 129.024 285.745321 
L 135.517091 285.654467 
L 142.010182 285.604207 
L 148.503273 285.592608 
L 154.996364 285.669931 
L 161.489455 285.749187 
L 167.982545 285.739522 
L 174.475636 285.687329 
L 180.968727 285.573278 
L 187.461818 285.722124 
L 193.954909 285.70086 
L 200.448 285.739522 
L 206.941091 285.658333 
L 213.434182 285.640935 
L 219.927273 285.637069 
L 226.420364 285.693128 
L 232.913455 285.640935 
L 239.406545 285.667998 
L 245.899636 285.718258 
L 252.392727 285.696994 
L 258.885818 285.691195 
L 265.378909 285.588742 
L 271.872 285.623537 
L 278.365091 285.722124 
L 284.858182 285.637069 
L 291.351273 285.667998 
L 297.844364 285.745321 
L 304.337455 285.685396 
L 310.830545 285.737589 
L 317.323636 285.745321 
L 323.816727 285.654467 
L 330.309818 285.627404 
" style="fill:none;stroke:#9cc0d5;stroke-linecap:square;stroke-width:1.5;"/>
   </g>
   <g id="line2d_31">
    <path clip-path="url(#p65b53e5aa9)" d="M 70.586182 295.321756 
L 77.079273 295.38748 
L 83.572364 295.34302 
L 90.065455 295.488 
L 96.558545 295.418409 
L 103.051636 295.381681 
L 109.544727 295.39328 
L 116.037818 295.33722 
L 122.530909 295.327555 
L 129.024 295.346886 
L 135.517091 295.329488 
L 142.010182 295.358484 
L 148.503273 295.281161 
L 154.996364 295.381681 
L 161.489455 295.294693 
L 167.982545 295.38748 
L 174.475636 295.358484 
L 180.968727 295.296626 
L 187.461818 295.422276 
L 193.954909 295.331421 
L 200.448 295.354618 
L 206.941091 295.420343 
L 213.434182 295.294693 
L 219.927273 295.370083 
L 226.420364 295.265697 
L 232.913455 295.33722 
L 239.406545 295.331421 
L 245.899636 295.397146 
L 252.392727 295.385547 
L 258.885818 295.426142 
L 265.378909 295.346886 
L 271.872 295.321756 
L 278.365091 295.402945 
L 284.858182 295.366217 
L 291.351273 295.315957 
L 297.844364 295.294693 
L 304.337455 295.285028 
L 310.830545 295.308224 
L 317.323636 295.225102 
L 323.816727 295.33722 
L 330.309818 295.290827 
" style="fill:none;stroke:#9fc4da;stroke-linecap:square;stroke-width:1.5;"/>
   </g>
   <g id="patch_3">
    <path d="M 57.6 307.584 
L 57.6 41.472 
" style="fill:none;stroke:#000000;stroke-linecap:square;stroke-linejoin:miter;stroke-width:0.8;"/>
   </g>
   <g id="patch_4">
    <path d="M 343.296 307.584 
L 343.296 41.472 
" style="fill:none;stroke:#000000;stroke-linecap:square;stroke-linejoin:miter;stroke-width:0.8;"/>
   </g>
   <g id="patch_5">
    <path d="M 57.6 307.584 
L 343.296 307.584 
" style="fill:none;stroke:#000000;stroke-linecap:square;stroke-linejoin:miter;stroke-width:0.8;"/>
   </g>
   <g id="patch_6">
    <path d="M 57.6 41.472 
L 343.296 41.472 
" style="fill:none;stroke:#000000;stroke-linecap:square;stroke-linejoin:miter;stroke-width:0.8;"/>
   </g>
   <g id="text_8">
    <!-- Carbon 1s -->
    <g transform="translate(169.982063 35.472)scale(0.12 -0.12)">
     <defs>
      <path d="M 64.40625 67.28125 
L 64.40625 56.890625 
Q 59.421875 61.53125 53.78125 63.8125 
Q 48.140625 66.109375 41.796875 66.109375 
Q 29.296875 66.109375 22.65625 58.46875 
Q 16.015625 50.828125 16.015625 36.375 
Q 16.015625 21.96875 22.65625 14.328125 
Q 29.296875 6.6875 41.796875 6.6875 
Q 48.140625 6.6875 53.78125 8.984375 
Q 59.421875 11.28125 64.40625 15.921875 
L 64.40625 5.609375 
Q 59.234375 2.09375 53.4375 0.328125 
Q 47.65625 -1.421875 41.21875 -1.421875 
Q 24.65625 -1.421875 15.125 8.703125 
Q 5.609375 18.84375 5.609375 36.375 
Q 5.609375 53.953125 15.125 64.078125 
Q 24.65625 74.21875 41.21875 74.21875 
Q 47.75 74.21875 53.53125 72.484375 
Q 59.328125 70.75 64.40625 67.28125 
z
" id="DejaVuSans-67"/>
      <path d="M 48.6875 27.296875 
Q 48.6875 37.203125 44.609375 42.84375 
Q 40.53125 48.484375 33.40625 48.484375 
Q 26.265625 48.484375 22.1875 42.84375 
Q 18.109375 37.203125 18.109375 27.296875 
Q 18.109375 17.390625 22.1875 11.75 
Q 26.265625 6.109375 33.40625 6.109375 
Q 40.53125 6.109375 44.609375 11.75 
Q 48.6875 17.390625 48.6875 27.296875 
z
M 18.109375 46.390625 
Q 20.953125 51.265625 25.265625 53.625 
Q 29.59375 56 35.59375 56 
Q 45.5625 56 51.78125 48.09375 
Q 58.015625 40.1875 58.015625 27.296875 
Q 58.015625 14.40625 51.78125 6.484375 
Q 45.5625 -1.421875 35.59375 -1.421875 
Q 29.59375 -1.421875 25.265625 0.953125 
Q 20.953125 3.328125 18.109375 8.203125 
L 18.109375 0 
L 9.078125 0 
L 9.078125 75.984375 
L 18.109375 75.984375 
z
" id="DejaVuSans-98"/>
      <path d="M 30.609375 48.390625 
Q 23.390625 48.390625 19.1875 42.75 
Q 14.984375 37.109375 14.984375 27.296875 
Q 14.984375 17.484375 19.15625 11.84375 
Q 23.34375 6.203125 30.609375 6.203125 
Q 37.796875 6.203125 41.984375 11.859375 
Q 46.1875 17.53125 46.1875 27.296875 
Q 46.1875 37.015625 41.984375 42.703125 
Q 37.796875 48.390625 30.609375 48.390625 
z
M 30.609375 56 
Q 42.328125 56 49.015625 48.375 
Q 55.71875 40.765625 55.71875 27.296875 
Q 55.71875 13.875 49.015625 6.21875 
Q 42.328125 -1.421875 30.609375 -1.421875 
Q 18.84375 -1.421875 12.171875 6.21875 
Q 5.515625 13.875 5.515625 27.296875 
Q 5.515625 40.765625 12.171875 48.375 
Q 18.84375 56 30.609375 56 
z
" id="DejaVuSans-111"/>
      <path d="M 12.40625 8.296875 
L 28.515625 8.296875 
L 28.515625 63.921875 
L 10.984375 60.40625 
L 10.984375 69.390625 
L 28.421875 72.90625 
L 38.28125 72.90625 
L 38.28125 8.296875 
L 54.390625 8.296875 
L 54.390625 0 
L 12.40625 0 
z
" id="DejaVuSans-49"/>
     </defs>
     <use xlink:href="#DejaVuSans-67"/>
     <use x="69.824219" xlink:href="#DejaVuSans-97"/>
     <use x="131.103516" xlink:href="#DejaVuSans-114"/>
     <use x="172.216797" xlink:href="#DejaVuSans-98"/>
     <use x="235.693359" xlink:href="#DejaVuSans-111"/>
     <use x="296.875" xlink:href="#DejaVuSans-110"/>
     <use x="360.253906" xlink:href="#DejaVuSans-32"/>
     <use x="392.041016" xlink:href="#DejaVuSans-49"/>
     <use x="455.664062" xlink:href="#DejaVuSans-115"/>
    </g>
   </g>
  </g>
  <g id="axes_2">
   <g id="patch_7">
    <path clip-path="url(#p6793ecb4df)" d="M 361.152 41.472 
L 361.152 51.328 
L 361.152 297.728 
L 361.152 307.584 
L 374.4576 307.584 
L 374.4576 297.728 
L 374.4576 51.328 
L 374.4576 41.472 
z
" style="fill:#ffffff;stroke:#ffffff;stroke-linejoin:miter;stroke-width:0.01;"/>
   </g>
   <g id="QuadMesh_1">
    <path clip-path="url(#p6793ecb4df)" d="M 361.152 41.472 
L 374.4576 41.472 
L 374.4576 51.328 
L 361.152 51.328 
L 361.152 41.472 
" style="fill:#4e5f69;"/>
    <path clip-path="url(#p6793ecb4df)" d="M 361.152 51.328 
L 374.4576 51.328 
L 374.4576 61.184 
L 361.152 61.184 
L 361.152 51.328 
" style="fill:#51636e;"/>
    <path clip-path="url(#p6793ecb4df)" d="M 361.152 61.184 
L 374.4576 61.184 
L 374.4576 71.04 
L 361.152 71.04 
L 361.152 61.184 
" style="fill:#546772;"/>
    <path clip-path="url(#p6793ecb4df)" d="M 361.152 71.04 
L 374.4576 71.04 
L 374.4576 80.896 
L 361.152 80.896 
L 361.152 71.04 
" style="fill:#586b76;"/>
    <path clip-path="url(#p6793ecb4df)" d="M 361.152 80.896 
L 374.4576 80.896 
L 374.4576 90.752 
L 361.152 90.752 
L 361.152 80.896 
" style="fill:#5b6f7b;"/>
    <path clip-path="url(#p6793ecb4df)" d="M 361.152 90.752 
L 374.4576 90.752 
L 374.4576 100.608 
L 361.152 100.608 
L 361.152 90.752 
" style="fill:#5e7380;"/>
    <path clip-path="url(#p6793ecb4df)" d="M 361.152 100.608 
L 374.4576 100.608 
L 374.4576 110.464 
L 361.152 110.464 
L 361.152 100.608 
" style="fill:#617784;"/>
    <path clip-path="url(#p6793ecb4df)" d="M 361.152 110.464 
L 374.4576 110.464 
L 374.4576 120.32 
L 361.152 120.32 
L 361.152 110.464 
" style="fill:#657b89;"/>
    <path clip-path="url(#p6793ecb4df)" d="M 361.152 120.32 
L 374.4576 120.32 
L 374.4576 130.176 
L 361.152 130.176 
L 361.152 120.32 
" style="fill:#687f8d;"/>
    <path clip-path="url(#p6793ecb4df)" d="M 361.152 130.176 
L 374.4576 130.176 
L 374.4576 140.032 
L 361.152 140.032 
L 361.152 130.176 
" style="fill:#6b8392;"/>
    <path clip-path="url(#p6793ecb4df)" d="M 361.152 140.032 
L 374.4576 140.032 
L 374.4576 149.888 
L 361.152 149.888 
L 361.152 140.032 
" style="fill:#6e8796;"/>
    <path clip-path="url(#p6793ecb4df)" d="M 361.152 149.888 
L 374.4576 149.888 
L 374.4576 159.744 
L 361.152 159.744 
L 361.152 149.888 
" style="fill:#728b9a;"/>
    <path clip-path="url(#p6793ecb4df)" d="M 361.152 159.744 
L 374.4576 159.744 
L 374.4576 169.6 
L 361.152 169.6 
L 361.152 159.744 
" style="fill:#758f9f;"/>
    <path clip-path="url(#p6793ecb4df)" d="M 361.152 169.6 
L 374.4576 169.6 
L 374.4576 179.456 
L 361.152 179.456 
L 361.152 169.6 
" style="fill:#7893a3;"/>
    <path clip-path="url(#p6793ecb4df)" d="M 361.152 179.456 
L 374.4576 179.456 
L 374.4576 189.312 
L 361.152 189.312 
L 361.152 179.456 
" style="fill:#7b98a8;"/>
    <path clip-path="url(#p6793ecb4df)" d="M 361.152 189.312 
L 374.4576 189.312 
L 374.4576 199.168 
L 361.152 199.168 
L 361.152 189.312 
" style="fill:#7e9cac;"/>
    <path clip-path="url(#p6793ecb4df)" d="M 361.152 199.168 
L 374.4576 199.168 
L 374.4576 209.024 
L 361.152 209.024 
L 361.152 199.168 
" style="fill:#82a0b1;"/>
    <path clip-path="url(#p6793ecb4df)" d="M 361.152 209.024 
L 374.4576 209.024 
L 374.4576 218.88 
L 361.152 218.88 
L 361.152 209.024 
" style="fill:#85a4b5;"/>
    <path clip-path="url(#p6793ecb4df)" d="M 361.152 218.88 
L 374.4576 218.88 
L 374.4576 228.736 
L 361.152 228.736 
L 361.152 218.88 
" style="fill:#88a8ba;"/>
    <path clip-path="url(#p6793ecb4df)" d="M 361.152 228.736 
L 374.4576 228.736 
L 374.4576 238.592 
L 361.152 238.592 
L 361.152 228.736 
" style="fill:#8bacbe;"/>
    <path clip-path="url(#p6793ecb4df)" d="M 361.152 238.592 
L 374.4576 238.592 
L 374.4576 248.448 
L 361.152 248.448 
L 361.152 238.592 
" style="fill:#8fb0c3;"/>
    <path clip-path="url(#p6793ecb4df)" d="M 361.152 248.448 
L 374.4576 248.448 
L 374.4576 258.304 
L 361.152 258.304 
L 361.152 248.448 
" style="fill:#92b4c8;"/>
    <path clip-path="url(#p6793ecb4df)" d="M 361.152 258.304 
L 374.4576 258.304 
L 374.4576 268.16 
L 361.152 268.16 
L 361.152 258.304 
" style="fill:#95b8cc;"/>
    <path clip-path="url(#p6793ecb4df)" d="M 361.152 268.16 
L 374.4576 268.16 
L 374.4576 278.016 
L 361.152 278.016 
L 361.152 268.16 
" style="fill:#98bcd1;"/>
    <path clip-path="url(#p6793ecb4df)" d="M 361.152 278.016 
L 374.4576 278.016 
L 374.4576 287.872 
L 361.152 287.872 
L 361.152 278.016 
" style="fill:#9cc0d5;"/>
    <path clip-path="url(#p6793ecb4df)" d="M 361.152 287.872 
L 374.4576 287.872 
L 374.4576 297.728 
L 361.152 297.728 
L 361.152 287.872 
" style="fill:#9fc4da;"/>
    <path clip-path="url(#p6793ecb4df)" d="M 361.152 297.728 
L 374.4576 297.728 
L 374.4576 307.584 
L 361.152 307.584 
L 361.152 297.728 
" style="fill:#a2c8de;"/>
   </g>
   <g id="matplotlib.axis_3"/>
   <g id="matplotlib.axis_4">
    <g id="ytick_8">
     <g id="line2d_32">
      <defs>
       <path d="M 0 0 
L 3.5 0 
" id="m0662feb326" style="stroke:#000000;stroke-width:0.8;"/>
      </defs>
      <g>
       <use style="stroke:#000000;stroke-width:0.8;" x="374.4576" xlink:href="#m0662feb326" y="41.472"/>
      </g>
     </g>
     <g id="text_9">
      <!-- 0 -->
      <g transform="translate(381.4576 46.031063)scale(0.12 -0.12)">
       <use xlink:href="#DejaVuSans-48"/>
      </g>
     </g>
    </g>
    <g id="ytick_9">
     <g id="line2d_33">
      <g>
       <use style="stroke:#000000;stroke-width:0.8;" x="374.4576" xlink:href="#m0662feb326" y="94.6944"/>
      </g>
     </g>
     <g id="text_10">
      <!-- 5 -->
      <g transform="translate(381.4576 99.253463)scale(0.12 -0.12)">
       <use xlink:href="#DejaVuSans-53"/>
      </g>
     </g>
    </g>
    <g id="ytick_10">
     <g id="line2d_34">
      <g>
       <use style="stroke:#000000;stroke-width:0.8;" x="374.4576" xlink:href="#m0662feb326" y="147.9168"/>
      </g>
     </g>
     <g id="text_11">
      <!-- 10 -->
      <g transform="translate(381.4576 152.475863)scale(0.12 -0.12)">
       <use xlink:href="#DejaVuSans-49"/>
       <use x="63.623047" xlink:href="#DejaVuSans-48"/>
      </g>
     </g>
    </g>
    <g id="ytick_11">
     <g id="line2d_35">
      <g>
       <use style="stroke:#000000;stroke-width:0.8;" x="374.4576" xlink:href="#m0662feb326" y="201.1392"/>
      </g>
     </g>
     <g id="text_12">
      <!-- 15 -->
      <g transform="translate(381.4576 205.698263)scale(0.12 -0.12)">
       <use xlink:href="#DejaVuSans-49"/>
       <use x="63.623047" xlink:href="#DejaVuSans-53"/>
      </g>
     </g>
    </g>
    <g id="ytick_12">
     <g id="line2d_36">
      <g>
       <use style="stroke:#000000;stroke-width:0.8;" x="374.4576" xlink:href="#m0662feb326" y="254.3616"/>
      </g>
     </g>
     <g id="text_13">
      <!-- 20 -->
      <g transform="translate(381.4576 258.920663)scale(0.12 -0.12)">
       <use xlink:href="#DejaVuSans-50"/>
       <use x="63.623047" xlink:href="#DejaVuSans-48"/>
      </g>
     </g>
    </g>
    <g id="ytick_13">
     <g id="line2d_37">
      <g>
       <use style="stroke:#000000;stroke-width:0.8;" x="374.4576" xlink:href="#m0662feb326" y="307.584"/>
      </g>
     </g>
     <g id="text_14">
      <!-- 25 -->
      <g transform="translate(381.4576 312.143062)scale(0.12 -0.12)">
       <use xlink:href="#DejaVuSans-50"/>
       <use x="63.623047" xlink:href="#DejaVuSans-53"/>
      </g>
     </g>
    </g>
    <g id="text_15">
     <!-- Sputter Time [min] -->
     <g transform="translate(411.365413 240.763312)rotate(-90)scale(0.14 -0.14)">
      <defs>
       <path d="M 53.515625 70.515625 
L 53.515625 60.890625 
Q 47.90625 63.578125 42.921875 64.890625 
Q 37.9375 66.21875 33.296875 66.21875 
Q 25.25 66.21875 20.875 63.09375 
Q 16.5 59.96875 16.5 54.203125 
Q 16.5 49.359375 19.40625 46.890625 
Q 22.3125 44.4375 30.421875 42.921875 
L 36.375 41.703125 
Q 47.40625 39.59375 52.65625 34.296875 
Q 57.90625 29 57.90625 20.125 
Q 57.90625 9.515625 50.796875 4.046875 
Q 43.703125 -1.421875 29.984375 -1.421875 
Q 24.8125 -1.421875 18.96875 -0.25 
Q 13.140625 0.921875 6.890625 3.21875 
L 6.890625 13.375 
Q 12.890625 10.015625 18.65625 8.296875 
Q 24.421875 6.59375 29.984375 6.59375 
Q 38.421875 6.59375 43.015625 9.90625 
Q 47.609375 13.234375 47.609375 19.390625 
Q 47.609375 24.75 44.3125 27.78125 
Q 41.015625 30.8125 33.5 32.328125 
L 27.484375 33.5 
Q 16.453125 35.6875 11.515625 40.375 
Q 6.59375 45.0625 6.59375 53.421875 
Q 6.59375 63.09375 13.40625 68.65625 
Q 20.21875 74.21875 32.171875 74.21875 
Q 37.3125 74.21875 42.625 73.28125 
Q 47.953125 72.359375 53.515625 70.515625 
z
" id="DejaVuSans-83"/>
       <path d="M 18.109375 8.203125 
L 18.109375 -20.796875 
L 9.078125 -20.796875 
L 9.078125 54.6875 
L 18.109375 54.6875 
L 18.109375 46.390625 
Q 20.953125 51.265625 25.265625 53.625 
Q 29.59375 56 35.59375 56 
Q 45.5625 56 51.78125 48.09375 
Q 58.015625 40.1875 58.015625 27.296875 
Q 58.015625 14.40625 51.78125 6.484375 
Q 45.5625 -1.421875 35.59375 -1.421875 
Q 29.59375 -1.421875 25.265625 0.953125 
Q 20.953125 3.328125 18.109375 8.203125 
z
M 48.6875 27.296875 
Q 48.6875 37.203125 44.609375 42.84375 
Q 40.53125 48.484375 33.40625 48.484375 
Q 26.265625 48.484375 22.1875 42.84375 
Q 18.109375 37.203125 18.109375 27.296875 
Q 18.109375 17.390625 22.1875 11.75 
Q 26.265625 6.109375 33.40625 6.109375 
Q 40.53125 6.109375 44.609375 11.75 
Q 48.6875 17.390625 48.6875 27.296875 
z
" id="DejaVuSans-112"/>
       <path d="M -0.296875 72.90625 
L 61.375 72.90625 
L 61.375 64.59375 
L 35.5 64.59375 
L 35.5 0 
L 25.59375 0 
L 25.59375 64.59375 
L -0.296875 64.59375 
z
" id="DejaVuSans-84"/>
       <path d="M 52 44.1875 
Q 55.375 50.25 60.0625 53.125 
Q 64.75 56 71.09375 56 
Q 79.640625 56 84.28125 50.015625 
Q 88.921875 44.046875 88.921875 33.015625 
L 88.921875 0 
L 79.890625 0 
L 79.890625 32.71875 
Q 79.890625 40.578125 77.09375 44.375 
Q 74.3125 48.1875 68.609375 48.1875 
Q 61.625 48.1875 57.5625 43.546875 
Q 53.515625 38.921875 53.515625 30.90625 
L 53.515625 0 
L 44.484375 0 
L 44.484375 32.71875 
Q 44.484375 40.625 41.703125 44.40625 
Q 38.921875 48.1875 33.109375 48.1875 
Q 26.21875 48.1875 22.15625 43.53125 
Q 18.109375 38.875 18.109375 30.90625 
L 18.109375 0 
L 9.078125 0 
L 9.078125 54.6875 
L 18.109375 54.6875 
L 18.109375 46.1875 
Q 21.1875 51.21875 25.484375 53.609375 
Q 29.78125 56 35.6875 56 
Q 41.65625 56 45.828125 52.96875 
Q 50 49.953125 52 44.1875 
z
" id="DejaVuSans-109"/>
      </defs>
      <use xlink:href="#DejaVuSans-83"/>
      <use x="63.476562" xlink:href="#DejaVuSans-112"/>
      <use x="126.953125" xlink:href="#DejaVuSans-117"/>
      <use x="190.332031" xlink:href="#DejaVuSans-116"/>
      <use x="229.541016" xlink:href="#DejaVuSans-116"/>
      <use x="268.75" xlink:href="#DejaVuSans-101"/>
      <use x="330.273438" xlink:href="#DejaVuSans-114"/>
      <use x="371.386719" xlink:href="#DejaVuSans-32"/>
      <use x="403.173828" xlink:href="#DejaVuSans-84"/>
      <use x="461.132812" xlink:href="#DejaVuSans-105"/>
      <use x="488.916016" xlink:href="#DejaVuSans-109"/>
      <use x="586.328125" xlink:href="#DejaVuSans-101"/>
      <use x="647.851562" xlink:href="#DejaVuSans-32"/>
      <use x="679.638672" xlink:href="#DejaVuSans-91"/>
      <use x="718.652344" xlink:href="#DejaVuSans-109"/>
      <use x="816.064453" xlink:href="#DejaVuSans-105"/>
      <use x="843.847656" xlink:href="#DejaVuSans-110"/>
      <use x="907.226562" xlink:href="#DejaVuSans-93"/>
     </g>
    </g>
   </g>
   <g id="patch_8">
    <path d="M 361.152 41.472 
L 361.152 51.328 
L 361.152 297.728 
L 361.152 307.584 
L 374.4576 307.584 
L 374.4576 297.728 
L 374.4576 51.328 
L 374.4576 41.472 
z
" style="fill:none;stroke:#000000;stroke-linejoin:miter;stroke-width:0.8;"/>
   </g>
  </g>
 </g>
 <defs>
  <clipPath id="p65b53e5aa9">
   <rect height="266.112" width="285.696" x="57.6" y="41.472"/>
  </clipPath>
  <clipPath id="p6793ecb4df">
   <rect height="266.112" width="13.3056" x="361.152" y="41.472"/>
  </clipPath>
 </defs>
</svg>
