<?xml version="1.0" encoding="utf-8" standalone="no"?>
<!DOCTYPE svg PUBLIC "-//W3C//DTD SVG 1.1//EN"
  "http://www.w3.org/Graphics/SVG/1.1/DTD/svg11.dtd">
<!-- Created with matplotlib (https://matplotlib.org/) -->
<svg height="345.6pt" version="1.1" viewBox="0 0 460.8 345.6" width="460.8pt" xmlns="http://www.w3.org/2000/svg" xmlns:xlink="http://www.w3.org/1999/xlink">
 <metadata>
  <rdf:RDF xmlns:cc="http://creativecommons.org/ns#" xmlns:dc="http://purl.org/dc/elements/1.1/" xmlns:rdf="http://www.w3.org/1999/02/22-rdf-syntax-ns#">
   <cc:Work>
    <dc:type rdf:resource="http://purl.org/dc/dcmitype/StillImage"/>
    <dc:date>2022-12-05T14:35:12.764234</dc:date>
    <dc:format>image/svg+xml</dc:format>
    <dc:creator>
     <cc:Agent>
      <dc:title>Matplotlib v3.3.4, https://matplotlib.org/</dc:title>
     </cc:Agent>
    </dc:creator>
   </cc:Work>
  </rdf:RDF>
 </metadata>
 <defs>
  <style type="text/css">*{stroke-linecap:butt;stroke-linejoin:round;}</style>
 </defs>
 <g id="figure_1">
  <g id="patch_1">
   <path d="M 0 345.6 
L 460.8 345.6 
L 460.8 0 
L 0 0 
z
" style="fill:#ffffff;"/>
  </g>
  <g id="axes_1">
   <g id="patch_2">
    <path d="M 57.6 307.584 
L 343.296 307.584 
L 343.296 41.472 
L 57.6 41.472 
z
" style="fill:#ffffff;"/>
   </g>
   <g id="matplotlib.axis_1">
    <g id="xtick_1">
     <g id="line2d_1">
      <defs>
       <path d="M 0 0 
L 0 3.5 
" id="m3de5f3be08" style="stroke:#000000;stroke-width:0.8;"/>
      </defs>
      <g>
       <use style="stroke:#000000;stroke-width:0.8;" x="343.296" xlink:href="#m3de5f3be08" y="307.584"/>
      </g>
     </g>
     <g id="text_1">
      <!-- 435 -->
      <g transform="translate(331.8435 323.702125)scale(0.12 -0.12)">
       <defs>
        <path d="M 37.796875 64.3125 
L 12.890625 25.390625 
L 37.796875 25.390625 
z
M 35.203125 72.90625 
L 47.609375 72.90625 
L 47.609375 25.390625 
L 58.015625 25.390625 
L 58.015625 17.1875 
L 47.609375 17.1875 
L 47.609375 0 
L 37.796875 0 
L 37.796875 17.1875 
L 4.890625 17.1875 
L 4.890625 26.703125 
z
" id="DejaVuSans-52"/>
        <path d="M 40.578125 39.3125 
Q 47.65625 37.796875 51.625 33 
Q 55.609375 28.21875 55.609375 21.1875 
Q 55.609375 10.40625 48.1875 4.484375 
Q 40.765625 -1.421875 27.09375 -1.421875 
Q 22.515625 -1.421875 17.65625 -0.515625 
Q 12.796875 0.390625 7.625 2.203125 
L 7.625 11.71875 
Q 11.71875 9.328125 16.59375 8.109375 
Q 21.484375 6.890625 26.8125 6.890625 
Q 36.078125 6.890625 40.9375 10.546875 
Q 45.796875 14.203125 45.796875 21.1875 
Q 45.796875 27.640625 41.28125 31.265625 
Q 36.765625 34.90625 28.71875 34.90625 
L 20.21875 34.90625 
L 20.21875 43.015625 
L 29.109375 43.015625 
Q 36.375 43.015625 40.234375 45.921875 
Q 44.09375 48.828125 44.09375 54.296875 
Q 44.09375 59.90625 40.109375 62.90625 
Q 36.140625 65.921875 28.71875 65.921875 
Q 24.65625 65.921875 20.015625 65.03125 
Q 15.375 64.15625 9.8125 62.3125 
L 9.8125 71.09375 
Q 15.4375 72.65625 20.34375 73.4375 
Q 25.25 74.21875 29.59375 74.21875 
Q 40.828125 74.21875 47.359375 69.109375 
Q 53.90625 64.015625 53.90625 55.328125 
Q 53.90625 49.265625 50.4375 45.09375 
Q 46.96875 40.921875 40.578125 39.3125 
z
" id="DejaVuSans-51"/>
        <path d="M 10.796875 72.90625 
L 49.515625 72.90625 
L 49.515625 64.59375 
L 19.828125 64.59375 
L 19.828125 46.734375 
Q 21.96875 47.46875 24.109375 47.828125 
Q 26.265625 48.1875 28.421875 48.1875 
Q 40.625 48.1875 47.75 41.5 
Q 54.890625 34.8125 54.890625 23.390625 
Q 54.890625 11.625 47.5625 5.09375 
Q 40.234375 -1.421875 26.90625 -1.421875 
Q 22.3125 -1.421875 17.546875 -0.640625 
Q 12.796875 0.140625 7.71875 1.703125 
L 7.71875 11.625 
Q 12.109375 9.234375 16.796875 8.0625 
Q 21.484375 6.890625 26.703125 6.890625 
Q 35.15625 6.890625 40.078125 11.328125 
Q 45.015625 15.765625 45.015625 23.390625 
Q 45.015625 31 40.078125 35.4375 
Q 35.15625 39.890625 26.703125 39.890625 
Q 22.75 39.890625 18.8125 39.015625 
Q 14.890625 38.140625 10.796875 36.28125 
z
" id="DejaVuSans-53"/>
       </defs>
       <use xlink:href="#DejaVuSans-52"/>
       <use x="63.623047" xlink:href="#DejaVuSans-51"/>
       <use x="127.246094" xlink:href="#DejaVuSans-53"/>
      </g>
     </g>
    </g>
    <g id="xtick_2">
     <g id="line2d_2">
      <g>
       <use style="stroke:#000000;stroke-width:0.8;" x="278.365091" xlink:href="#m3de5f3be08" y="307.584"/>
      </g>
     </g>
     <g id="text_2">
      <!-- 440 -->
      <g transform="translate(266.912591 323.702125)scale(0.12 -0.12)">
       <defs>
        <path d="M 31.78125 66.40625 
Q 24.171875 66.40625 20.328125 58.90625 
Q 16.5 51.421875 16.5 36.375 
Q 16.5 21.390625 20.328125 13.890625 
Q 24.171875 6.390625 31.78125 6.390625 
Q 39.453125 6.390625 43.28125 13.890625 
Q 47.125 21.390625 47.125 36.375 
Q 47.125 51.421875 43.28125 58.90625 
Q 39.453125 66.40625 31.78125 66.40625 
z
M 31.78125 74.21875 
Q 44.046875 74.21875 50.515625 64.515625 
Q 56.984375 54.828125 56.984375 36.375 
Q 56.984375 17.96875 50.515625 8.265625 
Q 44.046875 -1.421875 31.78125 -1.421875 
Q 19.53125 -1.421875 13.0625 8.265625 
Q 6.59375 17.96875 6.59375 36.375 
Q 6.59375 54.828125 13.0625 64.515625 
Q 19.53125 74.21875 31.78125 74.21875 
z
" id="DejaVuSans-48"/>
       </defs>
       <use xlink:href="#DejaVuSans-52"/>
       <use x="63.623047" xlink:href="#DejaVuSans-52"/>
       <use x="127.246094" xlink:href="#DejaVuSans-48"/>
      </g>
     </g>
    </g>
    <g id="xtick_3">
     <g id="line2d_3">
      <g>
       <use style="stroke:#000000;stroke-width:0.8;" x="213.434182" xlink:href="#m3de5f3be08" y="307.584"/>
      </g>
     </g>
     <g id="text_3">
      <!-- 445 -->
      <g transform="translate(201.981682 323.702125)scale(0.12 -0.12)">
       <use xlink:href="#DejaVuSans-52"/>
       <use x="63.623047" xlink:href="#DejaVuSans-52"/>
       <use x="127.246094" xlink:href="#DejaVuSans-53"/>
      </g>
     </g>
    </g>
    <g id="xtick_4">
     <g id="line2d_4">
      <g>
       <use style="stroke:#000000;stroke-width:0.8;" x="148.503273" xlink:href="#m3de5f3be08" y="307.584"/>
      </g>
     </g>
     <g id="text_4">
      <!-- 450 -->
      <g transform="translate(137.050773 323.702125)scale(0.12 -0.12)">
       <use xlink:href="#DejaVuSans-52"/>
       <use x="63.623047" xlink:href="#DejaVuSans-53"/>
       <use x="127.246094" xlink:href="#DejaVuSans-48"/>
      </g>
     </g>
    </g>
    <g id="xtick_5">
     <g id="line2d_5">
      <g>
       <use style="stroke:#000000;stroke-width:0.8;" x="83.572364" xlink:href="#m3de5f3be08" y="307.584"/>
      </g>
     </g>
     <g id="text_5">
      <!-- 455 -->
      <g transform="translate(72.119864 323.702125)scale(0.12 -0.12)">
       <use xlink:href="#DejaVuSans-52"/>
       <use x="63.623047" xlink:href="#DejaVuSans-53"/>
       <use x="127.246094" xlink:href="#DejaVuSans-53"/>
      </g>
     </g>
    </g>
    <g id="text_6">
     <!-- Binding Energy [eV] -->
     <g transform="translate(130.479719 340.835562)scale(0.14 -0.14)">
      <defs>
       <path d="M 19.671875 34.8125 
L 19.671875 8.109375 
L 35.5 8.109375 
Q 43.453125 8.109375 47.28125 11.40625 
Q 51.125 14.703125 51.125 21.484375 
Q 51.125 28.328125 47.28125 31.5625 
Q 43.453125 34.8125 35.5 34.8125 
z
M 19.671875 64.796875 
L 19.671875 42.828125 
L 34.28125 42.828125 
Q 41.5 42.828125 45.03125 45.53125 
Q 48.578125 48.25 48.578125 53.8125 
Q 48.578125 59.328125 45.03125 62.0625 
Q 41.5 64.796875 34.28125 64.796875 
z
M 9.8125 72.90625 
L 35.015625 72.90625 
Q 46.296875 72.90625 52.390625 68.21875 
Q 58.5 63.53125 58.5 54.890625 
Q 58.5 48.1875 55.375 44.234375 
Q 52.25 40.28125 46.1875 39.3125 
Q 53.46875 37.75 57.5 32.78125 
Q 61.53125 27.828125 61.53125 20.40625 
Q 61.53125 10.640625 54.890625 5.3125 
Q 48.25 0 35.984375 0 
L 9.8125 0 
z
" id="DejaVuSans-66"/>
       <path d="M 9.421875 54.6875 
L 18.40625 54.6875 
L 18.40625 0 
L 9.421875 0 
z
M 9.421875 75.984375 
L 18.40625 75.984375 
L 18.40625 64.59375 
L 9.421875 64.59375 
z
" id="DejaVuSans-105"/>
       <path d="M 54.890625 33.015625 
L 54.890625 0 
L 45.90625 0 
L 45.90625 32.71875 
Q 45.90625 40.484375 42.875 44.328125 
Q 39.84375 48.1875 33.796875 48.1875 
Q 26.515625 48.1875 22.3125 43.546875 
Q 18.109375 38.921875 18.109375 30.90625 
L 18.109375 0 
L 9.078125 0 
L 9.078125 54.6875 
L 18.109375 54.6875 
L 18.109375 46.1875 
Q 21.34375 51.125 25.703125 53.5625 
Q 30.078125 56 35.796875 56 
Q 45.21875 56 50.046875 50.171875 
Q 54.890625 44.34375 54.890625 33.015625 
z
" id="DejaVuSans-110"/>
       <path d="M 45.40625 46.390625 
L 45.40625 75.984375 
L 54.390625 75.984375 
L 54.390625 0 
L 45.40625 0 
L 45.40625 8.203125 
Q 42.578125 3.328125 38.25 0.953125 
Q 33.9375 -1.421875 27.875 -1.421875 
Q 17.96875 -1.421875 11.734375 6.484375 
Q 5.515625 14.40625 5.515625 27.296875 
Q 5.515625 40.1875 11.734375 48.09375 
Q 17.96875 56 27.875 56 
Q 33.9375 56 38.25 53.625 
Q 42.578125 51.265625 45.40625 46.390625 
z
M 14.796875 27.296875 
Q 14.796875 17.390625 18.875 11.75 
Q 22.953125 6.109375 30.078125 6.109375 
Q 37.203125 6.109375 41.296875 11.75 
Q 45.40625 17.390625 45.40625 27.296875 
Q 45.40625 37.203125 41.296875 42.84375 
Q 37.203125 48.484375 30.078125 48.484375 
Q 22.953125 48.484375 18.875 42.84375 
Q 14.796875 37.203125 14.796875 27.296875 
z
" id="DejaVuSans-100"/>
       <path d="M 45.40625 27.984375 
Q 45.40625 37.75 41.375 43.109375 
Q 37.359375 48.484375 30.078125 48.484375 
Q 22.859375 48.484375 18.828125 43.109375 
Q 14.796875 37.75 14.796875 27.984375 
Q 14.796875 18.265625 18.828125 12.890625 
Q 22.859375 7.515625 30.078125 7.515625 
Q 37.359375 7.515625 41.375 12.890625 
Q 45.40625 18.265625 45.40625 27.984375 
z
M 54.390625 6.78125 
Q 54.390625 -7.171875 48.1875 -13.984375 
Q 42 -20.796875 29.203125 -20.796875 
Q 24.46875 -20.796875 20.265625 -20.09375 
Q 16.0625 -19.390625 12.109375 -17.921875 
L 12.109375 -9.1875 
Q 16.0625 -11.328125 19.921875 -12.34375 
Q 23.78125 -13.375 27.78125 -13.375 
Q 36.625 -13.375 41.015625 -8.765625 
Q 45.40625 -4.15625 45.40625 5.171875 
L 45.40625 9.625 
Q 42.625 4.78125 38.28125 2.390625 
Q 33.9375 0 27.875 0 
Q 17.828125 0 11.671875 7.65625 
Q 5.515625 15.328125 5.515625 27.984375 
Q 5.515625 40.671875 11.671875 48.328125 
Q 17.828125 56 27.875 56 
Q 33.9375 56 38.28125 53.609375 
Q 42.625 51.21875 45.40625 46.390625 
L 45.40625 54.6875 
L 54.390625 54.6875 
z
" id="DejaVuSans-103"/>
       <path id="DejaVuSans-32"/>
       <path d="M 9.8125 72.90625 
L 55.90625 72.90625 
L 55.90625 64.59375 
L 19.671875 64.59375 
L 19.671875 43.015625 
L 54.390625 43.015625 
L 54.390625 34.71875 
L 19.671875 34.71875 
L 19.671875 8.296875 
L 56.78125 8.296875 
L 56.78125 0 
L 9.8125 0 
z
" id="DejaVuSans-69"/>
       <path d="M 56.203125 29.59375 
L 56.203125 25.203125 
L 14.890625 25.203125 
Q 15.484375 15.921875 20.484375 11.0625 
Q 25.484375 6.203125 34.421875 6.203125 
Q 39.59375 6.203125 44.453125 7.46875 
Q 49.3125 8.734375 54.109375 11.28125 
L 54.109375 2.78125 
Q 49.265625 0.734375 44.1875 -0.34375 
Q 39.109375 -1.421875 33.890625 -1.421875 
Q 20.796875 -1.421875 13.15625 6.1875 
Q 5.515625 13.8125 5.515625 26.8125 
Q 5.515625 40.234375 12.765625 48.109375 
Q 20.015625 56 32.328125 56 
Q 43.359375 56 49.78125 48.890625 
Q 56.203125 41.796875 56.203125 29.59375 
z
M 47.21875 32.234375 
Q 47.125 39.59375 43.09375 43.984375 
Q 39.0625 48.390625 32.421875 48.390625 
Q 24.90625 48.390625 20.390625 44.140625 
Q 15.875 39.890625 15.1875 32.171875 
z
" id="DejaVuSans-101"/>
       <path d="M 41.109375 46.296875 
Q 39.59375 47.171875 37.8125 47.578125 
Q 36.03125 48 33.890625 48 
Q 26.265625 48 22.1875 43.046875 
Q 18.109375 38.09375 18.109375 28.8125 
L 18.109375 0 
L 9.078125 0 
L 9.078125 54.6875 
L 18.109375 54.6875 
L 18.109375 46.1875 
Q 20.953125 51.171875 25.484375 53.578125 
Q 30.03125 56 36.53125 56 
Q 37.453125 56 38.578125 55.875 
Q 39.703125 55.765625 41.0625 55.515625 
z
" id="DejaVuSans-114"/>
       <path d="M 32.171875 -5.078125 
Q 28.375 -14.84375 24.75 -17.8125 
Q 21.140625 -20.796875 15.09375 -20.796875 
L 7.90625 -20.796875 
L 7.90625 -13.28125 
L 13.1875 -13.28125 
Q 16.890625 -13.28125 18.9375 -11.515625 
Q 21 -9.765625 23.484375 -3.21875 
L 25.09375 0.875 
L 2.984375 54.6875 
L 12.5 54.6875 
L 29.59375 11.921875 
L 46.6875 54.6875 
L 56.203125 54.6875 
z
" id="DejaVuSans-121"/>
       <path d="M 8.59375 75.984375 
L 29.296875 75.984375 
L 29.296875 69 
L 17.578125 69 
L 17.578125 -6.203125 
L 29.296875 -6.203125 
L 29.296875 -13.1875 
L 8.59375 -13.1875 
z
" id="DejaVuSans-91"/>
       <path d="M 28.609375 0 
L 0.78125 72.90625 
L 11.078125 72.90625 
L 34.1875 11.53125 
L 57.328125 72.90625 
L 67.578125 72.90625 
L 39.796875 0 
z
" id="DejaVuSans-86"/>
       <path d="M 30.421875 75.984375 
L 30.421875 -13.1875 
L 9.71875 -13.1875 
L 9.71875 -6.203125 
L 21.390625 -6.203125 
L 21.390625 69 
L 9.71875 69 
L 9.71875 75.984375 
z
" id="DejaVuSans-93"/>
      </defs>
      <use xlink:href="#DejaVuSans-66"/>
      <use x="68.603516" xlink:href="#DejaVuSans-105"/>
      <use x="96.386719" xlink:href="#DejaVuSans-110"/>
      <use x="159.765625" xlink:href="#DejaVuSans-100"/>
      <use x="223.242188" xlink:href="#DejaVuSans-105"/>
      <use x="251.025391" xlink:href="#DejaVuSans-110"/>
      <use x="314.404297" xlink:href="#DejaVuSans-103"/>
      <use x="377.880859" xlink:href="#DejaVuSans-32"/>
      <use x="409.667969" xlink:href="#DejaVuSans-69"/>
      <use x="472.851562" xlink:href="#DejaVuSans-110"/>
      <use x="536.230469" xlink:href="#DejaVuSans-101"/>
      <use x="597.753906" xlink:href="#DejaVuSans-114"/>
      <use x="637.117188" xlink:href="#DejaVuSans-103"/>
      <use x="700.59375" xlink:href="#DejaVuSans-121"/>
      <use x="759.773438" xlink:href="#DejaVuSans-32"/>
      <use x="791.560547" xlink:href="#DejaVuSans-91"/>
      <use x="830.574219" xlink:href="#DejaVuSans-101"/>
      <use x="892.097656" xlink:href="#DejaVuSans-86"/>
      <use x="960.505859" xlink:href="#DejaVuSans-93"/>
     </g>
    </g>
   </g>
   <g id="matplotlib.axis_2">
    <g id="ytick_1"/>
    <g id="ytick_2"/>
    <g id="ytick_3"/>
    <g id="ytick_4"/>
    <g id="ytick_5"/>
    <g id="ytick_6"/>
    <g id="ytick_7"/>
    <g id="ytick_8"/>
    <g id="ytick_9"/>
    <g id="text_7">
     <!-- Intensity [a.u.] -->
     <g transform="translate(50.688437 225.857687)rotate(-90)scale(0.14 -0.14)">
      <defs>
       <path d="M 9.8125 72.90625 
L 19.671875 72.90625 
L 19.671875 0 
L 9.8125 0 
z
" id="DejaVuSans-73"/>
       <path d="M 18.3125 70.21875 
L 18.3125 54.6875 
L 36.8125 54.6875 
L 36.8125 47.703125 
L 18.3125 47.703125 
L 18.3125 18.015625 
Q 18.3125 11.328125 20.140625 9.421875 
Q 21.96875 7.515625 27.59375 7.515625 
L 36.8125 7.515625 
L 36.8125 0 
L 27.59375 0 
Q 17.1875 0 13.234375 3.875 
Q 9.28125 7.765625 9.28125 18.015625 
L 9.28125 47.703125 
L 2.6875 47.703125 
L 2.6875 54.6875 
L 9.28125 54.6875 
L 9.28125 70.21875 
z
" id="DejaVuSans-116"/>
       <path d="M 44.28125 53.078125 
L 44.28125 44.578125 
Q 40.484375 46.53125 36.375 47.5 
Q 32.28125 48.484375 27.875 48.484375 
Q 21.1875 48.484375 17.84375 46.4375 
Q 14.5 44.390625 14.5 40.28125 
Q 14.5 37.15625 16.890625 35.375 
Q 19.28125 33.59375 26.515625 31.984375 
L 29.59375 31.296875 
Q 39.15625 29.25 43.1875 25.515625 
Q 47.21875 21.78125 47.21875 15.09375 
Q 47.21875 7.46875 41.1875 3.015625 
Q 35.15625 -1.421875 24.609375 -1.421875 
Q 20.21875 -1.421875 15.453125 -0.5625 
Q 10.6875 0.296875 5.421875 2 
L 5.421875 11.28125 
Q 10.40625 8.6875 15.234375 7.390625 
Q 20.0625 6.109375 24.8125 6.109375 
Q 31.15625 6.109375 34.5625 8.28125 
Q 37.984375 10.453125 37.984375 14.40625 
Q 37.984375 18.0625 35.515625 20.015625 
Q 33.0625 21.96875 24.703125 23.78125 
L 21.578125 24.515625 
Q 13.234375 26.265625 9.515625 29.90625 
Q 5.8125 33.546875 5.8125 39.890625 
Q 5.8125 47.609375 11.28125 51.796875 
Q 16.75 56 26.8125 56 
Q 31.78125 56 36.171875 55.265625 
Q 40.578125 54.546875 44.28125 53.078125 
z
" id="DejaVuSans-115"/>
       <path d="M 34.28125 27.484375 
Q 23.390625 27.484375 19.1875 25 
Q 14.984375 22.515625 14.984375 16.5 
Q 14.984375 11.71875 18.140625 8.90625 
Q 21.296875 6.109375 26.703125 6.109375 
Q 34.1875 6.109375 38.703125 11.40625 
Q 43.21875 16.703125 43.21875 25.484375 
L 43.21875 27.484375 
z
M 52.203125 31.203125 
L 52.203125 0 
L 43.21875 0 
L 43.21875 8.296875 
Q 40.140625 3.328125 35.546875 0.953125 
Q 30.953125 -1.421875 24.3125 -1.421875 
Q 15.921875 -1.421875 10.953125 3.296875 
Q 6 8.015625 6 15.921875 
Q 6 25.140625 12.171875 29.828125 
Q 18.359375 34.515625 30.609375 34.515625 
L 43.21875 34.515625 
L 43.21875 35.40625 
Q 43.21875 41.609375 39.140625 45 
Q 35.0625 48.390625 27.6875 48.390625 
Q 23 48.390625 18.546875 47.265625 
Q 14.109375 46.140625 10.015625 43.890625 
L 10.015625 52.203125 
Q 14.9375 54.109375 19.578125 55.046875 
Q 24.21875 56 28.609375 56 
Q 40.484375 56 46.34375 49.84375 
Q 52.203125 43.703125 52.203125 31.203125 
z
" id="DejaVuSans-97"/>
       <path d="M 10.6875 12.40625 
L 21 12.40625 
L 21 0 
L 10.6875 0 
z
" id="DejaVuSans-46"/>
       <path d="M 8.5 21.578125 
L 8.5 54.6875 
L 17.484375 54.6875 
L 17.484375 21.921875 
Q 17.484375 14.15625 20.5 10.265625 
Q 23.53125 6.390625 29.59375 6.390625 
Q 36.859375 6.390625 41.078125 11.03125 
Q 45.3125 15.671875 45.3125 23.6875 
L 45.3125 54.6875 
L 54.296875 54.6875 
L 54.296875 0 
L 45.3125 0 
L 45.3125 8.40625 
Q 42.046875 3.421875 37.71875 1 
Q 33.40625 -1.421875 27.6875 -1.421875 
Q 18.265625 -1.421875 13.375 4.4375 
Q 8.5 10.296875 8.5 21.578125 
z
M 31.109375 56 
z
" id="DejaVuSans-117"/>
      </defs>
      <use xlink:href="#DejaVuSans-73"/>
      <use x="29.492188" xlink:href="#DejaVuSans-110"/>
      <use x="92.871094" xlink:href="#DejaVuSans-116"/>
      <use x="132.080078" xlink:href="#DejaVuSans-101"/>
      <use x="193.603516" xlink:href="#DejaVuSans-110"/>
      <use x="256.982422" xlink:href="#DejaVuSans-115"/>
      <use x="309.082031" xlink:href="#DejaVuSans-105"/>
      <use x="336.865234" xlink:href="#DejaVuSans-116"/>
      <use x="376.074219" xlink:href="#DejaVuSans-121"/>
      <use x="435.253906" xlink:href="#DejaVuSans-32"/>
      <use x="467.041016" xlink:href="#DejaVuSans-91"/>
      <use x="506.054688" xlink:href="#DejaVuSans-97"/>
      <use x="567.333984" xlink:href="#DejaVuSans-46"/>
      <use x="599.121094" xlink:href="#DejaVuSans-117"/>
      <use x="662.5" xlink:href="#DejaVuSans-46"/>
      <use x="694.287109" xlink:href="#DejaVuSans-93"/>
     </g>
    </g>
   </g>
   <g id="line2d_6">
    <path clip-path="url(#p8f5e432510)" d="M 70.586182 133.295394 
L 75.780655 133.340536 
L 80.975127 133.508904 
L 86.1696 133.119705 
L 91.364073 133.301494 
L 96.558545 132.740265 
L 101.753018 132.315684 
L 106.947491 131.407958 
L 112.141964 130.257439 
L 117.336436 127.71971 
L 122.530909 123.451933 
L 127.725382 115.541051 
L 132.919855 103.375812 
L 138.114327 88.933938 
L 143.3088 77.533678 
L 148.503273 79.051436 
L 153.697745 96.477582 
L 158.892218 115.181133 
L 164.086691 127.018174 
L 169.281164 132.069231 
L 174.475636 133.800499 
L 179.670109 134.79363 
L 184.864582 135.657434 
L 190.059055 135.767239 
L 195.253527 135.421962 
L 200.448 135.00226 
L 205.642473 133.733396 
L 210.836945 131.539724 
L 216.031418 127.703849 
L 221.225891 120.312714 
L 226.420364 108.031569 
L 231.614836 90.079576 
L 236.809309 68.966403 
L 242.003782 53.568 
L 247.198255 60.244179 
L 252.392727 85.842301 
L 257.5872 112.644624 
L 262.781673 127.816095 
L 267.976145 134.459333 
L 273.170618 137.126388 
L 278.365091 138.719789 
L 283.559564 139.760502 
L 288.754036 140.430316 
L 293.948509 141.047668 
L 299.142982 141.274599 
L 304.337455 141.971255 
L 309.531927 142.063979 
L 314.7264 142.433658 
L 319.920873 142.534923 
L 325.115345 142.817978 
L 330.309818 142.87166 
" style="fill:none;stroke:#4e5f69;stroke-linecap:square;stroke-width:1.5;"/>
   </g>
   <g id="line2d_7">
    <path clip-path="url(#p8f5e432510)" d="M 70.586182 139.673878 
L 75.780655 139.678758 
L 80.975127 139.445726 
L 86.1696 139.216355 
L 91.364073 139.227335 
L 96.558545 138.93818 
L 101.753018 138.370852 
L 106.947491 137.669316 
L 112.141964 136.445594 
L 117.336436 133.706555 
L 122.530909 128.954413 
L 127.725382 121.42297 
L 132.919855 109.246751 
L 138.114327 94.114322 
L 143.3088 83.420478 
L 148.503273 85.976508 
L 153.697745 102.879247 
L 158.892218 122.0208 
L 164.086691 133.544286 
L 169.281164 138.361091 
L 174.475636 139.831266 
L 179.670109 141.208716 
L 184.864582 141.646718 
L 190.059055 141.916352 
L 195.253527 141.734563 
L 200.448 140.920781 
L 205.642473 140.247307 
L 210.836945 137.452145 
L 216.031418 133.490604 
L 221.225891 126.100688 
L 226.420364 113.892747 
L 231.614836 95.506412 
L 236.809309 73.331785 
L 242.003782 59.636589 
L 247.198255 66.795913 
L 252.392727 93.345682 
L 257.5872 119.670961 
L 262.781673 134.275103 
L 267.976145 140.469358 
L 273.170618 143.330404 
L 278.365091 145.090953 
L 283.559564 145.909615 
L 288.754036 146.697775 
L 293.948509 147.18946 
L 299.142982 147.706766 
L 304.337455 147.97518 
L 309.531927 148.215532 
L 314.7264 148.526648 
L 319.920873 148.741379 
L 325.115345 148.830443 
L 330.309818 149.104957 
" style="fill:none;stroke:#51636e;stroke-linecap:square;stroke-width:1.5;"/>
   </g>
   <g id="line2d_8">
    <path clip-path="url(#p8f5e432510)" d="M 70.586182 145.81811 
L 75.780655 145.698544 
L 80.975127 145.702204 
L 86.1696 145.577758 
L 91.364073 145.126335 
L 96.558545 145.004329 
L 101.753018 144.488243 
L 106.947491 143.552455 
L 112.141964 142.236008 
L 117.336436 139.616535 
L 122.530909 135.025442 
L 127.725382 126.844926 
L 132.919855 114.880997 
L 138.114327 100.204871 
L 143.3088 89.406102 
L 148.503273 92.287889 
L 153.697745 109.861662 
L 158.892218 128.809226 
L 164.086691 139.750742 
L 169.281164 144.294253 
L 174.475636 146.193889 
L 179.670109 147.361489 
L 184.864582 147.703106 
L 190.059055 148.003241 
L 195.253527 147.722627 
L 200.448 147.152858 
L 205.642473 146.032841 
L 210.836945 143.556115 
L 216.031418 139.296879 
L 221.225891 131.586087 
L 226.420364 119.282981 
L 231.614836 100.164609 
L 236.809309 79.224684 
L 242.003782 64.668124 
L 247.198255 73.513574 
L 252.392727 100.118247 
L 257.5872 126.278817 
L 262.781673 140.925662 
L 267.976145 146.829542 
L 273.170618 149.407533 
L 278.365091 151.11562 
L 283.559564 152.10021 
L 288.754036 152.727322 
L 293.948509 153.232427 
L 299.142982 153.707031 
L 304.337455 154.153574 
L 309.531927 154.448829 
L 314.7264 154.617198 
L 319.920873 154.880731 
L 325.115345 154.990537 
L 330.309818 155.200387 
" style="fill:none;stroke:#546772;stroke-linecap:square;stroke-width:1.5;"/>
   </g>
   <g id="line2d_9">
    <path clip-path="url(#p8f5e432510)" d="M 70.586182 152.068488 
L 75.780655 151.940382 
L 80.975127 151.789094 
L 86.1696 151.784214 
L 91.364073 151.440156 
L 96.558545 151.030215 
L 101.753018 150.473867 
L 106.947491 149.789412 
L 112.141964 148.414402 
L 117.336436 145.559457 
L 122.530909 140.787795 
L 127.725382 132.094853 
L 132.919855 120.915424 
L 138.114327 104.985074 
L 143.3088 95.434429 
L 148.503273 98.778619 
L 153.697745 116.975844 
L 158.892218 135.574469 
L 164.086691 146.642872 
L 169.281164 150.476307 
L 174.475636 152.587014 
L 179.670109 153.533783 
L 184.864582 153.938843 
L 190.059055 154.342684 
L 195.253527 153.754614 
L 200.448 152.989635 
L 205.642473 151.881819 
L 210.836945 149.757691 
L 216.031418 145.158057 
L 221.225891 137.489967 
L 226.420364 124.598791 
L 231.614836 105.931842 
L 236.809309 84.239139 
L 242.003782 71.251579 
L 247.198255 80.198294 
L 252.392727 107.295872 
L 257.5872 133.316135 
L 262.781673 147.465194 
L 267.976145 153.178745 
L 273.170618 155.628629 
L 278.365091 157.347696 
L 283.559564 158.299345 
L 288.754036 158.875214 
L 293.948509 159.492566 
L 299.142982 159.901286 
L 304.337455 160.249004 
L 309.531927 160.516198 
L 314.7264 160.905397 
L 319.920873 161.110368 
L 325.115345 161.072546 
L 330.309818 161.238474 
" style="fill:none;stroke:#586b76;stroke-linecap:square;stroke-width:1.5;"/>
   </g>
   <g id="line2d_10">
    <path clip-path="url(#p8f5e432510)" d="M 70.586182 157.791799 
L 75.780655 157.855242 
L 80.975127 157.775938 
L 86.1696 157.625871 
L 91.364073 157.564868 
L 96.558545 157.095144 
L 101.753018 156.616879 
L 106.947491 155.621309 
L 112.141964 154.375625 
L 117.336436 151.785434 
L 122.530909 146.544047 
L 127.725382 138.463576 
L 132.919855 125.776151 
L 138.114327 110.620541 
L 143.3088 100.198771 
L 148.503273 104.90211 
L 153.697745 123.515376 
L 158.892218 142.246989 
L 164.086691 152.595555 
L 169.281164 156.616879 
L 174.475636 158.619001 
L 179.670109 159.569429 
L 184.864582 159.97083 
L 190.059055 160.011092 
L 195.253527 159.884205 
L 200.448 159.313216 
L 205.642473 158.098035 
L 210.836945 155.301652 
L 216.031418 151.058277 
L 221.225891 143.118113 
L 226.420364 130.622238 
L 231.614836 110.853573 
L 236.809309 89.628153 
L 242.003782 77.278686 
L 247.198255 86.495034 
L 252.392727 114.259986 
L 257.5872 139.615315 
L 262.781673 153.699711 
L 267.976145 159.113126 
L 273.170618 161.720399 
L 278.365091 163.150312 
L 283.559564 164.469199 
L 288.754036 165.059709 
L 293.948509 165.624597 
L 299.142982 165.87837 
L 304.337455 166.279771 
L 309.531927 166.545744 
L 314.7264 166.86418 
L 319.920873 167.087452 
L 325.115345 167.24362 
L 330.309818 167.337564 
" style="fill:none;stroke:#5b6f7b;stroke-linecap:square;stroke-width:1.5;"/>
   </g>
   <g id="line2d_11">
    <path clip-path="url(#p8f5e432510)" d="M 70.586182 164.033636 
L 75.780655 163.879909 
L 80.975127 164.009235 
L 86.1696 164.181264 
L 91.364073 163.754242 
L 96.558545 163.362602 
L 101.753018 162.795273 
L 106.947491 161.656956 
L 112.141964 160.286826 
L 117.336436 157.534366 
L 122.530909 152.562613 
L 127.725382 144.530945 
L 132.919855 131.295712 
L 138.114327 116.578104 
L 143.3088 106.879831 
L 148.503273 111.511186 
L 153.697745 129.619347 
L 158.892218 148.344859 
L 164.086691 158.520176 
L 169.281164 162.942901 
L 174.475636 164.668069 
L 179.670109 165.697801 
L 184.864582 166.190706 
L 190.059055 166.327353 
L 195.253527 165.775885 
L 200.448 165.273219 
L 205.642473 164.131241 
L 210.836945 161.53861 
L 216.031418 156.973137 
L 221.225891 149.058595 
L 226.420364 135.964889 
L 231.614836 117.182034 
L 236.809309 94.832938 
L 242.003782 82.398066 
L 247.198255 93.210256 
L 252.392727 120.492063 
L 257.5872 146.430581 
L 262.781673 159.96473 
L 267.976145 165.201236 
L 273.170618 167.970777 
L 278.365091 169.534896 
L 283.559564 170.460923 
L 288.754036 171.232002 
L 293.948509 171.704166 
L 299.142982 172.133628 
L 304.337455 172.404482 
L 309.531927 172.669235 
L 314.7264 173.057215 
L 319.920873 173.188982 
L 325.115345 173.365891 
L 330.309818 173.417134 
" style="fill:none;stroke:#5e7380;stroke-linecap:square;stroke-width:1.5;"/>
   </g>
   <g id="line2d_12">
    <path clip-path="url(#p8f5e432510)" d="M 70.586182 170.316956 
L 75.780655 170.241312 
L 80.975127 170.077824 
L 86.1696 169.910675 
L 91.364073 169.512935 
L 96.558545 169.287224 
L 101.753018 168.707694 
L 106.947491 168.209909 
L 112.141964 166.498162 
L 117.336436 163.929931 
L 122.530909 158.705626 
L 127.725382 149.984622 
L 132.919855 137.722999 
L 138.114327 122.098884 
L 143.3088 112.098036 
L 148.503273 117.167394 
L 153.697745 136.199141 
L 158.892218 154.548874 
L 164.086691 164.865719 
L 169.281164 169.004169 
L 174.475636 170.948948 
L 179.670109 171.823733 
L 184.864582 172.596032 
L 190.059055 172.37398 
L 195.253527 172.138509 
L 200.448 171.556539 
L 205.642473 170.057083 
L 210.836945 167.754826 
L 216.031418 163.064907 
L 221.225891 155.003957 
L 226.420364 141.606456 
L 231.614836 122.270913 
L 236.809309 100.905187 
L 242.003782 88.899776 
L 247.198255 98.713955 
L 252.392727 127.047456 
L 257.5872 152.229536 
L 262.781673 166.177285 
L 267.976145 171.242983 
L 273.170618 174.205294 
L 278.365091 175.588844 
L 283.559564 176.69056 
L 288.754036 177.364034 
L 293.948509 177.722732 
L 299.142982 178.221738 
L 304.337455 178.513333 
L 309.531927 178.875691 
L 314.7264 179.097742 
L 319.920873 179.229509 
L 325.115345 179.396658 
L 330.309818 179.543065 
" style="fill:none;stroke:#617784;stroke-linecap:square;stroke-width:1.5;"/>
   </g>
   <g id="line2d_13">
    <path clip-path="url(#p8f5e432510)" d="M 70.586182 176.413606 
L 75.780655 176.286719 
L 80.975127 176.235477 
L 86.1696 175.864578 
L 91.364073 176.061008 
L 96.558545 175.464398 
L 101.753018 174.867787 
L 106.947491 174.032045 
L 112.141964 172.375201 
L 117.336436 169.621521 
L 122.530909 164.709551 
L 127.725382 156.354566 
L 132.919855 143.387747 
L 138.114327 128.440767 
L 143.3088 118.249589 
L 148.503273 123.58858 
L 153.697745 142.562985 
L 158.892218 160.699207 
L 164.086691 170.779359 
L 169.281164 175.167923 
L 174.475636 177.001676 
L 179.670109 177.791056 
L 184.864582 178.207097 
L 190.059055 178.441349 
L 195.253527 178.170495 
L 200.448 177.500681 
L 205.642473 176.444107 
L 210.836945 173.705068 
L 216.031418 169.02979 
L 221.225891 160.872456 
L 226.420364 147.694566 
L 231.614836 128.028386 
L 236.809309 106.745624 
L 242.003782 94.124082 
L 247.198255 105.385255 
L 252.392727 133.4235 
L 257.5872 158.753208 
L 262.781673 172.233673 
L 267.976145 177.709312 
L 273.170618 180.23362 
L 278.365091 181.670853 
L 283.559564 182.557838 
L 288.754036 183.38016 
L 293.948509 183.804742 
L 299.142982 184.252504 
L 304.337455 184.697827 
L 309.531927 185.004063 
L 314.7264 185.198053 
L 319.920873 185.383502 
L 325.115345 185.601893 
L 330.309818 185.609213 
" style="fill:none;stroke:#657b89;stroke-linecap:square;stroke-width:1.5;"/>
   </g>
   <g id="line2d_14">
    <path clip-path="url(#p8f5e432510)" d="M 70.586182 182.459013 
L 75.780655 182.19548 
L 80.975127 182.371169 
L 86.1696 182.434612 
L 91.364073 182.077134 
L 96.558545 181.547627 
L 101.753018 180.715545 
L 106.947491 180.073792 
L 112.141964 178.641439 
L 117.336436 175.740132 
L 122.530909 171.102676 
L 127.725382 162.155961 
L 132.919855 149.635684 
L 138.114327 134.351967 
L 143.3088 124.194951 
L 148.503273 129.68401 
L 153.697745 148.326558 
L 158.892218 166.889802 
L 164.086691 177.045598 
L 169.281164 181.249932 
L 174.475636 183.028782 
L 179.670109 184.152459 
L 184.864582 184.624623 
L 190.059055 184.725888 
L 195.253527 184.241524 
L 200.448 183.609532 
L 205.642473 182.280884 
L 210.836945 179.859061 
L 216.031418 175.204524 
L 221.225891 167.330244 
L 226.420364 153.912002 
L 231.614836 134.151877 
L 236.809309 112.57752 
L 242.003782 100.591631 
L 247.198255 111.425782 
L 252.392727 139.370082 
L 257.5872 164.652208 
L 262.781673 178.019208 
L 267.976145 183.521687 
L 273.170618 186.304649 
L 278.365091 187.70162 
L 283.559564 188.759414 
L 288.754036 189.524392 
L 293.948509 189.955074 
L 299.142982 190.371116 
L 304.337455 190.682231 
L 309.531927 191.012868 
L 314.7264 191.192217 
L 319.920873 191.464291 
L 325.115345 191.63632 
L 330.309818 191.749786 
" style="fill:none;stroke:#687f8d;stroke-linecap:square;stroke-width:1.5;"/>
   </g>
   <g id="line2d_15">
    <path clip-path="url(#p8f5e432510)" d="M 70.586182 188.48612 
L 75.780655 188.458058 
L 80.975127 188.661809 
L 86.1696 188.260408 
L 91.364073 188.30555 
L 96.558545 187.497869 
L 101.753018 187.330721 
L 106.947491 186.211924 
L 112.141964 184.843014 
L 117.336436 181.586669 
L 122.530909 177.231047 
L 127.725382 168.572267 
L 132.919855 155.24675 
L 138.114327 140.652368 
L 143.3088 130.890651 
L 148.503273 136.408992 
L 153.697745 154.735544 
L 158.892218 173.1414 
L 164.086691 183.130047 
L 169.281164 187.410025 
L 174.475636 189.124212 
L 179.670109 190.174686 
L 184.864582 190.516303 
L 190.059055 190.641969 
L 195.253527 190.186886 
L 200.448 189.791586 
L 205.642473 188.09936 
L 210.836945 185.92765 
L 216.031418 181.263352 
L 221.225891 173.361011 
L 226.420364 159.97205 
L 231.614836 140.753633 
L 236.809309 119.135354 
L 242.003782 106.382045 
L 247.198255 117.125911 
L 252.392727 145.6168 
L 257.5872 171.047773 
L 262.781673 184.329368 
L 267.976145 189.808667 
L 273.170618 192.376897 
L 278.365091 194.087424 
L 283.559564 195.023212 
L 288.754036 195.641783 
L 293.948509 196.074906 
L 299.142982 196.481186 
L 304.337455 196.899667 
L 309.531927 197.122939 
L 314.7264 197.353531 
L 319.920873 197.525559 
L 325.115345 197.601203 
L 330.309818 197.809834 
" style="fill:none;stroke:#6b8392;stroke-linecap:square;stroke-width:1.5;"/>
   </g>
   <g id="line2d_16">
    <path clip-path="url(#p8f5e432510)" d="M 70.586182 194.675494 
L 75.780655 194.59619 
L 80.975127 194.668174 
L 86.1696 194.243592 
L 91.364073 194.043502 
L 96.558545 193.782409 
L 101.753018 193.261442 
L 106.947491 192.297593 
L 112.141964 191.233699 
L 117.336436 187.912691 
L 122.530909 183.036103 
L 127.725382 174.215054 
L 132.919855 161.772861 
L 138.114327 146.278074 
L 143.3088 136.898237 
L 148.503273 142.222587 
L 153.697745 161.138429 
L 158.892218 179.25635 
L 164.086691 189.46705 
L 169.281164 193.670163 
L 174.475636 195.1867 
L 179.670109 196.127368 
L 184.864582 196.7496 
L 190.059055 196.924069 
L 195.253527 196.512908 
L 200.448 195.711327 
L 205.642473 194.618151 
L 210.836945 191.776627 
L 216.031418 187.262397 
L 221.225891 178.968416 
L 226.420364 165.653879 
L 231.614836 146.458643 
L 236.809309 125.411353 
L 242.003782 113.914708 
L 247.198255 124.224232 
L 252.392727 152.807846 
L 257.5872 177.734933 
L 262.781673 190.696872 
L 267.976145 196.177391 
L 273.170618 198.547971 
L 278.365091 200.251178 
L 283.559564 201.141823 
L 288.754036 201.610327 
L 293.948509 202.05687 
L 299.142982 202.66324 
L 304.337455 202.997537 
L 309.531927 203.329394 
L 314.7264 203.459941 
L 319.920873 203.569747 
L 325.115345 203.886963 
L 330.309818 203.928445 
" style="fill:none;stroke:#6e8796;stroke-linecap:square;stroke-width:1.5;"/>
   </g>
   <g id="line2d_17">
    <path clip-path="url(#p8f5e432510)" d="M 70.586182 200.773364 
L 75.780655 200.68308 
L 80.975127 200.418326 
L 86.1696 200.645258 
L 91.364073 200.335362 
L 96.558545 199.787554 
L 101.753018 199.443497 
L 106.947491 198.305179 
L 112.141964 197.168081 
L 117.336436 193.930036 
L 122.530909 189.141293 
L 127.725382 180.164077 
L 132.919855 167.942715 
L 138.114327 152.482089 
L 143.3088 143.114453 
L 148.503273 148.797502 
L 153.697745 167.551075 
L 158.892218 185.858106 
L 164.086691 195.589321 
L 169.281164 199.489859 
L 174.475636 201.551764 
L 179.670109 202.296002 
L 184.864582 202.85967 
L 190.059055 202.725464 
L 195.253527 202.508293 
L 200.448 201.990986 
L 205.642473 200.522032 
L 210.836945 197.951361 
L 216.031418 192.961307 
L 221.225891 185.045545 
L 226.420364 171.829833 
L 231.614836 152.214896 
L 236.809309 130.979716 
L 242.003782 119.278101 
L 247.198255 130.635658 
L 252.392727 158.662923 
L 257.5872 183.640033 
L 262.781673 197.121719 
L 267.976145 202.109332 
L 273.170618 204.720265 
L 278.365091 206.236802 
L 283.559564 207.129888 
L 288.754036 207.621573 
L 293.948509 208.265765 
L 299.142982 208.676926 
L 304.337455 209.129569 
L 309.531927 209.376022 
L 314.7264 209.595633 
L 319.920873 209.796943 
L 325.115345 209.855506 
L 330.309818 210.087318 
" style="fill:none;stroke:#728b9a;stroke-linecap:square;stroke-width:1.5;"/>
   </g>
   <g id="line2d_18">
    <path clip-path="url(#p8f5e432510)" d="M 70.586182 206.680905 
L 75.780655 206.689445 
L 80.975127 206.809011 
L 86.1696 206.539378 
L 91.364073 206.501556 
L 96.558545 205.968389 
L 101.753018 205.477924 
L 106.947491 204.892294 
L 112.141964 203.023159 
L 117.336436 200.220676 
L 122.530909 194.914627 
L 127.725382 186.545001 
L 132.919855 173.639185 
L 138.114327 158.499435 
L 143.3088 149.059815 
L 148.503273 155.24553 
L 153.697745 173.574522 
L 158.892218 191.869352 
L 164.086691 201.759175 
L 169.281164 205.740237 
L 174.475636 207.689896 
L 179.670109 208.489037 
L 184.864582 209.079547 
L 190.059055 208.914838 
L 195.253527 208.801373 
L 200.448 208.016873 
L 205.642473 206.694325 
L 210.836945 204.163917 
L 216.031418 199.044537 
L 221.225891 190.989687 
L 226.420364 178.055809 
L 231.614836 158.647063 
L 236.809309 136.673745 
L 242.003782 125.286906 
L 247.198255 136.872615 
L 252.392727 164.963324 
L 257.5872 190.079521 
L 262.781673 202.910913 
L 267.976145 208.079096 
L 273.170618 210.675388 
L 278.365091 212.171184 
L 283.559564 213.176515 
L 288.754036 213.967115 
L 293.948509 214.200147 
L 299.142982 214.788217 
L 304.337455 215.057851 
L 309.531927 215.449491 
L 314.7264 215.736205 
L 319.920873 215.82771 
L 325.115345 215.933855 
L 330.309818 216.137606 
" style="fill:none;stroke:#758f9f;stroke-linecap:square;stroke-width:1.5;"/>
   </g>
   <g id="line2d_19">
    <path clip-path="url(#p8f5e432510)" d="M 70.586182 212.775115 
L 75.780655 212.88248 
L 80.975127 212.899561 
L 86.1696 212.832458 
L 91.364073 212.413976 
L 96.558545 212.08822 
L 101.753018 211.293959 
L 106.947491 210.820575 
L 112.141964 209.214974 
L 117.336436 206.19898 
L 122.530909 200.817287 
L 127.725382 192.564787 
L 132.919855 179.84198 
L 138.114327 164.868159 
L 143.3088 155.155245 
L 148.503273 160.444214 
L 153.697745 179.679712 
L 158.892218 197.851316 
L 164.086691 207.787501 
L 169.281164 211.791745 
L 174.475636 213.605977 
L 179.670109 214.502722 
L 184.864582 214.990747 
L 190.059055 215.262821 
L 195.253527 214.711353 
L 200.448 214.274571 
L 205.642473 212.936163 
L 210.836945 210.220305 
L 216.031418 205.446202 
L 221.225891 197.161981 
L 226.420364 183.526568 
L 231.614836 164.422836 
L 236.809309 143.160815 
L 242.003782 131.349395 
L 247.198255 142.700852 
L 252.392727 170.99653 
L 257.5872 195.833333 
L 262.781673 208.967301 
L 267.976145 214.351435 
L 273.170618 216.802539 
L 278.365091 218.469144 
L 283.559564 219.295126 
L 288.754036 220.134529 
L 293.948509 220.538369 
L 299.142982 220.904388 
L 304.337455 221.32897 
L 309.531927 221.513199 
L 314.7264 221.875557 
L 319.920873 221.963402 
L 325.115345 222.239136 
L 330.309818 222.217175 
" style="fill:none;stroke:#7893a3;stroke-linecap:square;stroke-width:1.5;"/>
   </g>
   <g id="line2d_20">
    <path clip-path="url(#p8f5e432510)" d="M 70.586182 219.015732 
L 75.780655 218.890066 
L 80.975127 219.016952 
L 86.1696 218.705836 
L 91.364073 218.608231 
L 96.558545 218.259293 
L 101.753018 217.79323 
L 106.947491 216.540226 
L 112.141964 215.43729 
L 117.336436 212.28953 
L 122.530909 207.38122 
L 127.725382 198.230755 
L 132.919855 186.147261 
L 138.114327 170.219351 
L 143.3088 161.505668 
L 148.503273 166.816598 
L 153.697745 186.143601 
L 158.892218 203.888183 
L 164.086691 213.987856 
L 169.281164 217.729787 
L 174.475636 219.629423 
L 179.670109 220.429784 
L 184.864582 220.932449 
L 190.059055 221.100818 
L 195.253527 220.856806 
L 200.448 220.317538 
L 205.642473 218.96937 
L 210.836945 216.318175 
L 216.031418 211.657538 
L 221.225891 203.395278 
L 226.420364 190.274731 
L 231.614836 170.347457 
L 236.809309 148.440024 
L 242.003782 136.628603 
L 247.198255 149.313588 
L 252.392727 177.311572 
L 257.5872 202.381406 
L 262.781673 215.111533 
L 267.976145 220.371221 
L 273.170618 222.961413 
L 278.365091 224.357163 
L 283.559564 225.378355 
L 288.754036 226.076231 
L 293.948509 226.604518 
L 299.142982 227.020559 
L 304.337455 227.375597 
L 309.531927 227.664752 
L 314.7264 227.972207 
L 319.920873 228.086893 
L 325.115345 228.211339 
L 330.309818 228.319925 
" style="fill:none;stroke:#7b98a8;stroke-linecap:square;stroke-width:1.5;"/>
   </g>
   <g id="line2d_21">
    <path clip-path="url(#p8f5e432510)" d="M 70.586182 225.129463 
L 75.780655 224.954994 
L 80.975127 224.995256 
L 86.1696 224.87813 
L 91.364073 224.530412 
L 96.558545 224.2986 
L 101.753018 223.816676 
L 106.947491 222.71984 
L 112.141964 221.278947 
L 117.336436 218.415461 
L 122.530909 213.483971 
L 127.725382 204.511634 
L 132.919855 191.399628 
L 138.114327 176.528292 
L 143.3088 166.703132 
L 148.503273 173.110898 
L 153.697745 191.901073 
L 158.892218 210.13612 
L 164.086691 220.112568 
L 169.281164 224.072889 
L 174.475636 225.759015 
L 179.670109 226.6521 
L 184.864582 227.153546 
L 190.059055 227.287752 
L 195.253527 226.84121 
L 200.448 226.327564 
L 205.642473 224.797606 
L 210.836945 222.095168 
L 216.031418 217.609 
L 221.225891 209.501688 
L 226.420364 196.109067 
L 231.614836 176.506331 
L 236.809309 154.666 
L 242.003782 143.214498 
L 247.198255 154.872191 
L 252.392727 183.520467 
L 257.5872 208.456095 
L 262.781673 221.402173 
L 267.976145 226.45323 
L 273.170618 229.160548 
L 278.365091 230.733208 
L 283.559564 231.394481 
L 288.754036 232.115538 
L 293.948509 232.674326 
L 299.142982 233.000083 
L 304.337455 233.478347 
L 309.531927 233.707719 
L 314.7264 233.993213 
L 319.920873 234.253087 
L 325.115345 234.371433 
L 330.309818 234.497099 
" style="fill:none;stroke:#7e9cac;stroke-linecap:square;stroke-width:1.5;"/>
   </g>
   <g id="line2d_22">
    <path clip-path="url(#p8f5e432510)" d="M 70.586182 231.392041 
L 75.780655 231.17609 
L 80.975127 231.113867 
L 86.1696 230.894256 
L 91.364073 230.641703 
L 96.558545 230.450153 
L 101.753018 229.852323 
L 106.947491 228.973878 
L 112.141964 227.260911 
L 117.336436 224.414506 
L 122.530909 219.420792 
L 127.725382 210.5302 
L 132.919855 197.898898 
L 138.114327 182.250383 
L 143.3088 173.790473 
L 148.503273 179.371036 
L 153.697745 198.612635 
L 158.892218 216.327935 
L 164.086691 226.239719 
L 169.281164 230.070714 
L 174.475636 231.915448 
L 179.670109 232.887837 
L 184.864582 233.461266 
L 190.059055 233.466147 
L 195.253527 233.035465 
L 200.448 232.563301 
L 205.642473 231.099226 
L 210.836945 228.334566 
L 216.031418 223.609265 
L 221.225891 215.307963 
L 226.420364 201.701832 
L 231.614836 182.232082 
L 236.809309 160.547919 
L 242.003782 149.35019 
L 247.198255 161.578872 
L 252.392727 190.035598 
L 257.5872 214.663771 
L 262.781673 227.454901 
L 267.976145 232.685307 
L 273.170618 235.014405 
L 278.365091 236.565104 
L 283.559564 237.691221 
L 288.754036 238.486702 
L 293.948509 238.764876 
L 299.142982 239.166276 
L 304.337455 239.610379 
L 309.531927 239.876353 
L 314.7264 240.089863 
L 319.920873 240.316795 
L 325.115345 240.457102 
L 330.309818 240.653532 
" style="fill:none;stroke:#82a0b1;stroke-linecap:square;stroke-width:1.5;"/>
   </g>
   <g id="line2d_23">
    <path clip-path="url(#p8f5e432510)" d="M 70.586182 237.371565 
L 75.780655 237.055569 
L 80.975127 237.167815 
L 86.1696 237.181235 
L 91.364073 236.87622 
L 96.558545 236.68589 
L 101.753018 235.912371 
L 106.947491 234.772833 
L 112.141964 233.805324 
L 117.336436 230.468454 
L 122.530909 225.545504 
L 127.725382 216.445061 
L 132.919855 203.522164 
L 138.114327 188.800896 
L 143.3088 179.831 
L 148.503273 184.962581 
L 153.697745 204.529935 
L 158.892218 222.553912 
L 164.086691 232.475456 
L 169.281164 236.450418 
L 174.475636 238.204868 
L 179.670109 238.833199 
L 184.864582 239.283402 
L 190.059055 239.374907 
L 195.253527 239.337085 
L 200.448 238.491582 
L 205.642473 237.342284 
L 210.836945 234.687429 
L 216.031418 229.627831 
L 221.225891 221.496118 
L 226.420364 207.76798 
L 231.614836 188.373874 
L 236.809309 166.141904 
L 242.003782 154.986876 
L 247.198255 167.574256 
L 252.392727 196.110287 
L 257.5872 220.898288 
L 262.781673 233.657696 
L 267.976145 238.933245 
L 273.170618 241.517336 
L 278.365091 242.959449 
L 283.559564 243.707347 
L 288.754036 244.563831 
L 293.948509 244.94937 
L 299.142982 245.229985 
L 304.337455 245.671647 
L 309.531927 245.947381 
L 314.7264 246.160892 
L 319.920873 246.382943 
L 325.115345 246.580593 
L 330.309818 246.626956 
" style="fill:none;stroke:#85a4b5;stroke-linecap:square;stroke-width:1.5;"/>
   </g>
   <g id="line2d_24">
    <path clip-path="url(#p8f5e432510)" d="M 70.586182 243.188821 
L 75.780655 243.438934 
L 80.975127 243.292526 
L 86.1696 243.107077 
L 91.364073 243.009472 
L 96.558545 242.669075 
L 101.753018 242.044403 
L 106.947491 241.01345 
L 112.141964 239.616479 
L 117.336436 236.400396 
L 122.530909 231.262715 
L 127.725382 222.673478 
L 132.919855 210.025095 
L 138.114327 194.670614 
L 143.3088 185.627514 
L 148.503273 191.616799 
L 153.697745 211.623376 
L 158.892218 228.745727 
L 164.086691 238.735595 
L 169.281164 242.281095 
L 174.475636 244.229534 
L 179.670109 244.93839 
L 184.864582 245.377612 
L 190.059055 245.317829 
L 195.253527 245.256826 
L 200.448 244.527229 
L 205.642473 243.055834 
L 210.836945 240.838981 
L 216.031418 235.479249 
L 221.225891 227.325574 
L 226.420364 213.829248 
L 231.614836 194.00568 
L 236.809309 172.502087 
L 242.003782 162.191343 
L 247.198255 174.086948 
L 252.392727 202.975576 
L 257.5872 227.226749 
L 262.781673 239.728725 
L 267.976145 244.817604 
L 273.170618 247.379734 
L 278.365091 248.836488 
L 283.559564 249.794237 
L 288.754036 250.405488 
L 293.948509 250.915474 
L 299.142982 251.460842 
L 304.337455 251.699974 
L 309.531927 251.979368 
L 314.7264 252.306345 
L 319.920873 252.438111 
L 325.115345 252.671143 
L 330.309818 252.773628 
" style="fill:none;stroke:#88a8ba;stroke-linecap:square;stroke-width:1.5;"/>
   </g>
   <g id="line2d_25">
    <path clip-path="url(#p8f5e432510)" d="M 70.586182 249.680771 
L 75.780655 249.492881 
L 80.975127 249.65393 
L 86.1696 249.213487 
L 91.364073 249.307432 
L 96.558545 248.541233 
L 101.753018 248.311861 
L 106.947491 247.321171 
L 112.141964 245.545981 
L 117.336436 242.692256 
L 122.530909 237.649739 
L 127.725382 228.539536 
L 132.919855 215.257941 
L 138.114327 200.317061 
L 143.3088 191.370346 
L 148.503273 198.643136 
L 153.697745 217.064853 
L 158.892218 235.387744 
L 164.086691 245.015254 
L 169.281164 248.637618 
L 174.475636 250.223699 
L 179.670109 250.971597 
L 184.864582 251.524285 
L 190.059055 251.835401 
L 195.253527 251.523065 
L 200.448 250.658041 
L 205.642473 249.376976 
L 210.836945 246.674538 
L 216.031418 241.541737 
L 221.225891 233.673557 
L 226.420364 219.692866 
L 231.614836 199.819276 
L 236.809309 178.309582 
L 242.003782 167.714564 
L 247.198255 180.572797 
L 252.392727 209.700558 
L 257.5872 233.92733 
L 262.781673 246.225555 
L 267.976145 251.174127 
L 273.170618 253.604491 
L 278.365091 254.918497 
L 283.559564 256.005573 
L 288.754036 256.558261 
L 293.948509 257.212214 
L 299.142982 257.501369 
L 304.337455 257.841766 
L 309.531927 258.12238 
L 314.7264 258.388354 
L 319.920873 258.542082 
L 325.115345 258.778774 
L 330.309818 258.860518 
" style="fill:none;stroke:#8bacbe;stroke-linecap:square;stroke-width:1.5;"/>
   </g>
   <g id="line2d_26">
    <path clip-path="url(#p8f5e432510)" d="M 70.586182 255.490706 
L 75.780655 255.479726 
L 80.975127 255.613933 
L 86.1696 255.316238 
L 91.364073 255.244254 
L 96.558545 254.611042 
L 101.753018 254.052253 
L 106.947491 253.381219 
L 112.141964 251.735355 
L 117.336436 249.045119 
L 122.530909 243.348649 
L 127.725382 234.654487 
L 132.919855 221.869457 
L 138.114327 206.328307 
L 143.3088 197.53166 
L 148.503273 204.772728 
L 153.697745 223.614146 
L 158.892218 241.496595 
L 164.086691 251.059441 
L 169.281164 254.785511 
L 174.475636 256.563141 
L 179.670109 257.33666 
L 184.864582 257.695358 
L 190.059055 257.842986 
L 195.253527 257.32202 
L 200.448 256.677827 
L 205.642473 255.324778 
L 210.836945 252.430791 
L 216.031418 247.709151 
L 221.225891 239.191898 
L 226.420364 225.802937 
L 231.614836 205.724376 
L 236.809309 184.795432 
L 242.003782 174.046686 
L 247.198255 186.292448 
L 252.392727 215.377507 
L 257.5872 239.969077 
L 262.781673 252.02329 
L 267.976145 257.081667 
L 273.170618 259.792645 
L 278.365091 261.107872 
L 283.559564 262.019258 
L 288.754036 262.780577 
L 293.948509 263.061191 
L 299.142982 263.706604 
L 304.337455 263.946956 
L 309.531927 264.322735 
L 314.7264 264.554547 
L 319.920873 264.691194 
L 325.115345 264.853462 
L 330.309818 265.047452 
" style="fill:none;stroke:#8fb0c3;stroke-linecap:square;stroke-width:1.5;"/>
   </g>
   <g id="line2d_27">
    <path clip-path="url(#p8f5e432510)" d="M 70.586182 261.704482 
L 75.780655 261.825268 
L 80.975127 261.643479 
L 86.1696 261.682521 
L 91.364073 261.300642 
L 96.558545 260.821157 
L 101.753018 260.428297 
L 106.947491 259.443707 
L 112.141964 257.694138 
L 117.336436 254.999021 
L 122.530909 249.677111 
L 127.725382 240.774318 
L 132.919855 227.697693 
L 138.114327 212.544523 
L 143.3088 203.703953 
L 148.503273 210.204444 
L 153.697745 230.143918 
L 158.892218 247.875079 
L 164.086691 257.14389 
L 169.281164 260.664989 
L 174.475636 262.589027 
L 179.670109 263.288123 
L 184.864582 263.693183 
L 190.059055 263.82495 
L 195.253527 263.446731 
L 200.448 262.754956 
L 205.642473 261.509272 
L 210.836945 258.933721 
L 216.031418 253.965629 
L 221.225891 245.162881 
L 226.420364 232.111878 
L 231.614836 211.763683 
L 236.809309 190.286931 
L 242.003782 180.107954 
L 247.198255 193.2163 
L 252.392727 220.977592 
L 257.5872 245.92298 
L 262.781673 258.036976 
L 267.976145 263.341806 
L 273.170618 265.829512 
L 278.365091 267.322868 
L 283.559564 268.175691 
L 288.754036 268.766201 
L 293.948509 269.355491 
L 299.142982 269.888658 
L 304.337455 270.10705 
L 309.531927 270.360822 
L 314.7264 270.551152 
L 319.920873 270.798825 
L 325.115345 270.90375 
L 330.309818 271.018436 
" style="fill:none;stroke:#92b4c8;stroke-linecap:square;stroke-width:1.5;"/>
   </g>
   <g id="line2d_28">
    <path clip-path="url(#p8f5e432510)" d="M 70.586182 267.815773 
L 75.780655 267.856035 
L 80.975127 267.705967 
L 86.1696 267.486356 
L 91.364073 267.577861 
L 96.558545 267.122778 
L 101.753018 266.245553 
L 106.947491 265.633082 
L 112.141964 263.795669 
L 117.336436 261.089571 
L 122.530909 255.478506 
L 127.725382 246.401244 
L 132.919855 233.705279 
L 138.114327 218.240993 
L 143.3088 208.957541 
L 148.503273 216.529245 
L 153.697745 236.446758 
L 158.892218 254.113256 
L 164.086691 263.081932 
L 169.281164 266.877545 
L 174.475636 268.54537 
L 179.670109 269.393313 
L 184.864582 270.198554 
L 190.059055 269.877678 
L 195.253527 269.659287 
L 200.448 268.757661 
L 205.642473 267.430233 
L 210.836945 264.61555 
L 216.031418 259.965894 
L 221.225891 251.329075 
L 226.420364 237.46063 
L 231.614836 217.524816 
L 236.809309 195.684486 
L 242.003782 186.257066 
L 247.198255 198.547971 
L 252.392727 227.378037 
L 257.5872 252.381988 
L 262.781673 264.114105 
L 267.976145 269.422595 
L 273.170618 271.798056 
L 278.365091 273.252369 
L 283.559564 274.301623 
L 288.754036 274.83601 
L 293.948509 275.460682 
L 299.142982 275.871843 
L 304.337455 276.153677 
L 309.531927 276.486754 
L 314.7264 276.706365 
L 319.920873 276.985759 
L 325.115345 277.030902 
L 330.309818 277.113866 
" style="fill:none;stroke:#95b8cc;stroke-linecap:square;stroke-width:1.5;"/>
   </g>
   <g id="line2d_29">
    <path clip-path="url(#p8f5e432510)" d="M 70.586182 273.895342 
L 75.780655 274.124714 
L 80.975127 274.05883 
L 86.1696 273.679391 
L 91.364073 273.374376 
L 96.558545 273.138904 
L 101.753018 272.397106 
L 106.947491 271.644328 
L 112.141964 270.074108 
L 117.336436 266.749439 
L 122.530909 261.445829 
L 127.725382 253.085964 
L 132.919855 239.63234 
L 138.114327 224.09973 
L 143.3088 215.549536 
L 148.503273 222.802804 
L 153.697745 242.398221 
L 158.892218 260.245288 
L 164.086691 269.401854 
L 169.281164 273.237729 
L 174.475636 274.796968 
L 179.670109 275.559507 
L 184.864582 275.963347 
L 190.059055 275.995069 
L 195.253527 275.848661 
L 200.448 274.988518 
L 205.642473 273.496382 
L 210.836945 270.837867 
L 216.031418 265.9869 
L 221.225891 256.703448 
L 226.420364 243.664645 
L 231.614836 223.49824 
L 236.809309 202.428989 
L 242.003782 191.649741 
L 247.198255 205.319316 
L 252.392727 234.067637 
L 257.5872 258.633586 
L 262.781673 270.30592 
L 267.976145 275.577808 
L 273.170618 278.082595 
L 278.365091 279.492987 
L 283.559564 280.322629 
L 288.754036 281.011964 
L 293.948509 281.508529 
L 299.142982 282.034376 
L 304.337455 282.31011 
L 309.531927 282.518741 
L 314.7264 282.828636 
L 319.920873 282.997005 
L 325.115345 283.045807 
L 330.309818 283.331302 
" style="fill:none;stroke:#98bcd1;stroke-linecap:square;stroke-width:1.5;"/>
   </g>
   <g id="line2d_30">
    <path clip-path="url(#p8f5e432510)" d="M 70.586182 279.95783 
L 75.780655 279.982232 
L 80.975127 279.707718 
L 86.1696 279.94197 
L 91.364073 279.589372 
L 96.558545 278.937859 
L 101.753018 278.546219 
L 106.947491 277.609211 
L 112.141964 275.990189 
L 117.336436 272.799726 
L 122.530909 267.404612 
L 127.725382 259.10941 
L 132.919855 245.772912 
L 138.114327 230.113416 
L 143.3088 221.657166 
L 148.503273 228.799409 
L 153.697745 248.416787 
L 158.892218 265.824632 
L 164.086691 275.22521 
L 169.281164 278.77071 
L 174.475636 280.914359 
L 179.670109 281.53171 
L 184.864582 282.024615 
L 190.059055 282.019735 
L 195.253527 281.823305 
L 200.448 281.241336 
L 205.642473 279.589372 
L 210.836945 276.722226 
L 216.031418 272.08355 
L 221.225891 263.515054 
L 226.420364 249.941864 
L 231.614836 229.304515 
L 236.809309 208.019313 
L 242.003782 197.488957 
L 247.198255 211.345202 
L 252.392727 240.315575 
L 257.5872 264.683874 
L 262.781673 276.287884 
L 267.976145 281.698859 
L 273.170618 284.053579 
L 278.365091 285.484711 
L 283.559564 286.504683 
L 288.754036 287.081773 
L 293.948509 287.661302 
L 299.142982 288.062702 
L 304.337455 288.356737 
L 309.531927 288.676394 
L 314.7264 288.972869 
L 319.920873 289.133917 
L 325.115345 289.263244 
L 330.309818 289.213221 
" style="fill:none;stroke:#9cc0d5;stroke-linecap:square;stroke-width:1.5;"/>
   </g>
   <g id="line2d_31">
    <path clip-path="url(#p8f5e432510)" d="M 70.586182 286.144765 
L 75.780655 286.099623 
L 80.975127 286.022759 
L 86.1696 286.095962 
L 91.364073 285.732384 
L 96.558545 285.433469 
L 101.753018 284.686791 
L 106.947491 283.782725 
L 112.141964 282.039256 
L 117.336436 279.037904 
L 122.530909 273.720873 
L 127.725382 264.940087 
L 132.919855 251.61945 
L 138.114327 236.296691 
L 143.3088 227.880703 
L 148.503273 235.338942 
L 153.697745 254.648864 
L 158.892218 272.133573 
L 164.086691 281.295018 
L 169.281164 285.002787 
L 174.475636 286.854841 
L 179.670109 287.713765 
L 184.864582 287.998039 
L 190.059055 288.277433 
L 195.253527 288.307935 
L 200.448 287.357507 
L 205.642473 285.829989 
L 210.836945 283.215396 
L 216.031418 278.308307 
L 221.225891 269.738591 
L 226.420364 255.94823 
L 231.614836 236.064879 
L 236.809309 214.311173 
L 242.003782 204.440871 
L 247.198255 217.367428 
L 252.392727 246.426866 
L 257.5872 270.872028 
L 262.781673 282.773734 
L 267.976145 287.758907 
L 273.170618 290.092886 
L 278.365091 291.586242 
L 283.559564 292.651356 
L 288.754036 293.227225 
L 293.948509 293.615205 
L 299.142982 294.132511 
L 304.337455 294.527811 
L 309.531927 294.814526 
L 314.7264 295.123201 
L 319.920873 295.150043 
L 325.115345 295.446518 
L 330.309818 295.488 
" style="fill:none;stroke:#9fc4da;stroke-linecap:square;stroke-width:1.5;"/>
   </g>
   <g id="patch_3">
    <path d="M 57.6 307.584 
L 57.6 41.472 
" style="fill:none;stroke:#000000;stroke-linecap:square;stroke-linejoin:miter;stroke-width:0.8;"/>
   </g>
   <g id="patch_4">
    <path d="M 343.296 307.584 
L 343.296 41.472 
" style="fill:none;stroke:#000000;stroke-linecap:square;stroke-linejoin:miter;stroke-width:0.8;"/>
   </g>
   <g id="patch_5">
    <path d="M 57.6 307.584 
L 343.296 307.584 
" style="fill:none;stroke:#000000;stroke-linecap:square;stroke-linejoin:miter;stroke-width:0.8;"/>
   </g>
   <g id="patch_6">
    <path d="M 57.6 41.472 
L 343.296 41.472 
" style="fill:none;stroke:#000000;stroke-linecap:square;stroke-linejoin:miter;stroke-width:0.8;"/>
   </g>
   <g id="text_8">
    <!-- Indium 3d5 -->
    <g transform="translate(166.40175 35.472)scale(0.12 -0.12)">
     <defs>
      <path d="M 52 44.1875 
Q 55.375 50.25 60.0625 53.125 
Q 64.75 56 71.09375 56 
Q 79.640625 56 84.28125 50.015625 
Q 88.921875 44.046875 88.921875 33.015625 
L 88.921875 0 
L 79.890625 0 
L 79.890625 32.71875 
Q 79.890625 40.578125 77.09375 44.375 
Q 74.3125 48.1875 68.609375 48.1875 
Q 61.625 48.1875 57.5625 43.546875 
Q 53.515625 38.921875 53.515625 30.90625 
L 53.515625 0 
L 44.484375 0 
L 44.484375 32.71875 
Q 44.484375 40.625 41.703125 44.40625 
Q 38.921875 48.1875 33.109375 48.1875 
Q 26.21875 48.1875 22.15625 43.53125 
Q 18.109375 38.875 18.109375 30.90625 
L 18.109375 0 
L 9.078125 0 
L 9.078125 54.6875 
L 18.109375 54.6875 
L 18.109375 46.1875 
Q 21.1875 51.21875 25.484375 53.609375 
Q 29.78125 56 35.6875 56 
Q 41.65625 56 45.828125 52.96875 
Q 50 49.953125 52 44.1875 
z
" id="DejaVuSans-109"/>
     </defs>
     <use xlink:href="#DejaVuSans-73"/>
     <use x="29.492188" xlink:href="#DejaVuSans-110"/>
     <use x="92.871094" xlink:href="#DejaVuSans-100"/>
     <use x="156.347656" xlink:href="#DejaVuSans-105"/>
     <use x="184.130859" xlink:href="#DejaVuSans-117"/>
     <use x="247.509766" xlink:href="#DejaVuSans-109"/>
     <use x="344.921875" xlink:href="#DejaVuSans-32"/>
     <use x="376.708984" xlink:href="#DejaVuSans-51"/>
     <use x="440.332031" xlink:href="#DejaVuSans-100"/>
     <use x="503.808594" xlink:href="#DejaVuSans-53"/>
    </g>
   </g>
  </g>
  <g id="axes_2">
   <g id="patch_7">
    <path clip-path="url(#pbcf4e03030)" d="M 361.152 41.472 
L 361.152 51.328 
L 361.152 297.728 
L 361.152 307.584 
L 374.4576 307.584 
L 374.4576 297.728 
L 374.4576 51.328 
L 374.4576 41.472 
z
" style="fill:#ffffff;stroke:#ffffff;stroke-linejoin:miter;stroke-width:0.01;"/>
   </g>
   <g id="QuadMesh_1">
    <path clip-path="url(#pbcf4e03030)" d="M 361.152 41.472 
L 374.4576 41.472 
L 374.4576 51.328 
L 361.152 51.328 
L 361.152 41.472 
" style="fill:#4e5f69;"/>
    <path clip-path="url(#pbcf4e03030)" d="M 361.152 51.328 
L 374.4576 51.328 
L 374.4576 61.184 
L 361.152 61.184 
L 361.152 51.328 
" style="fill:#51636e;"/>
    <path clip-path="url(#pbcf4e03030)" d="M 361.152 61.184 
L 374.4576 61.184 
L 374.4576 71.04 
L 361.152 71.04 
L 361.152 61.184 
" style="fill:#546772;"/>
    <path clip-path="url(#pbcf4e03030)" d="M 361.152 71.04 
L 374.4576 71.04 
L 374.4576 80.896 
L 361.152 80.896 
L 361.152 71.04 
" style="fill:#586b76;"/>
    <path clip-path="url(#pbcf4e03030)" d="M 361.152 80.896 
L 374.4576 80.896 
L 374.4576 90.752 
L 361.152 90.752 
L 361.152 80.896 
" style="fill:#5b6f7b;"/>
    <path clip-path="url(#pbcf4e03030)" d="M 361.152 90.752 
L 374.4576 90.752 
L 374.4576 100.608 
L 361.152 100.608 
L 361.152 90.752 
" style="fill:#5e7380;"/>
    <path clip-path="url(#pbcf4e03030)" d="M 361.152 100.608 
L 374.4576 100.608 
L 374.4576 110.464 
L 361.152 110.464 
L 361.152 100.608 
" style="fill:#617784;"/>
    <path clip-path="url(#pbcf4e03030)" d="M 361.152 110.464 
L 374.4576 110.464 
L 374.4576 120.32 
L 361.152 120.32 
L 361.152 110.464 
" style="fill:#657b89;"/>
    <path clip-path="url(#pbcf4e03030)" d="M 361.152 120.32 
L 374.4576 120.32 
L 374.4576 130.176 
L 361.152 130.176 
L 361.152 120.32 
" style="fill:#687f8d;"/>
    <path clip-path="url(#pbcf4e03030)" d="M 361.152 130.176 
L 374.4576 130.176 
L 374.4576 140.032 
L 361.152 140.032 
L 361.152 130.176 
" style="fill:#6b8392;"/>
    <path clip-path="url(#pbcf4e03030)" d="M 361.152 140.032 
L 374.4576 140.032 
L 374.4576 149.888 
L 361.152 149.888 
L 361.152 140.032 
" style="fill:#6e8796;"/>
    <path clip-path="url(#pbcf4e03030)" d="M 361.152 149.888 
L 374.4576 149.888 
L 374.4576 159.744 
L 361.152 159.744 
L 361.152 149.888 
" style="fill:#728b9a;"/>
    <path clip-path="url(#pbcf4e03030)" d="M 361.152 159.744 
L 374.4576 159.744 
L 374.4576 169.6 
L 361.152 169.6 
L 361.152 159.744 
" style="fill:#758f9f;"/>
    <path clip-path="url(#pbcf4e03030)" d="M 361.152 169.6 
L 374.4576 169.6 
L 374.4576 179.456 
L 361.152 179.456 
L 361.152 169.6 
" style="fill:#7893a3;"/>
    <path clip-path="url(#pbcf4e03030)" d="M 361.152 179.456 
L 374.4576 179.456 
L 374.4576 189.312 
L 361.152 189.312 
L 361.152 179.456 
" style="fill:#7b98a8;"/>
    <path clip-path="url(#pbcf4e03030)" d="M 361.152 189.312 
L 374.4576 189.312 
L 374.4576 199.168 
L 361.152 199.168 
L 361.152 189.312 
" style="fill:#7e9cac;"/>
    <path clip-path="url(#pbcf4e03030)" d="M 361.152 199.168 
L 374.4576 199.168 
L 374.4576 209.024 
L 361.152 209.024 
L 361.152 199.168 
" style="fill:#82a0b1;"/>
    <path clip-path="url(#pbcf4e03030)" d="M 361.152 209.024 
L 374.4576 209.024 
L 374.4576 218.88 
L 361.152 218.88 
L 361.152 209.024 
" style="fill:#85a4b5;"/>
    <path clip-path="url(#pbcf4e03030)" d="M 361.152 218.88 
L 374.4576 218.88 
L 374.4576 228.736 
L 361.152 228.736 
L 361.152 218.88 
" style="fill:#88a8ba;"/>
    <path clip-path="url(#pbcf4e03030)" d="M 361.152 228.736 
L 374.4576 228.736 
L 374.4576 238.592 
L 361.152 238.592 
L 361.152 228.736 
" style="fill:#8bacbe;"/>
    <path clip-path="url(#pbcf4e03030)" d="M 361.152 238.592 
L 374.4576 238.592 
L 374.4576 248.448 
L 361.152 248.448 
L 361.152 238.592 
" style="fill:#8fb0c3;"/>
    <path clip-path="url(#pbcf4e03030)" d="M 361.152 248.448 
L 374.4576 248.448 
L 374.4576 258.304 
L 361.152 258.304 
L 361.152 248.448 
" style="fill:#92b4c8;"/>
    <path clip-path="url(#pbcf4e03030)" d="M 361.152 258.304 
L 374.4576 258.304 
L 374.4576 268.16 
L 361.152 268.16 
L 361.152 258.304 
" style="fill:#95b8cc;"/>
    <path clip-path="url(#pbcf4e03030)" d="M 361.152 268.16 
L 374.4576 268.16 
L 374.4576 278.016 
L 361.152 278.016 
L 361.152 268.16 
" style="fill:#98bcd1;"/>
    <path clip-path="url(#pbcf4e03030)" d="M 361.152 278.016 
L 374.4576 278.016 
L 374.4576 287.872 
L 361.152 287.872 
L 361.152 278.016 
" style="fill:#9cc0d5;"/>
    <path clip-path="url(#pbcf4e03030)" d="M 361.152 287.872 
L 374.4576 287.872 
L 374.4576 297.728 
L 361.152 297.728 
L 361.152 287.872 
" style="fill:#9fc4da;"/>
    <path clip-path="url(#pbcf4e03030)" d="M 361.152 297.728 
L 374.4576 297.728 
L 374.4576 307.584 
L 361.152 307.584 
L 361.152 297.728 
" style="fill:#a2c8de;"/>
   </g>
   <g id="matplotlib.axis_3"/>
   <g id="matplotlib.axis_4">
    <g id="ytick_10">
     <g id="line2d_32">
      <defs>
       <path d="M 0 0 
L 3.5 0 
" id="m73374f9d06" style="stroke:#000000;stroke-width:0.8;"/>
      </defs>
      <g>
       <use style="stroke:#000000;stroke-width:0.8;" x="374.4576" xlink:href="#m73374f9d06" y="41.472"/>
      </g>
     </g>
     <g id="text_9">
      <!-- 0 -->
      <g transform="translate(381.4576 46.031063)scale(0.12 -0.12)">
       <use xlink:href="#DejaVuSans-48"/>
      </g>
     </g>
    </g>
    <g id="ytick_11">
     <g id="line2d_33">
      <g>
       <use style="stroke:#000000;stroke-width:0.8;" x="374.4576" xlink:href="#m73374f9d06" y="94.6944"/>
      </g>
     </g>
     <g id="text_10">
      <!-- 5 -->
      <g transform="translate(381.4576 99.253463)scale(0.12 -0.12)">
       <use xlink:href="#DejaVuSans-53"/>
      </g>
     </g>
    </g>
    <g id="ytick_12">
     <g id="line2d_34">
      <g>
       <use style="stroke:#000000;stroke-width:0.8;" x="374.4576" xlink:href="#m73374f9d06" y="147.9168"/>
      </g>
     </g>
     <g id="text_11">
      <!-- 10 -->
      <g transform="translate(381.4576 152.475863)scale(0.12 -0.12)">
       <defs>
        <path d="M 12.40625 8.296875 
L 28.515625 8.296875 
L 28.515625 63.921875 
L 10.984375 60.40625 
L 10.984375 69.390625 
L 28.421875 72.90625 
L 38.28125 72.90625 
L 38.28125 8.296875 
L 54.390625 8.296875 
L 54.390625 0 
L 12.40625 0 
z
" id="DejaVuSans-49"/>
       </defs>
       <use xlink:href="#DejaVuSans-49"/>
       <use x="63.623047" xlink:href="#DejaVuSans-48"/>
      </g>
     </g>
    </g>
    <g id="ytick_13">
     <g id="line2d_35">
      <g>
       <use style="stroke:#000000;stroke-width:0.8;" x="374.4576" xlink:href="#m73374f9d06" y="201.1392"/>
      </g>
     </g>
     <g id="text_12">
      <!-- 15 -->
      <g transform="translate(381.4576 205.698263)scale(0.12 -0.12)">
       <use xlink:href="#DejaVuSans-49"/>
       <use x="63.623047" xlink:href="#DejaVuSans-53"/>
      </g>
     </g>
    </g>
    <g id="ytick_14">
     <g id="line2d_36">
      <g>
       <use style="stroke:#000000;stroke-width:0.8;" x="374.4576" xlink:href="#m73374f9d06" y="254.3616"/>
      </g>
     </g>
     <g id="text_13">
      <!-- 20 -->
      <g transform="translate(381.4576 258.920663)scale(0.12 -0.12)">
       <defs>
        <path d="M 19.1875 8.296875 
L 53.609375 8.296875 
L 53.609375 0 
L 7.328125 0 
L 7.328125 8.296875 
Q 12.9375 14.109375 22.625 23.890625 
Q 32.328125 33.6875 34.8125 36.53125 
Q 39.546875 41.84375 41.421875 45.53125 
Q 43.3125 49.21875 43.3125 52.78125 
Q 43.3125 58.59375 39.234375 62.25 
Q 35.15625 65.921875 28.609375 65.921875 
Q 23.96875 65.921875 18.8125 64.3125 
Q 13.671875 62.703125 7.8125 59.421875 
L 7.8125 69.390625 
Q 13.765625 71.78125 18.9375 73 
Q 24.125 74.21875 28.421875 74.21875 
Q 39.75 74.21875 46.484375 68.546875 
Q 53.21875 62.890625 53.21875 53.421875 
Q 53.21875 48.921875 51.53125 44.890625 
Q 49.859375 40.875 45.40625 35.40625 
Q 44.1875 33.984375 37.640625 27.21875 
Q 31.109375 20.453125 19.1875 8.296875 
z
" id="DejaVuSans-50"/>
       </defs>
       <use xlink:href="#DejaVuSans-50"/>
       <use x="63.623047" xlink:href="#DejaVuSans-48"/>
      </g>
     </g>
    </g>
    <g id="ytick_15">
     <g id="line2d_37">
      <g>
       <use style="stroke:#000000;stroke-width:0.8;" x="374.4576" xlink:href="#m73374f9d06" y="307.584"/>
      </g>
     </g>
     <g id="text_14">
      <!-- 25 -->
      <g transform="translate(381.4576 312.143062)scale(0.12 -0.12)">
       <use xlink:href="#DejaVuSans-50"/>
       <use x="63.623047" xlink:href="#DejaVuSans-53"/>
      </g>
     </g>
    </g>
    <g id="text_15">
     <!-- Sputter Time [min] -->
     <g transform="translate(411.365413 240.763312)rotate(-90)scale(0.14 -0.14)">
      <defs>
       <path d="M 53.515625 70.515625 
L 53.515625 60.890625 
Q 47.90625 63.578125 42.921875 64.890625 
Q 37.9375 66.21875 33.296875 66.21875 
Q 25.25 66.21875 20.875 63.09375 
Q 16.5 59.96875 16.5 54.203125 
Q 16.5 49.359375 19.40625 46.890625 
Q 22.3125 44.4375 30.421875 42.921875 
L 36.375 41.703125 
Q 47.40625 39.59375 52.65625 34.296875 
Q 57.90625 29 57.90625 20.125 
Q 57.90625 9.515625 50.796875 4.046875 
Q 43.703125 -1.421875 29.984375 -1.421875 
Q 24.8125 -1.421875 18.96875 -0.25 
Q 13.140625 0.921875 6.890625 3.21875 
L 6.890625 13.375 
Q 12.890625 10.015625 18.65625 8.296875 
Q 24.421875 6.59375 29.984375 6.59375 
Q 38.421875 6.59375 43.015625 9.90625 
Q 47.609375 13.234375 47.609375 19.390625 
Q 47.609375 24.75 44.3125 27.78125 
Q 41.015625 30.8125 33.5 32.328125 
L 27.484375 33.5 
Q 16.453125 35.6875 11.515625 40.375 
Q 6.59375 45.0625 6.59375 53.421875 
Q 6.59375 63.09375 13.40625 68.65625 
Q 20.21875 74.21875 32.171875 74.21875 
Q 37.3125 74.21875 42.625 73.28125 
Q 47.953125 72.359375 53.515625 70.515625 
z
" id="DejaVuSans-83"/>
       <path d="M 18.109375 8.203125 
L 18.109375 -20.796875 
L 9.078125 -20.796875 
L 9.078125 54.6875 
L 18.109375 54.6875 
L 18.109375 46.390625 
Q 20.953125 51.265625 25.265625 53.625 
Q 29.59375 56 35.59375 56 
Q 45.5625 56 51.78125 48.09375 
Q 58.015625 40.1875 58.015625 27.296875 
Q 58.015625 14.40625 51.78125 6.484375 
Q 45.5625 -1.421875 35.59375 -1.421875 
Q 29.59375 -1.421875 25.265625 0.953125 
Q 20.953125 3.328125 18.109375 8.203125 
z
M 48.6875 27.296875 
Q 48.6875 37.203125 44.609375 42.84375 
Q 40.53125 48.484375 33.40625 48.484375 
Q 26.265625 48.484375 22.1875 42.84375 
Q 18.109375 37.203125 18.109375 27.296875 
Q 18.109375 17.390625 22.1875 11.75 
Q 26.265625 6.109375 33.40625 6.109375 
Q 40.53125 6.109375 44.609375 11.75 
Q 48.6875 17.390625 48.6875 27.296875 
z
" id="DejaVuSans-112"/>
       <path d="M -0.296875 72.90625 
L 61.375 72.90625 
L 61.375 64.59375 
L 35.5 64.59375 
L 35.5 0 
L 25.59375 0 
L 25.59375 64.59375 
L -0.296875 64.59375 
z
" id="DejaVuSans-84"/>
      </defs>
      <use xlink:href="#DejaVuSans-83"/>
      <use x="63.476562" xlink:href="#DejaVuSans-112"/>
      <use x="126.953125" xlink:href="#DejaVuSans-117"/>
      <use x="190.332031" xlink:href="#DejaVuSans-116"/>
      <use x="229.541016" xlink:href="#DejaVuSans-116"/>
      <use x="268.75" xlink:href="#DejaVuSans-101"/>
      <use x="330.273438" xlink:href="#DejaVuSans-114"/>
      <use x="371.386719" xlink:href="#DejaVuSans-32"/>
      <use x="403.173828" xlink:href="#DejaVuSans-84"/>
      <use x="461.132812" xlink:href="#DejaVuSans-105"/>
      <use x="488.916016" xlink:href="#DejaVuSans-109"/>
      <use x="586.328125" xlink:href="#DejaVuSans-101"/>
      <use x="647.851562" xlink:href="#DejaVuSans-32"/>
      <use x="679.638672" xlink:href="#DejaVuSans-91"/>
      <use x="718.652344" xlink:href="#DejaVuSans-109"/>
      <use x="816.064453" xlink:href="#DejaVuSans-105"/>
      <use x="843.847656" xlink:href="#DejaVuSans-110"/>
      <use x="907.226562" xlink:href="#DejaVuSans-93"/>
     </g>
    </g>
   </g>
   <g id="patch_8">
    <path d="M 361.152 41.472 
L 361.152 51.328 
L 361.152 297.728 
L 361.152 307.584 
L 374.4576 307.584 
L 374.4576 297.728 
L 374.4576 51.328 
L 374.4576 41.472 
z
" style="fill:none;stroke:#000000;stroke-linejoin:miter;stroke-width:0.8;"/>
   </g>
  </g>
 </g>
 <defs>
  <clipPath id="p8f5e432510">
   <rect height="266.112" width="285.696" x="57.6" y="41.472"/>
  </clipPath>
  <clipPath id="pbcf4e03030">
   <rect height="266.112" width="13.3056" x="361.152" y="41.472"/>
  </clipPath>
 </defs>
</svg>
