<?xml version="1.0" encoding="utf-8" standalone="no"?>
<!DOCTYPE svg PUBLIC "-//W3C//DTD SVG 1.1//EN"
  "http://www.w3.org/Graphics/SVG/1.1/DTD/svg11.dtd">
<!-- Created with matplotlib (https://matplotlib.org/) -->
<svg height="345.6pt" version="1.1" viewBox="0 0 460.8 345.6" width="460.8pt" xmlns="http://www.w3.org/2000/svg" xmlns:xlink="http://www.w3.org/1999/xlink">
 <metadata>
  <rdf:RDF xmlns:cc="http://creativecommons.org/ns#" xmlns:dc="http://purl.org/dc/elements/1.1/" xmlns:rdf="http://www.w3.org/1999/02/22-rdf-syntax-ns#">
   <cc:Work>
    <dc:type rdf:resource="http://purl.org/dc/dcmitype/StillImage"/>
    <dc:date>2022-12-05T14:36:09.287805</dc:date>
    <dc:format>image/svg+xml</dc:format>
    <dc:creator>
     <cc:Agent>
      <dc:title>Matplotlib v3.3.4, https://matplotlib.org/</dc:title>
     </cc:Agent>
    </dc:creator>
   </cc:Work>
  </rdf:RDF>
 </metadata>
 <defs>
  <style type="text/css">*{stroke-linecap:butt;stroke-linejoin:round;}</style>
 </defs>
 <g id="figure_1">
  <g id="patch_1">
   <path d="M 0 345.6 
L 460.8 345.6 
L 460.8 0 
L 0 0 
z
" style="fill:#ffffff;"/>
  </g>
  <g id="axes_1">
   <g id="patch_2">
    <path d="M 57.6 307.584 
L 343.296 307.584 
L 343.296 41.472 
L 57.6 41.472 
z
" style="fill:#ffffff;"/>
   </g>
   <g id="matplotlib.axis_1">
    <g id="xtick_1">
     <g id="line2d_1">
      <defs>
       <path d="M 0 0 
L 0 3.5 
" id="m984888d952" style="stroke:#000000;stroke-width:0.8;"/>
      </defs>
      <g>
       <use style="stroke:#000000;stroke-width:0.8;" x="330.309818" xlink:href="#m984888d952" y="307.584"/>
      </g>
     </g>
     <g id="text_1">
      <!-- 520 -->
      <g transform="translate(318.857318 323.702125)scale(0.12 -0.12)">
       <defs>
        <path d="M 10.796875 72.90625 
L 49.515625 72.90625 
L 49.515625 64.59375 
L 19.828125 64.59375 
L 19.828125 46.734375 
Q 21.96875 47.46875 24.109375 47.828125 
Q 26.265625 48.1875 28.421875 48.1875 
Q 40.625 48.1875 47.75 41.5 
Q 54.890625 34.8125 54.890625 23.390625 
Q 54.890625 11.625 47.5625 5.09375 
Q 40.234375 -1.421875 26.90625 -1.421875 
Q 22.3125 -1.421875 17.546875 -0.640625 
Q 12.796875 0.140625 7.71875 1.703125 
L 7.71875 11.625 
Q 12.109375 9.234375 16.796875 8.0625 
Q 21.484375 6.890625 26.703125 6.890625 
Q 35.15625 6.890625 40.078125 11.328125 
Q 45.015625 15.765625 45.015625 23.390625 
Q 45.015625 31 40.078125 35.4375 
Q 35.15625 39.890625 26.703125 39.890625 
Q 22.75 39.890625 18.8125 39.015625 
Q 14.890625 38.140625 10.796875 36.28125 
z
" id="DejaVuSans-53"/>
        <path d="M 19.1875 8.296875 
L 53.609375 8.296875 
L 53.609375 0 
L 7.328125 0 
L 7.328125 8.296875 
Q 12.9375 14.109375 22.625 23.890625 
Q 32.328125 33.6875 34.8125 36.53125 
Q 39.546875 41.84375 41.421875 45.53125 
Q 43.3125 49.21875 43.3125 52.78125 
Q 43.3125 58.59375 39.234375 62.25 
Q 35.15625 65.921875 28.609375 65.921875 
Q 23.96875 65.921875 18.8125 64.3125 
Q 13.671875 62.703125 7.8125 59.421875 
L 7.8125 69.390625 
Q 13.765625 71.78125 18.9375 73 
Q 24.125 74.21875 28.421875 74.21875 
Q 39.75 74.21875 46.484375 68.546875 
Q 53.21875 62.890625 53.21875 53.421875 
Q 53.21875 48.921875 51.53125 44.890625 
Q 49.859375 40.875 45.40625 35.40625 
Q 44.1875 33.984375 37.640625 27.21875 
Q 31.109375 20.453125 19.1875 8.296875 
z
" id="DejaVuSans-50"/>
        <path d="M 31.78125 66.40625 
Q 24.171875 66.40625 20.328125 58.90625 
Q 16.5 51.421875 16.5 36.375 
Q 16.5 21.390625 20.328125 13.890625 
Q 24.171875 6.390625 31.78125 6.390625 
Q 39.453125 6.390625 43.28125 13.890625 
Q 47.125 21.390625 47.125 36.375 
Q 47.125 51.421875 43.28125 58.90625 
Q 39.453125 66.40625 31.78125 66.40625 
z
M 31.78125 74.21875 
Q 44.046875 74.21875 50.515625 64.515625 
Q 56.984375 54.828125 56.984375 36.375 
Q 56.984375 17.96875 50.515625 8.265625 
Q 44.046875 -1.421875 31.78125 -1.421875 
Q 19.53125 -1.421875 13.0625 8.265625 
Q 6.59375 17.96875 6.59375 36.375 
Q 6.59375 54.828125 13.0625 64.515625 
Q 19.53125 74.21875 31.78125 74.21875 
z
" id="DejaVuSans-48"/>
       </defs>
       <use xlink:href="#DejaVuSans-53"/>
       <use x="63.623047" xlink:href="#DejaVuSans-50"/>
       <use x="127.246094" xlink:href="#DejaVuSans-48"/>
      </g>
     </g>
    </g>
    <g id="xtick_2">
     <g id="line2d_2">
      <g>
       <use style="stroke:#000000;stroke-width:0.8;" x="265.378909" xlink:href="#m984888d952" y="307.584"/>
      </g>
     </g>
     <g id="text_2">
      <!-- 525 -->
      <g transform="translate(253.926409 323.702125)scale(0.12 -0.12)">
       <use xlink:href="#DejaVuSans-53"/>
       <use x="63.623047" xlink:href="#DejaVuSans-50"/>
       <use x="127.246094" xlink:href="#DejaVuSans-53"/>
      </g>
     </g>
    </g>
    <g id="xtick_3">
     <g id="line2d_3">
      <g>
       <use style="stroke:#000000;stroke-width:0.8;" x="200.448" xlink:href="#m984888d952" y="307.584"/>
      </g>
     </g>
     <g id="text_3">
      <!-- 530 -->
      <g transform="translate(188.9955 323.702125)scale(0.12 -0.12)">
       <defs>
        <path d="M 40.578125 39.3125 
Q 47.65625 37.796875 51.625 33 
Q 55.609375 28.21875 55.609375 21.1875 
Q 55.609375 10.40625 48.1875 4.484375 
Q 40.765625 -1.421875 27.09375 -1.421875 
Q 22.515625 -1.421875 17.65625 -0.515625 
Q 12.796875 0.390625 7.625 2.203125 
L 7.625 11.71875 
Q 11.71875 9.328125 16.59375 8.109375 
Q 21.484375 6.890625 26.8125 6.890625 
Q 36.078125 6.890625 40.9375 10.546875 
Q 45.796875 14.203125 45.796875 21.1875 
Q 45.796875 27.640625 41.28125 31.265625 
Q 36.765625 34.90625 28.71875 34.90625 
L 20.21875 34.90625 
L 20.21875 43.015625 
L 29.109375 43.015625 
Q 36.375 43.015625 40.234375 45.921875 
Q 44.09375 48.828125 44.09375 54.296875 
Q 44.09375 59.90625 40.109375 62.90625 
Q 36.140625 65.921875 28.71875 65.921875 
Q 24.65625 65.921875 20.015625 65.03125 
Q 15.375 64.15625 9.8125 62.3125 
L 9.8125 71.09375 
Q 15.4375 72.65625 20.34375 73.4375 
Q 25.25 74.21875 29.59375 74.21875 
Q 40.828125 74.21875 47.359375 69.109375 
Q 53.90625 64.015625 53.90625 55.328125 
Q 53.90625 49.265625 50.4375 45.09375 
Q 46.96875 40.921875 40.578125 39.3125 
z
" id="DejaVuSans-51"/>
       </defs>
       <use xlink:href="#DejaVuSans-53"/>
       <use x="63.623047" xlink:href="#DejaVuSans-51"/>
       <use x="127.246094" xlink:href="#DejaVuSans-48"/>
      </g>
     </g>
    </g>
    <g id="xtick_4">
     <g id="line2d_4">
      <g>
       <use style="stroke:#000000;stroke-width:0.8;" x="135.517091" xlink:href="#m984888d952" y="307.584"/>
      </g>
     </g>
     <g id="text_4">
      <!-- 535 -->
      <g transform="translate(124.064591 323.702125)scale(0.12 -0.12)">
       <use xlink:href="#DejaVuSans-53"/>
       <use x="63.623047" xlink:href="#DejaVuSans-51"/>
       <use x="127.246094" xlink:href="#DejaVuSans-53"/>
      </g>
     </g>
    </g>
    <g id="xtick_5">
     <g id="line2d_5">
      <g>
       <use style="stroke:#000000;stroke-width:0.8;" x="70.586182" xlink:href="#m984888d952" y="307.584"/>
      </g>
     </g>
     <g id="text_5">
      <!-- 540 -->
      <g transform="translate(59.133682 323.702125)scale(0.12 -0.12)">
       <defs>
        <path d="M 37.796875 64.3125 
L 12.890625 25.390625 
L 37.796875 25.390625 
z
M 35.203125 72.90625 
L 47.609375 72.90625 
L 47.609375 25.390625 
L 58.015625 25.390625 
L 58.015625 17.1875 
L 47.609375 17.1875 
L 47.609375 0 
L 37.796875 0 
L 37.796875 17.1875 
L 4.890625 17.1875 
L 4.890625 26.703125 
z
" id="DejaVuSans-52"/>
       </defs>
       <use xlink:href="#DejaVuSans-53"/>
       <use x="63.623047" xlink:href="#DejaVuSans-52"/>
       <use x="127.246094" xlink:href="#DejaVuSans-48"/>
      </g>
     </g>
    </g>
    <g id="text_6">
     <!-- Binding Energy [eV] -->
     <g transform="translate(130.479719 340.835562)scale(0.14 -0.14)">
      <defs>
       <path d="M 19.671875 34.8125 
L 19.671875 8.109375 
L 35.5 8.109375 
Q 43.453125 8.109375 47.28125 11.40625 
Q 51.125 14.703125 51.125 21.484375 
Q 51.125 28.328125 47.28125 31.5625 
Q 43.453125 34.8125 35.5 34.8125 
z
M 19.671875 64.796875 
L 19.671875 42.828125 
L 34.28125 42.828125 
Q 41.5 42.828125 45.03125 45.53125 
Q 48.578125 48.25 48.578125 53.8125 
Q 48.578125 59.328125 45.03125 62.0625 
Q 41.5 64.796875 34.28125 64.796875 
z
M 9.8125 72.90625 
L 35.015625 72.90625 
Q 46.296875 72.90625 52.390625 68.21875 
Q 58.5 63.53125 58.5 54.890625 
Q 58.5 48.1875 55.375 44.234375 
Q 52.25 40.28125 46.1875 39.3125 
Q 53.46875 37.75 57.5 32.78125 
Q 61.53125 27.828125 61.53125 20.40625 
Q 61.53125 10.640625 54.890625 5.3125 
Q 48.25 0 35.984375 0 
L 9.8125 0 
z
" id="DejaVuSans-66"/>
       <path d="M 9.421875 54.6875 
L 18.40625 54.6875 
L 18.40625 0 
L 9.421875 0 
z
M 9.421875 75.984375 
L 18.40625 75.984375 
L 18.40625 64.59375 
L 9.421875 64.59375 
z
" id="DejaVuSans-105"/>
       <path d="M 54.890625 33.015625 
L 54.890625 0 
L 45.90625 0 
L 45.90625 32.71875 
Q 45.90625 40.484375 42.875 44.328125 
Q 39.84375 48.1875 33.796875 48.1875 
Q 26.515625 48.1875 22.3125 43.546875 
Q 18.109375 38.921875 18.109375 30.90625 
L 18.109375 0 
L 9.078125 0 
L 9.078125 54.6875 
L 18.109375 54.6875 
L 18.109375 46.1875 
Q 21.34375 51.125 25.703125 53.5625 
Q 30.078125 56 35.796875 56 
Q 45.21875 56 50.046875 50.171875 
Q 54.890625 44.34375 54.890625 33.015625 
z
" id="DejaVuSans-110"/>
       <path d="M 45.40625 46.390625 
L 45.40625 75.984375 
L 54.390625 75.984375 
L 54.390625 0 
L 45.40625 0 
L 45.40625 8.203125 
Q 42.578125 3.328125 38.25 0.953125 
Q 33.9375 -1.421875 27.875 -1.421875 
Q 17.96875 -1.421875 11.734375 6.484375 
Q 5.515625 14.40625 5.515625 27.296875 
Q 5.515625 40.1875 11.734375 48.09375 
Q 17.96875 56 27.875 56 
Q 33.9375 56 38.25 53.625 
Q 42.578125 51.265625 45.40625 46.390625 
z
M 14.796875 27.296875 
Q 14.796875 17.390625 18.875 11.75 
Q 22.953125 6.109375 30.078125 6.109375 
Q 37.203125 6.109375 41.296875 11.75 
Q 45.40625 17.390625 45.40625 27.296875 
Q 45.40625 37.203125 41.296875 42.84375 
Q 37.203125 48.484375 30.078125 48.484375 
Q 22.953125 48.484375 18.875 42.84375 
Q 14.796875 37.203125 14.796875 27.296875 
z
" id="DejaVuSans-100"/>
       <path d="M 45.40625 27.984375 
Q 45.40625 37.75 41.375 43.109375 
Q 37.359375 48.484375 30.078125 48.484375 
Q 22.859375 48.484375 18.828125 43.109375 
Q 14.796875 37.75 14.796875 27.984375 
Q 14.796875 18.265625 18.828125 12.890625 
Q 22.859375 7.515625 30.078125 7.515625 
Q 37.359375 7.515625 41.375 12.890625 
Q 45.40625 18.265625 45.40625 27.984375 
z
M 54.390625 6.78125 
Q 54.390625 -7.171875 48.1875 -13.984375 
Q 42 -20.796875 29.203125 -20.796875 
Q 24.46875 -20.796875 20.265625 -20.09375 
Q 16.0625 -19.390625 12.109375 -17.921875 
L 12.109375 -9.1875 
Q 16.0625 -11.328125 19.921875 -12.34375 
Q 23.78125 -13.375 27.78125 -13.375 
Q 36.625 -13.375 41.015625 -8.765625 
Q 45.40625 -4.15625 45.40625 5.171875 
L 45.40625 9.625 
Q 42.625 4.78125 38.28125 2.390625 
Q 33.9375 0 27.875 0 
Q 17.828125 0 11.671875 7.65625 
Q 5.515625 15.328125 5.515625 27.984375 
Q 5.515625 40.671875 11.671875 48.328125 
Q 17.828125 56 27.875 56 
Q 33.9375 56 38.28125 53.609375 
Q 42.625 51.21875 45.40625 46.390625 
L 45.40625 54.6875 
L 54.390625 54.6875 
z
" id="DejaVuSans-103"/>
       <path id="DejaVuSans-32"/>
       <path d="M 9.8125 72.90625 
L 55.90625 72.90625 
L 55.90625 64.59375 
L 19.671875 64.59375 
L 19.671875 43.015625 
L 54.390625 43.015625 
L 54.390625 34.71875 
L 19.671875 34.71875 
L 19.671875 8.296875 
L 56.78125 8.296875 
L 56.78125 0 
L 9.8125 0 
z
" id="DejaVuSans-69"/>
       <path d="M 56.203125 29.59375 
L 56.203125 25.203125 
L 14.890625 25.203125 
Q 15.484375 15.921875 20.484375 11.0625 
Q 25.484375 6.203125 34.421875 6.203125 
Q 39.59375 6.203125 44.453125 7.46875 
Q 49.3125 8.734375 54.109375 11.28125 
L 54.109375 2.78125 
Q 49.265625 0.734375 44.1875 -0.34375 
Q 39.109375 -1.421875 33.890625 -1.421875 
Q 20.796875 -1.421875 13.15625 6.1875 
Q 5.515625 13.8125 5.515625 26.8125 
Q 5.515625 40.234375 12.765625 48.109375 
Q 20.015625 56 32.328125 56 
Q 43.359375 56 49.78125 48.890625 
Q 56.203125 41.796875 56.203125 29.59375 
z
M 47.21875 32.234375 
Q 47.125 39.59375 43.09375 43.984375 
Q 39.0625 48.390625 32.421875 48.390625 
Q 24.90625 48.390625 20.390625 44.140625 
Q 15.875 39.890625 15.1875 32.171875 
z
" id="DejaVuSans-101"/>
       <path d="M 41.109375 46.296875 
Q 39.59375 47.171875 37.8125 47.578125 
Q 36.03125 48 33.890625 48 
Q 26.265625 48 22.1875 43.046875 
Q 18.109375 38.09375 18.109375 28.8125 
L 18.109375 0 
L 9.078125 0 
L 9.078125 54.6875 
L 18.109375 54.6875 
L 18.109375 46.1875 
Q 20.953125 51.171875 25.484375 53.578125 
Q 30.03125 56 36.53125 56 
Q 37.453125 56 38.578125 55.875 
Q 39.703125 55.765625 41.0625 55.515625 
z
" id="DejaVuSans-114"/>
       <path d="M 32.171875 -5.078125 
Q 28.375 -14.84375 24.75 -17.8125 
Q 21.140625 -20.796875 15.09375 -20.796875 
L 7.90625 -20.796875 
L 7.90625 -13.28125 
L 13.1875 -13.28125 
Q 16.890625 -13.28125 18.9375 -11.515625 
Q 21 -9.765625 23.484375 -3.21875 
L 25.09375 0.875 
L 2.984375 54.6875 
L 12.5 54.6875 
L 29.59375 11.921875 
L 46.6875 54.6875 
L 56.203125 54.6875 
z
" id="DejaVuSans-121"/>
       <path d="M 8.59375 75.984375 
L 29.296875 75.984375 
L 29.296875 69 
L 17.578125 69 
L 17.578125 -6.203125 
L 29.296875 -6.203125 
L 29.296875 -13.1875 
L 8.59375 -13.1875 
z
" id="DejaVuSans-91"/>
       <path d="M 28.609375 0 
L 0.78125 72.90625 
L 11.078125 72.90625 
L 34.1875 11.53125 
L 57.328125 72.90625 
L 67.578125 72.90625 
L 39.796875 0 
z
" id="DejaVuSans-86"/>
       <path d="M 30.421875 75.984375 
L 30.421875 -13.1875 
L 9.71875 -13.1875 
L 9.71875 -6.203125 
L 21.390625 -6.203125 
L 21.390625 69 
L 9.71875 69 
L 9.71875 75.984375 
z
" id="DejaVuSans-93"/>
      </defs>
      <use xlink:href="#DejaVuSans-66"/>
      <use x="68.603516" xlink:href="#DejaVuSans-105"/>
      <use x="96.386719" xlink:href="#DejaVuSans-110"/>
      <use x="159.765625" xlink:href="#DejaVuSans-100"/>
      <use x="223.242188" xlink:href="#DejaVuSans-105"/>
      <use x="251.025391" xlink:href="#DejaVuSans-110"/>
      <use x="314.404297" xlink:href="#DejaVuSans-103"/>
      <use x="377.880859" xlink:href="#DejaVuSans-32"/>
      <use x="409.667969" xlink:href="#DejaVuSans-69"/>
      <use x="472.851562" xlink:href="#DejaVuSans-110"/>
      <use x="536.230469" xlink:href="#DejaVuSans-101"/>
      <use x="597.753906" xlink:href="#DejaVuSans-114"/>
      <use x="637.117188" xlink:href="#DejaVuSans-103"/>
      <use x="700.59375" xlink:href="#DejaVuSans-121"/>
      <use x="759.773438" xlink:href="#DejaVuSans-32"/>
      <use x="791.560547" xlink:href="#DejaVuSans-91"/>
      <use x="830.574219" xlink:href="#DejaVuSans-101"/>
      <use x="892.097656" xlink:href="#DejaVuSans-86"/>
      <use x="960.505859" xlink:href="#DejaVuSans-93"/>
     </g>
    </g>
   </g>
   <g id="matplotlib.axis_2">
    <g id="ytick_1"/>
    <g id="ytick_2"/>
    <g id="ytick_3"/>
    <g id="ytick_4"/>
    <g id="ytick_5"/>
    <g id="ytick_6"/>
    <g id="ytick_7"/>
    <g id="ytick_8"/>
    <g id="text_7">
     <!-- Intensity [a.u.] -->
     <g transform="translate(50.688437 225.857687)rotate(-90)scale(0.14 -0.14)">
      <defs>
       <path d="M 9.8125 72.90625 
L 19.671875 72.90625 
L 19.671875 0 
L 9.8125 0 
z
" id="DejaVuSans-73"/>
       <path d="M 18.3125 70.21875 
L 18.3125 54.6875 
L 36.8125 54.6875 
L 36.8125 47.703125 
L 18.3125 47.703125 
L 18.3125 18.015625 
Q 18.3125 11.328125 20.140625 9.421875 
Q 21.96875 7.515625 27.59375 7.515625 
L 36.8125 7.515625 
L 36.8125 0 
L 27.59375 0 
Q 17.1875 0 13.234375 3.875 
Q 9.28125 7.765625 9.28125 18.015625 
L 9.28125 47.703125 
L 2.6875 47.703125 
L 2.6875 54.6875 
L 9.28125 54.6875 
L 9.28125 70.21875 
z
" id="DejaVuSans-116"/>
       <path d="M 44.28125 53.078125 
L 44.28125 44.578125 
Q 40.484375 46.53125 36.375 47.5 
Q 32.28125 48.484375 27.875 48.484375 
Q 21.1875 48.484375 17.84375 46.4375 
Q 14.5 44.390625 14.5 40.28125 
Q 14.5 37.15625 16.890625 35.375 
Q 19.28125 33.59375 26.515625 31.984375 
L 29.59375 31.296875 
Q 39.15625 29.25 43.1875 25.515625 
Q 47.21875 21.78125 47.21875 15.09375 
Q 47.21875 7.46875 41.1875 3.015625 
Q 35.15625 -1.421875 24.609375 -1.421875 
Q 20.21875 -1.421875 15.453125 -0.5625 
Q 10.6875 0.296875 5.421875 2 
L 5.421875 11.28125 
Q 10.40625 8.6875 15.234375 7.390625 
Q 20.0625 6.109375 24.8125 6.109375 
Q 31.15625 6.109375 34.5625 8.28125 
Q 37.984375 10.453125 37.984375 14.40625 
Q 37.984375 18.0625 35.515625 20.015625 
Q 33.0625 21.96875 24.703125 23.78125 
L 21.578125 24.515625 
Q 13.234375 26.265625 9.515625 29.90625 
Q 5.8125 33.546875 5.8125 39.890625 
Q 5.8125 47.609375 11.28125 51.796875 
Q 16.75 56 26.8125 56 
Q 31.78125 56 36.171875 55.265625 
Q 40.578125 54.546875 44.28125 53.078125 
z
" id="DejaVuSans-115"/>
       <path d="M 34.28125 27.484375 
Q 23.390625 27.484375 19.1875 25 
Q 14.984375 22.515625 14.984375 16.5 
Q 14.984375 11.71875 18.140625 8.90625 
Q 21.296875 6.109375 26.703125 6.109375 
Q 34.1875 6.109375 38.703125 11.40625 
Q 43.21875 16.703125 43.21875 25.484375 
L 43.21875 27.484375 
z
M 52.203125 31.203125 
L 52.203125 0 
L 43.21875 0 
L 43.21875 8.296875 
Q 40.140625 3.328125 35.546875 0.953125 
Q 30.953125 -1.421875 24.3125 -1.421875 
Q 15.921875 -1.421875 10.953125 3.296875 
Q 6 8.015625 6 15.921875 
Q 6 25.140625 12.171875 29.828125 
Q 18.359375 34.515625 30.609375 34.515625 
L 43.21875 34.515625 
L 43.21875 35.40625 
Q 43.21875 41.609375 39.140625 45 
Q 35.0625 48.390625 27.6875 48.390625 
Q 23 48.390625 18.546875 47.265625 
Q 14.109375 46.140625 10.015625 43.890625 
L 10.015625 52.203125 
Q 14.9375 54.109375 19.578125 55.046875 
Q 24.21875 56 28.609375 56 
Q 40.484375 56 46.34375 49.84375 
Q 52.203125 43.703125 52.203125 31.203125 
z
" id="DejaVuSans-97"/>
       <path d="M 10.6875 12.40625 
L 21 12.40625 
L 21 0 
L 10.6875 0 
z
" id="DejaVuSans-46"/>
       <path d="M 8.5 21.578125 
L 8.5 54.6875 
L 17.484375 54.6875 
L 17.484375 21.921875 
Q 17.484375 14.15625 20.5 10.265625 
Q 23.53125 6.390625 29.59375 6.390625 
Q 36.859375 6.390625 41.078125 11.03125 
Q 45.3125 15.671875 45.3125 23.6875 
L 45.3125 54.6875 
L 54.296875 54.6875 
L 54.296875 0 
L 45.3125 0 
L 45.3125 8.40625 
Q 42.046875 3.421875 37.71875 1 
Q 33.40625 -1.421875 27.6875 -1.421875 
Q 18.265625 -1.421875 13.375 4.4375 
Q 8.5 10.296875 8.5 21.578125 
z
M 31.109375 56 
z
" id="DejaVuSans-117"/>
      </defs>
      <use xlink:href="#DejaVuSans-73"/>
      <use x="29.492188" xlink:href="#DejaVuSans-110"/>
      <use x="92.871094" xlink:href="#DejaVuSans-116"/>
      <use x="132.080078" xlink:href="#DejaVuSans-101"/>
      <use x="193.603516" xlink:href="#DejaVuSans-110"/>
      <use x="256.982422" xlink:href="#DejaVuSans-115"/>
      <use x="309.082031" xlink:href="#DejaVuSans-105"/>
      <use x="336.865234" xlink:href="#DejaVuSans-116"/>
      <use x="376.074219" xlink:href="#DejaVuSans-121"/>
      <use x="435.253906" xlink:href="#DejaVuSans-32"/>
      <use x="467.041016" xlink:href="#DejaVuSans-91"/>
      <use x="506.054688" xlink:href="#DejaVuSans-97"/>
      <use x="567.333984" xlink:href="#DejaVuSans-46"/>
      <use x="599.121094" xlink:href="#DejaVuSans-117"/>
      <use x="662.5" xlink:href="#DejaVuSans-46"/>
      <use x="694.287109" xlink:href="#DejaVuSans-93"/>
     </g>
    </g>
   </g>
   <g id="line2d_6">
    <path clip-path="url(#pd3f64cb829)" d="M 70.586182 92.422892 
L 75.780655 91.933899 
L 80.975127 92.629712 
L 86.1696 92.086208 
L 91.364073 92.398843 
L 96.558545 92.273789 
L 101.753018 92.652157 
L 106.947491 92.252947 
L 112.141964 92.830119 
L 117.336436 92.557565 
L 122.530909 92.73713 
L 127.725382 92.624902 
L 132.919855 92.860581 
L 138.114327 93.121911 
L 143.3088 92.847755 
L 148.503273 93.006477 
L 153.697745 92.866994 
L 158.892218 92.857374 
L 164.086691 92.892646 
L 169.281164 92.799657 
L 174.475636 92.386017 
L 179.670109 92.103844 
L 184.864582 91.127462 
L 190.059055 89.997167 
L 195.253527 87.997907 
L 200.448 84.764141 
L 205.642473 79.361171 
L 210.836945 72.039104 
L 216.031418 61.742999 
L 221.225891 53.568 
L 226.420364 54.839381 
L 231.614836 66.58002 
L 236.809309 80.368015 
L 242.003782 87.576251 
L 247.198255 91.223657 
L 252.392727 92.39243 
L 257.5872 93.245362 
L 262.781673 93.468214 
L 267.976145 93.83536 
L 273.170618 93.869028 
L 278.365091 94.167234 
L 283.559564 94.374054 
L 288.754036 94.438184 
L 293.948509 94.481472 
L 299.142982 94.670656 
L 304.337455 94.481472 
L 309.531927 94.439787 
L 314.7264 94.430167 
L 319.920873 94.314733 
L 325.115345 94.500711 
L 330.309818 94.635384 
" style="fill:none;stroke:#4e5f69;stroke-linecap:square;stroke-width:1.5;"/>
   </g>
   <g id="line2d_7">
    <path clip-path="url(#pd3f64cb829)" d="M 70.586182 100.912129 
L 75.780655 100.261207 
L 80.975127 100.689276 
L 86.1696 100.591478 
L 91.364073 100.796694 
L 96.558545 100.631559 
L 101.753018 100.81914 
L 106.947491 101.01153 
L 112.141964 100.896096 
L 117.336436 100.987482 
L 122.530909 100.662021 
L 127.725382 100.865634 
L 132.919855 101.066041 
L 138.114327 100.636369 
L 143.3088 101.062835 
L 148.503273 101.096503 
L 153.697745 100.700499 
L 158.892218 100.955417 
L 164.086691 100.875254 
L 169.281164 101.110932 
L 174.475636 100.399087 
L 179.670109 100.113707 
L 184.864582 99.85879 
L 190.059055 98.289203 
L 195.253527 96.355677 
L 200.448 92.339523 
L 205.642473 87.707718 
L 210.836945 79.675409 
L 216.031418 68.915963 
L 221.225891 61.460826 
L 226.420364 63.16188 
L 231.614836 74.4504 
L 236.809309 87.239568 
L 242.003782 95.871494 
L 247.198255 99.066782 
L 252.392727 100.831966 
L 257.5872 101.046802 
L 262.781673 101.625577 
L 267.976145 101.850033 
L 273.170618 102.021581 
L 278.365091 102.624405 
L 283.559564 102.036011 
L 288.754036 102.223591 
L 293.948509 102.063266 
L 299.142982 102.557069 
L 304.337455 103.058887 
L 309.531927 102.300548 
L 314.7264 102.549052 
L 319.920873 102.388727 
L 325.115345 102.842448 
L 330.309818 102.571498 
" style="fill:none;stroke:#51636e;stroke-linecap:square;stroke-width:1.5;"/>
   </g>
   <g id="line2d_8">
    <path clip-path="url(#pd3f64cb829)" d="M 70.586182 108.383298 
L 75.780655 108.711966 
L 80.975127 108.654248 
L 86.1696 108.711966 
L 91.364073 108.952454 
L 96.558545 108.936421 
L 101.753018 108.790525 
L 106.947491 108.74884 
L 112.141964 108.973296 
L 117.336436 109.051856 
L 122.530909 109.111176 
L 127.725382 108.657455 
L 132.919855 109.037426 
L 138.114327 108.516368 
L 143.3088 109.220198 
L 148.503273 108.848242 
L 153.697745 108.909166 
L 158.892218 109.138431 
L 164.086691 109.066285 
L 169.281164 108.56126 
L 174.475636 108.687917 
L 179.670109 108.394521 
L 184.864582 107.214525 
L 190.059055 106.225317 
L 195.253527 103.910216 
L 200.448 100.53376 
L 205.642473 94.99772 
L 210.836945 87.244377 
L 216.031418 77.68096 
L 221.225891 69.329603 
L 226.420364 70.732451 
L 231.614836 82.647844 
L 236.809309 96.246656 
L 242.003782 103.939075 
L 247.198255 107.028548 
L 252.392727 108.242212 
L 257.5872 109.399762 
L 262.781673 109.149654 
L 267.976145 110.079542 
L 273.170618 110.111607 
L 278.365091 110.049081 
L 283.559564 110.316824 
L 288.754036 110.279949 
L 293.948509 110.461117 
L 299.142982 110.478753 
L 304.337455 110.818643 
L 309.531927 111.116849 
L 314.7264 110.796197 
L 319.920873 110.6006 
L 325.115345 110.552503 
L 330.309818 110.970952 
" style="fill:none;stroke:#546772;stroke-linecap:square;stroke-width:1.5;"/>
   </g>
   <g id="line2d_9">
    <path clip-path="url(#pd3f64cb829)" d="M 70.586182 116.745878 
L 75.780655 116.203978 
L 80.975127 116.923839 
L 86.1696 116.521422 
L 91.364073 116.739465 
L 96.558545 116.763514 
L 101.753018 116.611204 
L 106.947491 116.987969 
L 112.141964 116.643269 
L 117.336436 116.763514 
L 122.530909 116.9046 
L 127.725382 117.202806 
L 132.919855 117.560332 
L 138.114327 117.103404 
L 143.3088 117.169137 
L 148.503273 116.858106 
L 153.697745 117.23968 
L 158.892218 117.015225 
L 164.086691 117.31824 
L 169.281164 117.010415 
L 174.475636 116.590362 
L 179.670109 116.042049 
L 184.864582 115.597947 
L 190.059055 113.741377 
L 195.253527 112.187823 
L 200.448 108.529194 
L 205.642473 103.163099 
L 210.836945 95.307148 
L 216.031418 84.985391 
L 221.225891 77.664927 
L 226.420364 79.471796 
L 231.614836 91.669362 
L 236.809309 104.323856 
L 242.003782 112.300051 
L 247.198255 115.234008 
L 252.392727 115.886533 
L 257.5872 117.247697 
L 262.781673 117.25411 
L 267.976145 117.834488 
L 273.170618 118.190411 
L 278.365091 118.605654 
L 283.559564 118.336307 
L 288.754036 118.68261 
L 293.948509 118.75636 
L 299.142982 118.876604 
L 304.337455 118.546334 
L 309.531927 118.951957 
L 314.7264 118.892637 
L 319.920873 118.773996 
L 325.115345 118.689023 
L 330.309818 118.908669 
" style="fill:none;stroke:#586b76;stroke-linecap:square;stroke-width:1.5;"/>
   </g>
   <g id="line2d_10">
    <path clip-path="url(#pd3f64cb829)" d="M 70.586182 124.750931 
L 75.780655 124.757345 
L 80.975127 124.968974 
L 86.1696 124.621068 
L 91.364073 124.758948 
L 96.558545 124.717263 
L 101.753018 124.965768 
L 106.947491 125.126093 
L 112.141964 124.576177 
L 117.336436 125.169381 
L 122.530909 124.520063 
L 127.725382 125.225495 
L 132.919855 124.616258 
L 138.114327 124.888811 
L 143.3088 124.842317 
L 148.503273 125.06517 
L 153.697745 125.236718 
L 158.892218 124.959355 
L 164.086691 125.034708 
L 169.281164 125.494842 
L 174.475636 124.324466 
L 179.670109 124.401422 
L 184.864582 123.639876 
L 190.059055 122.1745 
L 195.253527 119.527526 
L 200.448 116.43164 
L 205.642473 110.852311 
L 210.836945 102.965899 
L 216.031418 91.908247 
L 221.225891 84.709631 
L 226.420364 88.113342 
L 231.614836 100.022322 
L 236.809309 113.120918 
L 242.003782 119.768014 
L 247.198255 122.93765 
L 252.392727 124.494411 
L 257.5872 125.501255 
L 262.781673 126.068807 
L 267.976145 125.919705 
L 273.170618 126.031932 
L 278.365091 126.395871 
L 283.559564 126.306089 
L 288.754036 126.407094 
L 293.948509 126.660409 
L 299.142982 126.831957 
L 304.337455 126.809511 
L 309.531927 126.326931 
L 314.7264 126.820734 
L 319.920873 126.426333 
L 325.115345 126.676441 
L 330.309818 126.745381 
" style="fill:none;stroke:#5b6f7b;stroke-linecap:square;stroke-width:1.5;"/>
   </g>
   <g id="line2d_11">
    <path clip-path="url(#pd3f64cb829)" d="M 70.586182 133.150386 
L 75.780655 133.038158 
L 80.975127 132.977234 
L 86.1696 132.754382 
L 91.364073 132.651774 
L 96.558545 132.836148 
L 101.753018 132.791257 
L 106.947491 132.831338 
L 112.141964 133.273837 
L 117.336436 133.091065 
L 122.530909 132.92112 
L 127.725382 133.430956 
L 132.919855 133.169625 
L 138.114327 133.363619 
L 143.3088 132.813702 
L 148.503273 132.85699 
L 153.697745 133.055794 
L 158.892218 133.116718 
L 164.086691 133.764433 
L 169.281164 133.075033 
L 174.475636 132.541149 
L 179.670109 132.608486 
L 184.864582 131.657755 
L 190.059055 130.355912 
L 195.253527 127.79391 
L 200.448 124.614655 
L 205.642473 118.652148 
L 210.836945 110.392177 
L 216.031418 100.230745 
L 221.225891 92.708271 
L 226.420364 95.428996 
L 231.614836 108.170065 
L 236.809309 120.875863 
L 242.003782 128.353446 
L 247.198255 131.693027 
L 252.392727 132.927533 
L 257.5872 133.511118 
L 262.781673 133.741987 
L 267.976145 134.089894 
L 273.170618 133.934378 
L 278.365091 134.283887 
L 283.559564 134.219757 
L 288.754036 134.460245 
L 293.948509 134.493914 
L 299.142982 134.976494 
L 304.337455 134.593316 
L 309.531927 134.731196 
L 314.7264 134.553234 
L 319.920873 134.819375 
L 325.115345 134.857853 
L 330.309818 134.90595 
" style="fill:none;stroke:#5e7380;stroke-linecap:square;stroke-width:1.5;"/>
   </g>
   <g id="line2d_12">
    <path clip-path="url(#pd3f64cb829)" d="M 70.586182 140.66324 
L 75.780655 140.443594 
L 80.975127 140.72737 
L 86.1696 141.197124 
L 91.364073 141.280493 
L 96.558545 141.326988 
L 101.753018 141.201934 
L 106.947491 141.177885 
L 112.141964 141.161853 
L 117.336436 141.306146 
L 122.530909 141.229189 
L 127.725382 141.463265 
L 132.919855 141.286907 
L 138.114327 141.198727 
L 143.3088 140.975875 
L 148.503273 141.282097 
L 153.697745 141.044815 
L 158.892218 141.112152 
L 164.086691 141.108945 
L 169.281164 140.871663 
L 174.475636 141.149027 
L 179.670109 140.435578 
L 184.864582 139.093653 
L 190.059055 138.67841 
L 195.253527 136.342467 
L 200.448 132.754382 
L 205.642473 126.674838 
L 210.836945 118.668181 
L 216.031418 107.679469 
L 221.225891 100.993895 
L 226.420364 103.320218 
L 231.614836 116.710606 
L 236.809309 128.888933 
L 242.003782 136.185348 
L 247.198255 139.468815 
L 252.392727 141.056038 
L 257.5872 141.612367 
L 262.781673 141.966687 
L 267.976145 141.952257 
L 273.170618 142.458886 
L 278.365091 142.591956 
L 283.559564 142.673722 
L 288.754036 142.457283 
L 293.948509 142.86451 
L 299.142982 142.750679 
L 304.337455 142.720217 
L 309.531927 142.922227 
L 314.7264 142.611195 
L 319.920873 142.707391 
L 325.115345 142.627228 
L 330.309818 142.890162 
" style="fill:none;stroke:#617784;stroke-linecap:square;stroke-width:1.5;"/>
   </g>
   <g id="line2d_13">
    <path clip-path="url(#pd3f64cb829)" d="M 70.586182 148.759679 
L 75.780655 148.669897 
L 80.975127 148.857478 
L 86.1696 148.982532 
L 91.364073 149.186145 
L 96.558545 148.984135 
L 101.753018 148.804571 
L 106.947491 149.0162 
L 112.141964 148.81419 
L 117.336436 149.064298 
L 122.530909 148.998564 
L 127.725382 149.314406 
L 132.919855 149.332042 
L 138.114327 149.253482 
L 143.3088 148.944054 
L 148.503273 149.468318 
L 153.697745 149.261498 
L 158.892218 149.477938 
L 164.086691 149.205384 
L 169.281164 149.118809 
L 174.475636 149.01139 
L 179.670109 148.108758 
L 184.864582 147.881096 
L 190.059055 146.245775 
L 195.253527 144.195212 
L 200.448 141.121771 
L 205.642473 135.109564 
L 210.836945 126.657202 
L 216.031418 116.280934 
L 221.225891 108.489113 
L 226.420364 111.467961 
L 231.614836 124.50403 
L 236.809309 137.060726 
L 242.003782 144.392412 
L 247.198255 147.643814 
L 252.392727 148.61699 
L 257.5872 149.538861 
L 262.781673 150.306821 
L 267.976145 150.080762 
L 273.170618 150.340489 
L 278.365091 150.338886 
L 283.559564 150.701222 
L 288.754036 150.45913 
L 293.948509 150.861547 
L 299.142982 150.972172 
L 304.337455 150.73008 
L 309.531927 150.588994 
L 314.7264 151.209453 
L 319.920873 150.94171 
L 325.115345 150.722064 
L 330.309818 151.130894 
" style="fill:none;stroke:#657b89;stroke-linecap:square;stroke-width:1.5;"/>
   </g>
   <g id="line2d_14">
    <path clip-path="url(#pd3f64cb829)" d="M 70.586182 156.415223 
L 75.780655 156.968346 
L 80.975127 157.133482 
L 86.1696 156.707016 
L 91.364073 157.396416 
L 96.558545 156.848102 
L 101.753018 157.125465 
L 106.947491 156.485767 
L 112.141964 157.091797 
L 117.336436 157.160737 
L 122.530909 157.187992 
L 127.725382 157.410845 
L 132.919855 156.880167 
L 138.114327 157.4381 
L 143.3088 157.208835 
L 148.503273 157.497421 
L 153.697745 157.776387 
L 158.892218 157.119052 
L 164.086691 157.30022 
L 169.281164 157.260139 
L 174.475636 156.599598 
L 179.670109 156.42324 
L 184.864582 155.573514 
L 190.059055 154.366263 
L 195.253527 152.23233 
L 200.448 148.559272 
L 205.642473 143.632469 
L 210.836945 134.349621 
L 216.031418 123.886777 
L 221.225891 117.366338 
L 226.420364 120.349996 
L 231.614836 132.3199 
L 236.809309 145.121893 
L 242.003782 152.617112 
L 247.198255 155.693759 
L 252.392727 157.163944 
L 257.5872 157.951142 
L 262.781673 157.862963 
L 267.976145 158.149946 
L 273.170618 158.698259 
L 278.365091 158.877824 
L 283.559564 158.781628 
L 288.754036 158.999671 
L 293.948509 159.196871 
L 299.142982 158.802471 
L 304.337455 158.994861 
L 309.531927 158.763992 
L 314.7264 158.95478 
L 319.920873 158.788041 
L 325.115345 158.645352 
L 330.309818 158.589238 
" style="fill:none;stroke:#687f8d;stroke-linecap:square;stroke-width:1.5;"/>
   </g>
   <g id="line2d_15">
    <path clip-path="url(#pd3f64cb829)" d="M 70.586182 164.646336 
L 75.780655 165.273209 
L 80.975127 164.893237 
L 86.1696 165.063182 
L 91.364073 164.654352 
L 96.558545 164.902857 
L 101.753018 164.930112 
L 106.947491 165.18503 
L 112.141964 164.731309 
L 117.336436 165.207475 
L 122.530909 164.942938 
L 127.725382 165.311687 
L 132.919855 165.497665 
L 138.114327 165.371007 
L 143.3088 165.59867 
L 148.503273 165.077612 
L 153.697745 165.329323 
L 158.892218 165.404676 
L 164.086691 165.415899 
L 169.281164 165.255573 
L 174.475636 164.433103 
L 179.670109 164.975003 
L 184.864582 163.573758 
L 190.059055 162.953298 
L 195.253527 160.517954 
L 200.448 157.111036 
L 205.642473 151.475594 
L 210.836945 143.189971 
L 216.031418 132.393649 
L 221.225891 125.600657 
L 226.420364 127.883692 
L 231.614836 140.756229 
L 236.809309 153.558222 
L 242.003782 160.609339 
L 247.198255 163.318841 
L 252.392727 165.104867 
L 257.5872 165.467203 
L 262.781673 166.122934 
L 267.976145 166.070027 
L 273.170618 166.438775 
L 278.365091 166.456411 
L 283.559564 166.568639 
L 288.754036 166.265624 
L 293.948509 166.971056 
L 299.142982 166.786682 
L 304.337455 167.112143 
L 309.531927 166.408314 
L 314.7264 166.647199 
L 319.920873 167.051219 
L 325.115345 166.47565 
L 330.309818 167.10092 
" style="fill:none;stroke:#6b8392;stroke-linecap:square;stroke-width:1.5;"/>
   </g>
   <g id="line2d_16">
    <path clip-path="url(#pd3f64cb829)" d="M 70.586182 173.125953 
L 75.780655 172.898291 
L 80.975127 173.302311 
L 86.1696 172.702694 
L 91.364073 172.959215 
L 96.558545 172.832558 
L 101.753018 173.143589 
L 106.947491 172.935166 
L 112.141964 172.962421 
L 117.336436 173.337583 
L 122.530909 173.05541 
L 127.725382 172.988073 
L 132.919855 173.093888 
L 138.114327 173.586088 
L 143.3088 173.499512 
L 148.503273 173.332773 
L 153.697745 173.720761 
L 158.892218 173.614946 
L 164.086691 173.396903 
L 169.281164 173.093888 
L 174.475636 173.023345 
L 179.670109 172.518319 
L 184.864582 171.990849 
L 190.059055 170.486995 
L 195.253527 168.74105 
L 200.448 164.473184 
L 205.642473 159.235349 
L 210.836945 150.268343 
L 216.031418 139.76702 
L 221.225891 132.408079 
L 226.420364 136.61983 
L 231.614836 149.16851 
L 236.809309 161.61939 
L 242.003782 168.514991 
L 247.198255 172.170413 
L 252.392727 172.851797 
L 257.5872 173.796114 
L 262.781673 174.014157 
L 267.976145 174.169672 
L 273.170618 174.381302 
L 278.365091 174.187308 
L 283.559564 174.262661 
L 288.754036 174.536818 
L 293.948509 174.857469 
L 299.142982 174.98092 
L 304.337455 174.960077 
L 309.531927 174.934425 
L 314.7264 175.038637 
L 319.920873 175.287141 
L 325.115345 175.336842 
L 330.309818 175.553282 
" style="fill:none;stroke:#6e8796;stroke-linecap:square;stroke-width:1.5;"/>
   </g>
   <g id="line2d_17">
    <path clip-path="url(#pd3f64cb829)" d="M 70.586182 180.763861 
L 75.780655 180.739813 
L 80.975127 180.943426 
L 86.1696 180.898535 
L 91.364073 181.110165 
L 96.558545 181.110165 
L 101.753018 181.156659 
L 106.947491 181.530217 
L 112.141964 181.223996 
L 117.336436 181.289729 
L 122.530909 181.464484 
L 127.725382 181.020382 
L 132.919855 181.357066 
L 138.114327 181.294539 
L 143.3088 181.321794 
L 148.503273 181.40837 
L 153.697745 181.360272 
L 158.892218 181.276903 
L 164.086691 181.294539 
L 169.281164 181.203153 
L 174.475636 181.215979 
L 179.670109 180.488102 
L 184.864582 180.063239 
L 190.059055 178.827129 
L 195.253527 176.627463 
L 200.448 172.975247 
L 205.642473 167.288501 
L 210.836945 158.706275 
L 216.031418 147.704737 
L 221.225891 140.53017 
L 226.420364 144.296217 
L 231.614836 157.420464 
L 236.809309 169.957921 
L 242.003782 176.653115 
L 247.198255 179.641583 
L 252.392727 181.060464 
L 257.5872 181.834836 
L 262.781673 181.841249 
L 267.976145 182.248476 
L 273.170618 182.581953 
L 278.365091 182.8513 
L 283.559564 182.564317 
L 288.754036 182.655703 
L 293.948509 182.715023 
L 299.142982 182.929859 
L 304.337455 182.99399 
L 309.531927 183.263336 
L 314.7264 183.075756 
L 319.920873 183.317847 
L 325.115345 183.141489 
L 330.309818 183.253717 
" style="fill:none;stroke:#728b9a;stroke-linecap:square;stroke-width:1.5;"/>
   </g>
   <g id="line2d_18">
    <path clip-path="url(#pd3f64cb829)" d="M 70.586182 188.937257 
L 75.780655 188.661497 
L 80.975127 189.036659 
L 86.1696 189.195381 
L 91.364073 189.229049 
L 96.558545 188.80579 
L 101.753018 189.208207 
L 106.947491 189.205001 
L 112.141964 189.161713 
L 117.336436 188.978942 
L 122.530909 189.205001 
L 127.725382 189.445489 
L 132.919855 189.682771 
L 138.114327 189.289973 
L 143.3088 189.503206 
L 148.503273 189.302799 
L 153.697745 189.437473 
L 158.892218 189.387772 
L 164.086691 189.121631 
L 169.281164 189.394185 
L 174.475636 188.860301 
L 179.670109 188.363291 
L 184.864582 188.036227 
L 190.059055 186.692699 
L 195.253527 184.566783 
L 200.448 180.698128 
L 205.642473 175.804993 
L 210.836945 166.058804 
L 216.031418 155.716204 
L 221.225891 148.051041 
L 226.420364 152.357384 
L 231.614836 165.149758 
L 236.809309 177.627894 
L 242.003782 184.276594 
L 247.198255 188.122803 
L 252.392727 189.439076 
L 257.5872 189.615434 
L 262.781673 190.062742 
L 267.976145 190.160541 
L 273.170618 190.686408 
L 278.365091 190.482795 
L 283.559564 190.734506 
L 288.754036 190.322469 
L 293.948509 190.404235 
L 299.142982 190.704044 
L 304.337455 191.108065 
L 309.531927 190.574181 
L 314.7264 191.06157 
L 319.920873 190.78581 
L 325.115345 191.095239 
L 330.309818 190.675186 
" style="fill:none;stroke:#758f9f;stroke-linecap:square;stroke-width:1.5;"/>
   </g>
   <g id="line2d_19">
    <path clip-path="url(#pd3f64cb829)" d="M 70.586182 196.975979 
L 75.780655 197.115462 
L 80.975127 197.234103 
L 86.1696 196.905436 
L 91.364073 196.753126 
L 96.558545 197.054538 
L 101.753018 197.022473 
L 106.947491 196.599214 
L 112.141964 197.081794 
L 117.336436 197.134701 
L 122.530909 197.23731 
L 127.725382 197.048125 
L 132.919855 197.354347 
L 138.114327 197.575596 
L 143.3088 197.152337 
L 148.503273 197.724699 
L 153.697745 197.266168 
L 158.892218 197.642933 
L 164.086691 197.142717 
L 169.281164 197.436113 
L 174.475636 197.104239 
L 179.670109 196.889403 
L 184.864582 195.816825 
L 190.059055 194.583922 
L 195.253527 192.414718 
L 200.448 188.546063 
L 205.642473 183.202413 
L 210.836945 174.83342 
L 216.031418 163.487182 
L 221.225891 156.533864 
L 226.420364 160.80173 
L 231.614836 172.885465 
L 236.809309 185.345965 
L 242.003782 192.369826 
L 247.198255 195.812016 
L 252.392727 197.298233 
L 257.5872 197.50826 
L 262.781673 197.883421 
L 267.976145 198.244154 
L 273.170618 198.10948 
L 278.365091 198.72994 
L 283.559564 199.007303 
L 288.754036 198.460593 
L 293.948509 198.709098 
L 299.142982 199.061814 
L 304.337455 198.975238 
L 309.531927 198.978445 
L 314.7264 199.117928 
L 319.920873 198.819722 
L 325.115345 198.964015 
L 330.309818 198.784451 
" style="fill:none;stroke:#7893a3;stroke-linecap:square;stroke-width:1.5;"/>
   </g>
   <g id="line2d_20">
    <path clip-path="url(#pd3f64cb829)" d="M 70.586182 204.61549 
L 75.780655 204.894457 
L 80.975127 204.96981 
L 86.1696 204.771006 
L 91.364073 205.361004 
L 96.558545 204.928125 
L 101.753018 205.160597 
L 106.947491 205.210298 
L 112.141964 204.982636 
L 117.336436 205.385053 
L 122.530909 205.591873 
L 127.725382 205.37864 
L 132.919855 205.636764 
L 138.114327 205.537362 
L 143.3088 205.59027 
L 148.503273 205.463612 
L 153.697745 205.401085 
L 158.892218 205.567824 
L 164.086691 205.136548 
L 169.281164 205.38345 
L 174.475636 205.250379 
L 179.670109 204.658778 
L 184.864582 203.66476 
L 190.059055 202.70922 
L 195.253527 200.559254 
L 200.448 196.897419 
L 205.642473 191.61309 
L 210.836945 182.814425 
L 216.031418 172.082234 
L 221.225891 165.059976 
L 226.420364 169.040859 
L 231.614836 181.676114 
L 236.809309 193.719767 
L 242.003782 201.027405 
L 247.198255 203.555739 
L 252.392727 205.069212 
L 257.5872 205.697688 
L 262.781673 206.165838 
L 267.976145 206.185077 
L 273.170618 206.257224 
L 278.365091 206.523364 
L 283.559564 206.983498 
L 288.754036 206.693309 
L 293.948509 207.026786 
L 299.142982 207.510969 
L 304.337455 207.057248 
L 309.531927 207.256052 
L 314.7264 207.177492 
L 319.920873 207.07809 
L 325.115345 207.044422 
L 330.309818 207.102139 
" style="fill:none;stroke:#7b98a8;stroke-linecap:square;stroke-width:1.5;"/>
   </g>
   <g id="line2d_21">
    <path clip-path="url(#pd3f64cb829)" d="M 70.586182 212.78087 
L 75.780655 212.785679 
L 80.975127 213.05182 
L 86.1696 212.955624 
L 91.364073 213.159238 
L 96.558545 213.285895 
L 101.753018 212.958831 
L 106.947491 213.261846 
L 112.141964 213.165651 
L 117.336436 213.66747 
L 122.530909 213.495921 
L 127.725382 213.311547 
L 132.919855 214.010566 
L 138.114327 213.729997 
L 143.3088 213.669073 
L 148.503273 213.441411 
L 153.697745 213.814969 
L 158.892218 213.478286 
L 164.086691 213.119156 
L 169.281164 212.928369 
L 174.475636 213.388503 
L 179.670109 212.718343 
L 184.864582 212.088263 
L 190.059055 210.815279 
L 195.253527 208.638058 
L 200.448 204.568996 
L 205.642473 199.855425 
L 210.836945 190.505241 
L 216.031418 179.439573 
L 221.225891 172.114299 
L 226.420364 176.786185 
L 231.614836 189.01261 
L 236.809309 201.793761 
L 242.003782 208.973138 
L 247.198255 211.632939 
L 252.392727 213.159238 
L 257.5872 213.675486 
L 262.781673 213.988121 
L 267.976145 214.305565 
L 273.170618 213.912768 
L 278.365091 214.307169 
L 283.559564 214.993362 
L 288.754036 214.890753 
L 293.948509 214.560483 
L 299.142982 215.139258 
L 304.337455 214.980536 
L 309.531927 215.059095 
L 314.7264 215.196975 
L 319.920873 215.209801 
L 325.115345 215.225834 
L 330.309818 215.296377 
" style="fill:none;stroke:#7e9cac;stroke-linecap:square;stroke-width:1.5;"/>
   </g>
   <g id="line2d_22">
    <path clip-path="url(#pd3f64cb829)" d="M 70.586182 221.138639 
L 75.780655 221.19315 
L 80.975127 221.137036 
L 86.1696 221.319807 
L 91.364073 220.782717 
L 96.558545 221.191547 
L 101.753018 221.385541 
L 106.947491 220.970298 
L 112.141964 220.85326 
L 117.336436 221.760702 
L 122.530909 221.667714 
L 127.725382 221.071303 
L 132.919855 221.696572 
L 138.114327 221.242851 
L 143.3088 221.32141 
L 148.503273 221.502578 
L 153.697745 221.858501 
L 158.892218 221.500975 
L 164.086691 221.505785 
L 169.281164 221.446464 
L 174.475636 221.319807 
L 179.670109 220.446033 
L 184.864582 219.918562 
L 190.059055 218.639164 
L 195.253527 216.458737 
L 200.448 213.019755 
L 205.642473 207.315372 
L 210.836945 198.773228 
L 216.031418 186.917155 
L 221.225891 181.124594 
L 226.420364 184.704663 
L 231.614836 197.290217 
L 236.809309 209.696206 
L 242.003782 216.822676 
L 247.198255 219.936198 
L 252.392727 221.278123 
L 257.5872 221.624426 
L 262.781673 222.270538 
L 267.976145 221.978745 
L 273.170618 222.358717 
L 278.365091 222.661732 
L 283.559564 222.671351 
L 288.754036 222.974367 
L 293.948509 222.927872 
L 299.142982 223.054529 
L 304.337455 222.83809 
L 309.531927 223.291811 
L 314.7264 223.341512 
L 319.920873 223.3848 
L 325.115345 223.137899 
L 330.309818 223.189203 
" style="fill:none;stroke:#82a0b1;stroke-linecap:square;stroke-width:1.5;"/>
   </g>
   <g id="line2d_23">
    <path clip-path="url(#pd3f64cb829)" d="M 70.586182 228.991384 
L 75.780655 228.951302 
L 80.975127 229.156519 
L 86.1696 229.220649 
L 91.364073 229.243095 
L 96.558545 229.166139 
L 101.753018 229.41304 
L 106.947491 229.174155 
L 112.141964 229.158122 
L 117.336436 229.07315 
L 122.530909 229.465947 
L 127.725382 229.154916 
L 132.919855 229.469154 
L 138.114327 229.382578 
L 143.3088 229.584588 
L 148.503273 229.469154 
L 153.697745 229.278366 
L 158.892218 229.393801 
L 164.086691 229.222252 
L 169.281164 229.031465 
L 174.475636 229.116438 
L 179.670109 228.196169 
L 184.864582 228.25549 
L 190.059055 226.578485 
L 195.253527 224.354769 
L 200.448 220.992743 
L 205.642473 215.666729 
L 210.836945 206.311734 
L 216.031418 195.696581 
L 221.225891 188.691959 
L 226.420364 192.765831 
L 231.614836 205.551791 
L 236.809309 217.577809 
L 242.003782 224.568002 
L 247.198255 227.729622 
L 252.392727 228.883966 
L 257.5872 229.547713 
L 262.781673 229.791408 
L 267.976145 230.50646 
L 273.170618 230.387819 
L 278.365091 230.326895 
L 283.559564 231.017898 
L 288.754036 230.961784 
L 293.948509 230.613878 
L 299.142982 230.694041 
L 304.337455 231.413902 
L 309.531927 231.133333 
L 314.7264 230.785426 
L 319.920873 231.162191 
L 325.115345 231.208686 
L 330.309818 230.939339 
" style="fill:none;stroke:#85a4b5;stroke-linecap:square;stroke-width:1.5;"/>
   </g>
   <g id="line2d_24">
    <path clip-path="url(#pd3f64cb829)" d="M 70.586182 237.34755 
L 75.780655 237.228909 
L 80.975127 236.967579 
L 86.1696 237.329914 
L 91.364073 237.010867 
L 96.558545 237.41649 
L 101.753018 237.206464 
L 106.947491 237.318692 
L 112.141964 237.55918 
L 117.336436 237.83013 
L 122.530909 237.48543 
L 127.725382 237.766 
L 132.919855 237.610484 
L 138.114327 237.286627 
L 143.3088 237.664995 
L 148.503273 237.608881 
L 153.697745 237.594452 
L 158.892218 237.714696 
L 164.086691 237.733935 
L 169.281164 237.238529 
L 174.475636 237.334724 
L 179.670109 236.813666 
L 184.864582 236.101821 
L 190.059055 234.723021 
L 195.253527 232.558627 
L 200.448 228.968938 
L 205.642473 223.349528 
L 210.836945 214.387331 
L 216.031418 202.749301 
L 221.225891 196.591198 
L 226.420364 201.062677 
L 231.614836 214.376109 
L 236.809309 225.837781 
L 242.003782 232.946615 
L 247.198255 235.880572 
L 252.392727 237.220893 
L 257.5872 237.842956 
L 262.781673 238.181243 
L 267.976145 238.24377 
L 273.170618 238.364014 
L 278.365091 238.566024 
L 283.559564 238.755208 
L 288.754036 239.107925 
L 293.948509 239.067843 
L 299.142982 239.393304 
L 304.337455 239.128767 
L 309.531927 239.144799 
L 314.7264 239.093495 
L 319.920873 239.370858 
L 325.115345 239.329174 
L 330.309818 239.176865 
" style="fill:none;stroke:#88a8ba;stroke-linecap:square;stroke-width:1.5;"/>
   </g>
   <g id="line2d_25">
    <path clip-path="url(#pd3f64cb829)" d="M 70.586182 244.623123 
L 75.780655 245.08486 
L 80.975127 245.443989 
L 86.1696 244.985458 
L 91.364073 245.339778 
L 96.558545 245.588282 
L 101.753018 245.535375 
L 106.947491 245.323745 
L 112.141964 245.140974 
L 117.336436 245.01592 
L 122.530909 245.359017 
L 127.725382 245.605918 
L 132.919855 245.775863 
L 138.114327 245.633174 
L 143.3088 245.70051 
L 148.503273 245.91214 
L 153.697745 245.908934 
L 158.892218 245.556217 
L 164.086691 245.538582 
L 169.281164 245.671652 
L 174.475636 245.460022 
L 179.670109 244.730541 
L 184.864582 244.127717 
L 190.059055 243.056742 
L 195.253527 240.619794 
L 200.448 236.709455 
L 205.642473 230.961784 
L 210.836945 221.74467 
L 216.031418 211.148756 
L 221.225891 204.738941 
L 226.420364 209.053301 
L 231.614836 222.42445 
L 236.809309 234.137833 
L 242.003782 240.77531 
L 247.198255 244.179021 
L 252.392727 245.047985 
L 257.5872 245.883281 
L 262.781673 246.405943 
L 267.976145 246.179884 
L 273.170618 246.473279 
L 278.365091 246.580697 
L 283.559564 246.617572 
L 288.754036 246.535806 
L 293.948509 246.939827 
L 299.142982 246.834012 
L 304.337455 247.371102 
L 309.531927 247.072897 
L 314.7264 247.023196 
L 319.920873 247.186728 
L 325.115345 247.082516 
L 330.309818 247.156266 
" style="fill:none;stroke:#8bacbe;stroke-linecap:square;stroke-width:1.5;"/>
   </g>
   <g id="line2d_26">
    <path clip-path="url(#pd3f64cb829)" d="M 70.586182 253.17649 
L 75.780655 253.134805 
L 80.975127 253.104343 
L 86.1696 253.405755 
L 91.364073 253.380103 
L 96.558545 253.559668 
L 101.753018 253.239017 
L 106.947491 253.144425 
L 112.141964 253.569287 
L 117.336436 253.630211 
L 122.530909 253.527603 
L 127.725382 253.873906 
L 132.919855 253.806569 
L 138.114327 253.726406 
L 143.3088 253.609369 
L 148.503273 253.910781 
L 153.697745 253.803363 
L 158.892218 253.753662 
L 164.086691 253.433011 
L 169.281164 253.298337 
L 174.475636 252.677877 
L 179.670109 252.96967 
L 184.864582 252.107118 
L 190.059055 251.036144 
L 195.253527 248.743489 
L 200.448 245.075241 
L 205.642473 239.010126 
L 210.836945 229.982195 
L 216.031418 218.820332 
L 221.225891 212.508316 
L 226.420364 217.040719 
L 231.614836 230.43271 
L 236.809309 242.442696 
L 242.003782 249.198813 
L 247.198255 252.227363 
L 252.392727 253.711977 
L 257.5872 253.995753 
L 262.781673 254.386947 
L 267.976145 254.686756 
L 273.170618 254.746077 
L 278.365091 254.598577 
L 283.559564 255.02344 
L 288.754036 254.965723 
L 293.948509 254.831049 
L 299.142982 254.808604 
L 304.337455 254.906402 
L 309.531927 255.616644 
L 314.7264 255.352107 
L 319.920873 255.493194 
L 325.115345 255.004201 
L 330.309818 255.517242 
" style="fill:none;stroke:#8fb0c3;stroke-linecap:square;stroke-width:1.5;"/>
   </g>
   <g id="line2d_27">
    <path clip-path="url(#pd3f64cb829)" d="M 70.586182 261.25369 
L 75.780655 260.613991 
L 80.975127 261.547086 
L 86.1696 261.058093 
L 91.364073 261.330646 
L 96.558545 261.05168 
L 101.753018 261.149478 
L 106.947491 261.293771 
L 112.141964 261.216815 
L 117.336436 261.337059 
L 122.530909 261.555102 
L 127.725382 261.523037 
L 132.919855 261.763525 
L 138.114327 261.665726 
L 143.3088 261.66252 
L 148.503273 261.734666 
L 153.697745 261.904612 
L 158.892218 261.205592 
L 164.086691 262.077763 
L 169.281164 261.380347 
L 174.475636 261.38195 
L 179.670109 260.758284 
L 184.864582 260.112172 
L 190.059055 258.938589 
L 195.253527 256.766178 
L 200.448 252.796518 
L 205.642473 247.042435 
L 210.836945 237.919912 
L 216.031418 227.21177 
L 221.225891 220.963885 
L 226.420364 225.416124 
L 231.614836 238.123526 
L 236.809309 250.558374 
L 242.003782 256.900852 
L 247.198255 260.023993 
L 252.392727 261.117413 
L 257.5872 261.779558 
L 262.781673 261.835672 
L 267.976145 262.359936 
L 273.170618 262.906646 
L 278.365091 262.762353 
L 283.559564 262.430479 
L 288.754036 262.866565 
L 293.948509 262.624473 
L 299.142982 262.961157 
L 304.337455 263.252949 
L 309.531927 262.969173 
L 314.7264 263.286618 
L 319.920873 262.914662 
L 325.115345 263.249743 
L 330.309818 262.836103 
" style="fill:none;stroke:#92b4c8;stroke-linecap:square;stroke-width:1.5;"/>
   </g>
   <g id="line2d_28">
    <path clip-path="url(#pd3f64cb829)" d="M 70.586182 269.34051 
L 75.780655 268.91244 
L 80.975127 269.231488 
L 86.1696 269.45915 
L 91.364073 269.281189 
L 96.558545 269.393417 
L 101.753018 269.419069 
L 106.947491 269.162548 
L 112.141964 269.319667 
L 117.336436 269.471976 
L 122.530909 269.590617 
L 127.725382 269.710861 
L 132.919855 269.540916 
L 138.114327 269.401433 
L 143.3088 269.997844 
L 148.503273 269.318064 
L 153.697745 269.572982 
L 158.892218 269.853551 
L 164.086691 270.044339 
L 169.281164 269.54252 
L 174.475636 269.247521 
L 179.670109 268.970158 
L 184.864582 268.203802 
L 190.059055 266.926007 
L 195.253527 264.53395 
L 200.448 261.009995 
L 205.642473 254.55048 
L 210.836945 245.780673 
L 216.031418 234.54987 
L 221.225891 229.06834 
L 226.420364 232.989902 
L 231.614836 245.83839 
L 236.809309 258.542585 
L 242.003782 265.388485 
L 247.198255 268.136465 
L 252.392727 269.603443 
L 257.5872 269.648335 
L 262.781673 270.567 
L 267.976145 270.70488 
L 273.170618 270.634337 
L 278.365091 270.701673 
L 283.559564 270.982243 
L 288.754036 271.060802 
L 293.948509 270.873222 
L 299.142982 271.546589 
L 304.337455 271.203492 
L 309.531927 271.301291 
L 314.7264 271.662023 
L 319.920873 271.110503 
L 325.115345 271.37504 
L 330.309818 271.064009 
" style="fill:none;stroke:#95b8cc;stroke-linecap:square;stroke-width:1.5;"/>
   </g>
   <g id="line2d_29">
    <path clip-path="url(#pd3f64cb829)" d="M 70.586182 276.893445 
L 75.780655 277.05858 
L 80.975127 277.015293 
L 86.1696 276.962385 
L 91.364073 277.419313 
L 96.558545 277.518715 
L 101.753018 277.376025 
L 106.947491 277.165999 
L 112.141964 277.376025 
L 117.336436 277.788062 
L 122.530909 277.637356 
L 127.725382 277.553986 
L 132.919855 277.898686 
L 138.114327 277.775236 
L 143.3088 277.438552 
L 148.503273 277.711105 
L 153.697745 277.643769 
L 158.892218 278.070235 
L 164.086691 277.443362 
L 169.281164 277.517111 
L 174.475636 277.480237 
L 179.670109 276.721897 
L 184.864582 276.212062 
L 190.059055 274.870137 
L 195.253527 272.295309 
L 200.448 268.957332 
L 205.642473 262.908249 
L 210.836945 253.574097 
L 216.031418 242.856335 
L 221.225891 236.553939 
L 226.420364 241.778948 
L 231.614836 254.803794 
L 236.809309 266.757665 
L 242.003782 272.947834 
L 247.198255 276.123883 
L 252.392727 276.933527 
L 257.5872 277.75279 
L 262.781673 278.36844 
L 267.976145 278.395695 
L 273.170618 278.551211 
L 278.365091 278.754825 
L 283.559564 279.009742 
L 288.754036 279.221372 
L 293.948509 278.767651 
L 299.142982 279.32879 
L 304.337455 279.192513 
L 309.531927 279.224578 
L 314.7264 279.336806 
L 319.920873 279.245421 
L 325.115345 279.545229 
L 330.309818 279.468273 
" style="fill:none;stroke:#98bcd1;stroke-linecap:square;stroke-width:1.5;"/>
   </g>
   <g id="line2d_30">
    <path clip-path="url(#pd3f64cb829)" d="M 70.586182 285.273661 
L 75.780655 285.275264 
L 80.975127 285.591105 
L 86.1696 285.54942 
L 91.364073 285.546214 
L 96.558545 285.284883 
L 101.753018 285.315345 
L 106.947491 285.762653 
L 112.141964 285.398714 
L 117.336436 285.464448 
L 122.530909 285.813958 
L 127.725382 285.171052 
L 132.919855 285.708143 
L 138.114327 285.578279 
L 143.3088 285.660045 
L 148.503273 285.971077 
L 153.697745 285.96306 
L 158.892218 285.690507 
L 164.086691 285.459638 
L 169.281164 285.403524 
L 174.475636 285.259231 
L 179.670109 284.985075 
L 184.864582 283.77141 
L 190.059055 282.724485 
L 195.253527 280.364493 
L 200.448 277.34396 
L 205.642473 270.728929 
L 210.836945 261.930264 
L 216.031418 250.912693 
L 221.225891 243.771794 
L 226.420364 249.200417 
L 231.614836 262.842516 
L 236.809309 274.382747 
L 242.003782 281.023431 
L 247.198255 283.906084 
L 252.392727 285.534991 
L 257.5872 285.70173 
L 262.781673 286.51939 
L 267.976145 286.468086 
L 273.170618 287.133437 
L 278.365091 287.138246 
L 283.559564 286.904171 
L 288.754036 286.965095 
L 293.948509 287.210393 
L 299.142982 287.466914 
L 304.337455 287.68656 
L 309.531927 287.138246 
L 314.7264 287.168708 
L 319.920873 287.26811 
L 325.115345 287.301779 
L 330.309818 287.611207 
" style="fill:none;stroke:#9cc0d5;stroke-linecap:square;stroke-width:1.5;"/>
   </g>
   <g id="line2d_31">
    <path clip-path="url(#pd3f64cb829)" d="M 70.586182 293.107166 
L 75.780655 293.190535 
L 80.975127 293.419801 
L 86.1696 293.584936 
L 91.364073 293.294747 
L 96.558545 293.644256 
L 101.753018 293.90719 
L 106.947491 293.536838 
L 112.141964 293.695561 
L 117.336436 293.841457 
L 122.530909 293.918413 
L 127.725382 293.671512 
L 132.919855 293.892761 
L 138.114327 293.875125 
L 143.3088 293.734039 
L 148.503273 293.944065 
L 153.697745 293.620208 
L 158.892218 294.073929 
L 164.086691 293.775723 
L 169.281164 293.628224 
L 174.475636 293.472708 
L 179.670109 293.265888 
L 184.864582 292.416163 
L 190.059055 290.554783 
L 195.253527 288.707833 
L 200.448 284.505701 
L 205.642473 279.008139 
L 210.836945 269.433498 
L 216.031418 258.625954 
L 221.225891 251.869837 
L 226.420364 257.128514 
L 231.614836 269.973795 
L 236.809309 282.633099 
L 242.003782 288.916257 
L 247.198255 291.754018 
L 252.392727 293.666702 
L 257.5872 293.618604 
L 262.781673 294.138059 
L 267.976145 294.53246 
L 273.170618 294.67034 
L 278.365091 295.103219 
L 283.559564 295.481587 
L 288.754036 295.444712 
L 293.948509 295.459141 
L 299.142982 295.420663 
L 304.337455 295.329278 
L 309.531927 295.364549 
L 314.7264 295.390201 
L 319.920873 295.452728 
L 325.115345 295.337294 
L 330.309818 295.488 
" style="fill:none;stroke:#9fc4da;stroke-linecap:square;stroke-width:1.5;"/>
   </g>
   <g id="patch_3">
    <path d="M 57.6 307.584 
L 57.6 41.472 
" style="fill:none;stroke:#000000;stroke-linecap:square;stroke-linejoin:miter;stroke-width:0.8;"/>
   </g>
   <g id="patch_4">
    <path d="M 343.296 307.584 
L 343.296 41.472 
" style="fill:none;stroke:#000000;stroke-linecap:square;stroke-linejoin:miter;stroke-width:0.8;"/>
   </g>
   <g id="patch_5">
    <path d="M 57.6 307.584 
L 343.296 307.584 
" style="fill:none;stroke:#000000;stroke-linecap:square;stroke-linejoin:miter;stroke-width:0.8;"/>
   </g>
   <g id="patch_6">
    <path d="M 57.6 41.472 
L 343.296 41.472 
" style="fill:none;stroke:#000000;stroke-linecap:square;stroke-linejoin:miter;stroke-width:0.8;"/>
   </g>
   <g id="text_8">
    <!-- Oxygen 1s -->
    <g transform="translate(168.468938 35.472)scale(0.12 -0.12)">
     <defs>
      <path d="M 39.40625 66.21875 
Q 28.65625 66.21875 22.328125 58.203125 
Q 16.015625 50.203125 16.015625 36.375 
Q 16.015625 22.609375 22.328125 14.59375 
Q 28.65625 6.59375 39.40625 6.59375 
Q 50.140625 6.59375 56.421875 14.59375 
Q 62.703125 22.609375 62.703125 36.375 
Q 62.703125 50.203125 56.421875 58.203125 
Q 50.140625 66.21875 39.40625 66.21875 
z
M 39.40625 74.21875 
Q 54.734375 74.21875 63.90625 63.9375 
Q 73.09375 53.65625 73.09375 36.375 
Q 73.09375 19.140625 63.90625 8.859375 
Q 54.734375 -1.421875 39.40625 -1.421875 
Q 24.03125 -1.421875 14.8125 8.828125 
Q 5.609375 19.09375 5.609375 36.375 
Q 5.609375 53.65625 14.8125 63.9375 
Q 24.03125 74.21875 39.40625 74.21875 
z
" id="DejaVuSans-79"/>
      <path d="M 54.890625 54.6875 
L 35.109375 28.078125 
L 55.90625 0 
L 45.3125 0 
L 29.390625 21.484375 
L 13.484375 0 
L 2.875 0 
L 24.125 28.609375 
L 4.6875 54.6875 
L 15.28125 54.6875 
L 29.78125 35.203125 
L 44.28125 54.6875 
z
" id="DejaVuSans-120"/>
      <path d="M 12.40625 8.296875 
L 28.515625 8.296875 
L 28.515625 63.921875 
L 10.984375 60.40625 
L 10.984375 69.390625 
L 28.421875 72.90625 
L 38.28125 72.90625 
L 38.28125 8.296875 
L 54.390625 8.296875 
L 54.390625 0 
L 12.40625 0 
z
" id="DejaVuSans-49"/>
     </defs>
     <use xlink:href="#DejaVuSans-79"/>
     <use x="78.710938" xlink:href="#DejaVuSans-120"/>
     <use x="137.890625" xlink:href="#DejaVuSans-121"/>
     <use x="197.070312" xlink:href="#DejaVuSans-103"/>
     <use x="260.546875" xlink:href="#DejaVuSans-101"/>
     <use x="322.070312" xlink:href="#DejaVuSans-110"/>
     <use x="385.449219" xlink:href="#DejaVuSans-32"/>
     <use x="417.236328" xlink:href="#DejaVuSans-49"/>
     <use x="480.859375" xlink:href="#DejaVuSans-115"/>
    </g>
   </g>
  </g>
  <g id="axes_2">
   <g id="patch_7">
    <path clip-path="url(#pa35d782b57)" d="M 361.152 41.472 
L 361.152 51.328 
L 361.152 297.728 
L 361.152 307.584 
L 374.4576 307.584 
L 374.4576 297.728 
L 374.4576 51.328 
L 374.4576 41.472 
z
" style="fill:#ffffff;stroke:#ffffff;stroke-linejoin:miter;stroke-width:0.01;"/>
   </g>
   <g id="QuadMesh_1">
    <path clip-path="url(#pa35d782b57)" d="M 361.152 41.472 
L 374.4576 41.472 
L 374.4576 51.328 
L 361.152 51.328 
L 361.152 41.472 
" style="fill:#4e5f69;"/>
    <path clip-path="url(#pa35d782b57)" d="M 361.152 51.328 
L 374.4576 51.328 
L 374.4576 61.184 
L 361.152 61.184 
L 361.152 51.328 
" style="fill:#51636e;"/>
    <path clip-path="url(#pa35d782b57)" d="M 361.152 61.184 
L 374.4576 61.184 
L 374.4576 71.04 
L 361.152 71.04 
L 361.152 61.184 
" style="fill:#546772;"/>
    <path clip-path="url(#pa35d782b57)" d="M 361.152 71.04 
L 374.4576 71.04 
L 374.4576 80.896 
L 361.152 80.896 
L 361.152 71.04 
" style="fill:#586b76;"/>
    <path clip-path="url(#pa35d782b57)" d="M 361.152 80.896 
L 374.4576 80.896 
L 374.4576 90.752 
L 361.152 90.752 
L 361.152 80.896 
" style="fill:#5b6f7b;"/>
    <path clip-path="url(#pa35d782b57)" d="M 361.152 90.752 
L 374.4576 90.752 
L 374.4576 100.608 
L 361.152 100.608 
L 361.152 90.752 
" style="fill:#5e7380;"/>
    <path clip-path="url(#pa35d782b57)" d="M 361.152 100.608 
L 374.4576 100.608 
L 374.4576 110.464 
L 361.152 110.464 
L 361.152 100.608 
" style="fill:#617784;"/>
    <path clip-path="url(#pa35d782b57)" d="M 361.152 110.464 
L 374.4576 110.464 
L 374.4576 120.32 
L 361.152 120.32 
L 361.152 110.464 
" style="fill:#657b89;"/>
    <path clip-path="url(#pa35d782b57)" d="M 361.152 120.32 
L 374.4576 120.32 
L 374.4576 130.176 
L 361.152 130.176 
L 361.152 120.32 
" style="fill:#687f8d;"/>
    <path clip-path="url(#pa35d782b57)" d="M 361.152 130.176 
L 374.4576 130.176 
L 374.4576 140.032 
L 361.152 140.032 
L 361.152 130.176 
" style="fill:#6b8392;"/>
    <path clip-path="url(#pa35d782b57)" d="M 361.152 140.032 
L 374.4576 140.032 
L 374.4576 149.888 
L 361.152 149.888 
L 361.152 140.032 
" style="fill:#6e8796;"/>
    <path clip-path="url(#pa35d782b57)" d="M 361.152 149.888 
L 374.4576 149.888 
L 374.4576 159.744 
L 361.152 159.744 
L 361.152 149.888 
" style="fill:#728b9a;"/>
    <path clip-path="url(#pa35d782b57)" d="M 361.152 159.744 
L 374.4576 159.744 
L 374.4576 169.6 
L 361.152 169.6 
L 361.152 159.744 
" style="fill:#758f9f;"/>
    <path clip-path="url(#pa35d782b57)" d="M 361.152 169.6 
L 374.4576 169.6 
L 374.4576 179.456 
L 361.152 179.456 
L 361.152 169.6 
" style="fill:#7893a3;"/>
    <path clip-path="url(#pa35d782b57)" d="M 361.152 179.456 
L 374.4576 179.456 
L 374.4576 189.312 
L 361.152 189.312 
L 361.152 179.456 
" style="fill:#7b98a8;"/>
    <path clip-path="url(#pa35d782b57)" d="M 361.152 189.312 
L 374.4576 189.312 
L 374.4576 199.168 
L 361.152 199.168 
L 361.152 189.312 
" style="fill:#7e9cac;"/>
    <path clip-path="url(#pa35d782b57)" d="M 361.152 199.168 
L 374.4576 199.168 
L 374.4576 209.024 
L 361.152 209.024 
L 361.152 199.168 
" style="fill:#82a0b1;"/>
    <path clip-path="url(#pa35d782b57)" d="M 361.152 209.024 
L 374.4576 209.024 
L 374.4576 218.88 
L 361.152 218.88 
L 361.152 209.024 
" style="fill:#85a4b5;"/>
    <path clip-path="url(#pa35d782b57)" d="M 361.152 218.88 
L 374.4576 218.88 
L 374.4576 228.736 
L 361.152 228.736 
L 361.152 218.88 
" style="fill:#88a8ba;"/>
    <path clip-path="url(#pa35d782b57)" d="M 361.152 228.736 
L 374.4576 228.736 
L 374.4576 238.592 
L 361.152 238.592 
L 361.152 228.736 
" style="fill:#8bacbe;"/>
    <path clip-path="url(#pa35d782b57)" d="M 361.152 238.592 
L 374.4576 238.592 
L 374.4576 248.448 
L 361.152 248.448 
L 361.152 238.592 
" style="fill:#8fb0c3;"/>
    <path clip-path="url(#pa35d782b57)" d="M 361.152 248.448 
L 374.4576 248.448 
L 374.4576 258.304 
L 361.152 258.304 
L 361.152 248.448 
" style="fill:#92b4c8;"/>
    <path clip-path="url(#pa35d782b57)" d="M 361.152 258.304 
L 374.4576 258.304 
L 374.4576 268.16 
L 361.152 268.16 
L 361.152 258.304 
" style="fill:#95b8cc;"/>
    <path clip-path="url(#pa35d782b57)" d="M 361.152 268.16 
L 374.4576 268.16 
L 374.4576 278.016 
L 361.152 278.016 
L 361.152 268.16 
" style="fill:#98bcd1;"/>
    <path clip-path="url(#pa35d782b57)" d="M 361.152 278.016 
L 374.4576 278.016 
L 374.4576 287.872 
L 361.152 287.872 
L 361.152 278.016 
" style="fill:#9cc0d5;"/>
    <path clip-path="url(#pa35d782b57)" d="M 361.152 287.872 
L 374.4576 287.872 
L 374.4576 297.728 
L 361.152 297.728 
L 361.152 287.872 
" style="fill:#9fc4da;"/>
    <path clip-path="url(#pa35d782b57)" d="M 361.152 297.728 
L 374.4576 297.728 
L 374.4576 307.584 
L 361.152 307.584 
L 361.152 297.728 
" style="fill:#a2c8de;"/>
   </g>
   <g id="matplotlib.axis_3"/>
   <g id="matplotlib.axis_4">
    <g id="ytick_9">
     <g id="line2d_32">
      <defs>
       <path d="M 0 0 
L 3.5 0 
" id="m07ddd7a7fa" style="stroke:#000000;stroke-width:0.8;"/>
      </defs>
      <g>
       <use style="stroke:#000000;stroke-width:0.8;" x="374.4576" xlink:href="#m07ddd7a7fa" y="41.472"/>
      </g>
     </g>
     <g id="text_9">
      <!-- 0 -->
      <g transform="translate(381.4576 46.031063)scale(0.12 -0.12)">
       <use xlink:href="#DejaVuSans-48"/>
      </g>
     </g>
    </g>
    <g id="ytick_10">
     <g id="line2d_33">
      <g>
       <use style="stroke:#000000;stroke-width:0.8;" x="374.4576" xlink:href="#m07ddd7a7fa" y="94.6944"/>
      </g>
     </g>
     <g id="text_10">
      <!-- 5 -->
      <g transform="translate(381.4576 99.253463)scale(0.12 -0.12)">
       <use xlink:href="#DejaVuSans-53"/>
      </g>
     </g>
    </g>
    <g id="ytick_11">
     <g id="line2d_34">
      <g>
       <use style="stroke:#000000;stroke-width:0.8;" x="374.4576" xlink:href="#m07ddd7a7fa" y="147.9168"/>
      </g>
     </g>
     <g id="text_11">
      <!-- 10 -->
      <g transform="translate(381.4576 152.475863)scale(0.12 -0.12)">
       <use xlink:href="#DejaVuSans-49"/>
       <use x="63.623047" xlink:href="#DejaVuSans-48"/>
      </g>
     </g>
    </g>
    <g id="ytick_12">
     <g id="line2d_35">
      <g>
       <use style="stroke:#000000;stroke-width:0.8;" x="374.4576" xlink:href="#m07ddd7a7fa" y="201.1392"/>
      </g>
     </g>
     <g id="text_12">
      <!-- 15 -->
      <g transform="translate(381.4576 205.698263)scale(0.12 -0.12)">
       <use xlink:href="#DejaVuSans-49"/>
       <use x="63.623047" xlink:href="#DejaVuSans-53"/>
      </g>
     </g>
    </g>
    <g id="ytick_13">
     <g id="line2d_36">
      <g>
       <use style="stroke:#000000;stroke-width:0.8;" x="374.4576" xlink:href="#m07ddd7a7fa" y="254.3616"/>
      </g>
     </g>
     <g id="text_13">
      <!-- 20 -->
      <g transform="translate(381.4576 258.920663)scale(0.12 -0.12)">
       <use xlink:href="#DejaVuSans-50"/>
       <use x="63.623047" xlink:href="#DejaVuSans-48"/>
      </g>
     </g>
    </g>
    <g id="ytick_14">
     <g id="line2d_37">
      <g>
       <use style="stroke:#000000;stroke-width:0.8;" x="374.4576" xlink:href="#m07ddd7a7fa" y="307.584"/>
      </g>
     </g>
     <g id="text_14">
      <!-- 25 -->
      <g transform="translate(381.4576 312.143062)scale(0.12 -0.12)">
       <use xlink:href="#DejaVuSans-50"/>
       <use x="63.623047" xlink:href="#DejaVuSans-53"/>
      </g>
     </g>
    </g>
    <g id="text_15">
     <!-- Sputter Time [min] -->
     <g transform="translate(411.365413 240.763312)rotate(-90)scale(0.14 -0.14)">
      <defs>
       <path d="M 53.515625 70.515625 
L 53.515625 60.890625 
Q 47.90625 63.578125 42.921875 64.890625 
Q 37.9375 66.21875 33.296875 66.21875 
Q 25.25 66.21875 20.875 63.09375 
Q 16.5 59.96875 16.5 54.203125 
Q 16.5 49.359375 19.40625 46.890625 
Q 22.3125 44.4375 30.421875 42.921875 
L 36.375 41.703125 
Q 47.40625 39.59375 52.65625 34.296875 
Q 57.90625 29 57.90625 20.125 
Q 57.90625 9.515625 50.796875 4.046875 
Q 43.703125 -1.421875 29.984375 -1.421875 
Q 24.8125 -1.421875 18.96875 -0.25 
Q 13.140625 0.921875 6.890625 3.21875 
L 6.890625 13.375 
Q 12.890625 10.015625 18.65625 8.296875 
Q 24.421875 6.59375 29.984375 6.59375 
Q 38.421875 6.59375 43.015625 9.90625 
Q 47.609375 13.234375 47.609375 19.390625 
Q 47.609375 24.75 44.3125 27.78125 
Q 41.015625 30.8125 33.5 32.328125 
L 27.484375 33.5 
Q 16.453125 35.6875 11.515625 40.375 
Q 6.59375 45.0625 6.59375 53.421875 
Q 6.59375 63.09375 13.40625 68.65625 
Q 20.21875 74.21875 32.171875 74.21875 
Q 37.3125 74.21875 42.625 73.28125 
Q 47.953125 72.359375 53.515625 70.515625 
z
" id="DejaVuSans-83"/>
       <path d="M 18.109375 8.203125 
L 18.109375 -20.796875 
L 9.078125 -20.796875 
L 9.078125 54.6875 
L 18.109375 54.6875 
L 18.109375 46.390625 
Q 20.953125 51.265625 25.265625 53.625 
Q 29.59375 56 35.59375 56 
Q 45.5625 56 51.78125 48.09375 
Q 58.015625 40.1875 58.015625 27.296875 
Q 58.015625 14.40625 51.78125 6.484375 
Q 45.5625 -1.421875 35.59375 -1.421875 
Q 29.59375 -1.421875 25.265625 0.953125 
Q 20.953125 3.328125 18.109375 8.203125 
z
M 48.6875 27.296875 
Q 48.6875 37.203125 44.609375 42.84375 
Q 40.53125 48.484375 33.40625 48.484375 
Q 26.265625 48.484375 22.1875 42.84375 
Q 18.109375 37.203125 18.109375 27.296875 
Q 18.109375 17.390625 22.1875 11.75 
Q 26.265625 6.109375 33.40625 6.109375 
Q 40.53125 6.109375 44.609375 11.75 
Q 48.6875 17.390625 48.6875 27.296875 
z
" id="DejaVuSans-112"/>
       <path d="M -0.296875 72.90625 
L 61.375 72.90625 
L 61.375 64.59375 
L 35.5 64.59375 
L 35.5 0 
L 25.59375 0 
L 25.59375 64.59375 
L -0.296875 64.59375 
z
" id="DejaVuSans-84"/>
       <path d="M 52 44.1875 
Q 55.375 50.25 60.0625 53.125 
Q 64.75 56 71.09375 56 
Q 79.640625 56 84.28125 50.015625 
Q 88.921875 44.046875 88.921875 33.015625 
L 88.921875 0 
L 79.890625 0 
L 79.890625 32.71875 
Q 79.890625 40.578125 77.09375 44.375 
Q 74.3125 48.1875 68.609375 48.1875 
Q 61.625 48.1875 57.5625 43.546875 
Q 53.515625 38.921875 53.515625 30.90625 
L 53.515625 0 
L 44.484375 0 
L 44.484375 32.71875 
Q 44.484375 40.625 41.703125 44.40625 
Q 38.921875 48.1875 33.109375 48.1875 
Q 26.21875 48.1875 22.15625 43.53125 
Q 18.109375 38.875 18.109375 30.90625 
L 18.109375 0 
L 9.078125 0 
L 9.078125 54.6875 
L 18.109375 54.6875 
L 18.109375 46.1875 
Q 21.1875 51.21875 25.484375 53.609375 
Q 29.78125 56 35.6875 56 
Q 41.65625 56 45.828125 52.96875 
Q 50 49.953125 52 44.1875 
z
" id="DejaVuSans-109"/>
      </defs>
      <use xlink:href="#DejaVuSans-83"/>
      <use x="63.476562" xlink:href="#DejaVuSans-112"/>
      <use x="126.953125" xlink:href="#DejaVuSans-117"/>
      <use x="190.332031" xlink:href="#DejaVuSans-116"/>
      <use x="229.541016" xlink:href="#DejaVuSans-116"/>
      <use x="268.75" xlink:href="#DejaVuSans-101"/>
      <use x="330.273438" xlink:href="#DejaVuSans-114"/>
      <use x="371.386719" xlink:href="#DejaVuSans-32"/>
      <use x="403.173828" xlink:href="#DejaVuSans-84"/>
      <use x="461.132812" xlink:href="#DejaVuSans-105"/>
      <use x="488.916016" xlink:href="#DejaVuSans-109"/>
      <use x="586.328125" xlink:href="#DejaVuSans-101"/>
      <use x="647.851562" xlink:href="#DejaVuSans-32"/>
      <use x="679.638672" xlink:href="#DejaVuSans-91"/>
      <use x="718.652344" xlink:href="#DejaVuSans-109"/>
      <use x="816.064453" xlink:href="#DejaVuSans-105"/>
      <use x="843.847656" xlink:href="#DejaVuSans-110"/>
      <use x="907.226562" xlink:href="#DejaVuSans-93"/>
     </g>
    </g>
   </g>
   <g id="patch_8">
    <path d="M 361.152 41.472 
L 361.152 51.328 
L 361.152 297.728 
L 361.152 307.584 
L 374.4576 307.584 
L 374.4576 297.728 
L 374.4576 51.328 
L 374.4576 41.472 
z
" style="fill:none;stroke:#000000;stroke-linejoin:miter;stroke-width:0.8;"/>
   </g>
  </g>
 </g>
 <defs>
  <clipPath id="pd3f64cb829">
   <rect height="266.112" width="285.696" x="57.6" y="41.472"/>
  </clipPath>
  <clipPath id="pa35d782b57">
   <rect height="266.112" width="13.3056" x="361.152" y="41.472"/>
  </clipPath>
 </defs>
</svg>
