<?xml version="1.0" encoding="utf-8" standalone="no"?>
<!DOCTYPE svg PUBLIC "-//W3C//DTD SVG 1.1//EN"
  "http://www.w3.org/Graphics/SVG/1.1/DTD/svg11.dtd">
<!-- Created with matplotlib (https://matplotlib.org/) -->
<svg height="345.6pt" version="1.1" viewBox="0 0 460.8 345.6" width="460.8pt" xmlns="http://www.w3.org/2000/svg" xmlns:xlink="http://www.w3.org/1999/xlink">
 <metadata>
  <rdf:RDF xmlns:cc="http://creativecommons.org/ns#" xmlns:dc="http://purl.org/dc/elements/1.1/" xmlns:rdf="http://www.w3.org/1999/02/22-rdf-syntax-ns#">
   <cc:Work>
    <dc:type rdf:resource="http://purl.org/dc/dcmitype/StillImage"/>
    <dc:date>2022-12-05T14:36:08.710781</dc:date>
    <dc:format>image/svg+xml</dc:format>
    <dc:creator>
     <cc:Agent>
      <dc:title>Matplotlib v3.3.4, https://matplotlib.org/</dc:title>
     </cc:Agent>
    </dc:creator>
   </cc:Work>
  </rdf:RDF>
 </metadata>
 <defs>
  <style type="text/css">*{stroke-linecap:butt;stroke-linejoin:round;}</style>
 </defs>
 <g id="figure_1">
  <g id="patch_1">
   <path d="M 0 345.6 
L 460.8 345.6 
L 460.8 0 
L 0 0 
z
" style="fill:#ffffff;"/>
  </g>
  <g id="axes_1">
   <g id="patch_2">
    <path d="M 57.6 307.584 
L 343.296 307.584 
L 343.296 41.472 
L 57.6 41.472 
z
" style="fill:#ffffff;"/>
   </g>
   <g id="matplotlib.axis_1">
    <g id="xtick_1">
     <g id="line2d_1">
      <defs>
       <path d="M 0 0 
L 0 3.5 
" id="m299707e6b5" style="stroke:#000000;stroke-width:0.8;"/>
      </defs>
      <g>
       <use style="stroke:#000000;stroke-width:0.8;" x="317.323636" xlink:href="#m299707e6b5" y="307.584"/>
      </g>
     </g>
     <g id="text_1">
      <!-- 480 -->
      <g transform="translate(305.871136 323.702125)scale(0.12 -0.12)">
       <defs>
        <path d="M 37.796875 64.3125 
L 12.890625 25.390625 
L 37.796875 25.390625 
z
M 35.203125 72.90625 
L 47.609375 72.90625 
L 47.609375 25.390625 
L 58.015625 25.390625 
L 58.015625 17.1875 
L 47.609375 17.1875 
L 47.609375 0 
L 37.796875 0 
L 37.796875 17.1875 
L 4.890625 17.1875 
L 4.890625 26.703125 
z
" id="DejaVuSans-52"/>
        <path d="M 31.78125 34.625 
Q 24.75 34.625 20.71875 30.859375 
Q 16.703125 27.09375 16.703125 20.515625 
Q 16.703125 13.921875 20.71875 10.15625 
Q 24.75 6.390625 31.78125 6.390625 
Q 38.8125 6.390625 42.859375 10.171875 
Q 46.921875 13.96875 46.921875 20.515625 
Q 46.921875 27.09375 42.890625 30.859375 
Q 38.875 34.625 31.78125 34.625 
z
M 21.921875 38.8125 
Q 15.578125 40.375 12.03125 44.71875 
Q 8.5 49.078125 8.5 55.328125 
Q 8.5 64.0625 14.71875 69.140625 
Q 20.953125 74.21875 31.78125 74.21875 
Q 42.671875 74.21875 48.875 69.140625 
Q 55.078125 64.0625 55.078125 55.328125 
Q 55.078125 49.078125 51.53125 44.71875 
Q 48 40.375 41.703125 38.8125 
Q 48.828125 37.15625 52.796875 32.3125 
Q 56.78125 27.484375 56.78125 20.515625 
Q 56.78125 9.90625 50.3125 4.234375 
Q 43.84375 -1.421875 31.78125 -1.421875 
Q 19.734375 -1.421875 13.25 4.234375 
Q 6.78125 9.90625 6.78125 20.515625 
Q 6.78125 27.484375 10.78125 32.3125 
Q 14.796875 37.15625 21.921875 38.8125 
z
M 18.3125 54.390625 
Q 18.3125 48.734375 21.84375 45.5625 
Q 25.390625 42.390625 31.78125 42.390625 
Q 38.140625 42.390625 41.71875 45.5625 
Q 45.3125 48.734375 45.3125 54.390625 
Q 45.3125 60.0625 41.71875 63.234375 
Q 38.140625 66.40625 31.78125 66.40625 
Q 25.390625 66.40625 21.84375 63.234375 
Q 18.3125 60.0625 18.3125 54.390625 
z
" id="DejaVuSans-56"/>
        <path d="M 31.78125 66.40625 
Q 24.171875 66.40625 20.328125 58.90625 
Q 16.5 51.421875 16.5 36.375 
Q 16.5 21.390625 20.328125 13.890625 
Q 24.171875 6.390625 31.78125 6.390625 
Q 39.453125 6.390625 43.28125 13.890625 
Q 47.125 21.390625 47.125 36.375 
Q 47.125 51.421875 43.28125 58.90625 
Q 39.453125 66.40625 31.78125 66.40625 
z
M 31.78125 74.21875 
Q 44.046875 74.21875 50.515625 64.515625 
Q 56.984375 54.828125 56.984375 36.375 
Q 56.984375 17.96875 50.515625 8.265625 
Q 44.046875 -1.421875 31.78125 -1.421875 
Q 19.53125 -1.421875 13.0625 8.265625 
Q 6.59375 17.96875 6.59375 36.375 
Q 6.59375 54.828125 13.0625 64.515625 
Q 19.53125 74.21875 31.78125 74.21875 
z
" id="DejaVuSans-48"/>
       </defs>
       <use xlink:href="#DejaVuSans-52"/>
       <use x="63.623047" xlink:href="#DejaVuSans-56"/>
       <use x="127.246094" xlink:href="#DejaVuSans-48"/>
      </g>
     </g>
    </g>
    <g id="xtick_2">
     <g id="line2d_2">
      <g>
       <use style="stroke:#000000;stroke-width:0.8;" x="252.392727" xlink:href="#m299707e6b5" y="307.584"/>
      </g>
     </g>
     <g id="text_2">
      <!-- 485 -->
      <g transform="translate(240.940227 323.702125)scale(0.12 -0.12)">
       <defs>
        <path d="M 10.796875 72.90625 
L 49.515625 72.90625 
L 49.515625 64.59375 
L 19.828125 64.59375 
L 19.828125 46.734375 
Q 21.96875 47.46875 24.109375 47.828125 
Q 26.265625 48.1875 28.421875 48.1875 
Q 40.625 48.1875 47.75 41.5 
Q 54.890625 34.8125 54.890625 23.390625 
Q 54.890625 11.625 47.5625 5.09375 
Q 40.234375 -1.421875 26.90625 -1.421875 
Q 22.3125 -1.421875 17.546875 -0.640625 
Q 12.796875 0.140625 7.71875 1.703125 
L 7.71875 11.625 
Q 12.109375 9.234375 16.796875 8.0625 
Q 21.484375 6.890625 26.703125 6.890625 
Q 35.15625 6.890625 40.078125 11.328125 
Q 45.015625 15.765625 45.015625 23.390625 
Q 45.015625 31 40.078125 35.4375 
Q 35.15625 39.890625 26.703125 39.890625 
Q 22.75 39.890625 18.8125 39.015625 
Q 14.890625 38.140625 10.796875 36.28125 
z
" id="DejaVuSans-53"/>
       </defs>
       <use xlink:href="#DejaVuSans-52"/>
       <use x="63.623047" xlink:href="#DejaVuSans-56"/>
       <use x="127.246094" xlink:href="#DejaVuSans-53"/>
      </g>
     </g>
    </g>
    <g id="xtick_3">
     <g id="line2d_3">
      <g>
       <use style="stroke:#000000;stroke-width:0.8;" x="187.461818" xlink:href="#m299707e6b5" y="307.584"/>
      </g>
     </g>
     <g id="text_3">
      <!-- 490 -->
      <g transform="translate(176.009318 323.702125)scale(0.12 -0.12)">
       <defs>
        <path d="M 10.984375 1.515625 
L 10.984375 10.5 
Q 14.703125 8.734375 18.5 7.8125 
Q 22.3125 6.890625 25.984375 6.890625 
Q 35.75 6.890625 40.890625 13.453125 
Q 46.046875 20.015625 46.78125 33.40625 
Q 43.953125 29.203125 39.59375 26.953125 
Q 35.25 24.703125 29.984375 24.703125 
Q 19.046875 24.703125 12.671875 31.3125 
Q 6.296875 37.9375 6.296875 49.421875 
Q 6.296875 60.640625 12.9375 67.421875 
Q 19.578125 74.21875 30.609375 74.21875 
Q 43.265625 74.21875 49.921875 64.515625 
Q 56.59375 54.828125 56.59375 36.375 
Q 56.59375 19.140625 48.40625 8.859375 
Q 40.234375 -1.421875 26.421875 -1.421875 
Q 22.703125 -1.421875 18.890625 -0.6875 
Q 15.09375 0.046875 10.984375 1.515625 
z
M 30.609375 32.421875 
Q 37.25 32.421875 41.125 36.953125 
Q 45.015625 41.5 45.015625 49.421875 
Q 45.015625 57.28125 41.125 61.84375 
Q 37.25 66.40625 30.609375 66.40625 
Q 23.96875 66.40625 20.09375 61.84375 
Q 16.21875 57.28125 16.21875 49.421875 
Q 16.21875 41.5 20.09375 36.953125 
Q 23.96875 32.421875 30.609375 32.421875 
z
" id="DejaVuSans-57"/>
       </defs>
       <use xlink:href="#DejaVuSans-52"/>
       <use x="63.623047" xlink:href="#DejaVuSans-57"/>
       <use x="127.246094" xlink:href="#DejaVuSans-48"/>
      </g>
     </g>
    </g>
    <g id="xtick_4">
     <g id="line2d_4">
      <g>
       <use style="stroke:#000000;stroke-width:0.8;" x="122.530909" xlink:href="#m299707e6b5" y="307.584"/>
      </g>
     </g>
     <g id="text_4">
      <!-- 495 -->
      <g transform="translate(111.078409 323.702125)scale(0.12 -0.12)">
       <use xlink:href="#DejaVuSans-52"/>
       <use x="63.623047" xlink:href="#DejaVuSans-57"/>
       <use x="127.246094" xlink:href="#DejaVuSans-53"/>
      </g>
     </g>
    </g>
    <g id="xtick_5">
     <g id="line2d_5">
      <g>
       <use style="stroke:#000000;stroke-width:0.8;" x="57.6" xlink:href="#m299707e6b5" y="307.584"/>
      </g>
     </g>
     <g id="text_5">
      <!-- 500 -->
      <g transform="translate(46.1475 323.702125)scale(0.12 -0.12)">
       <use xlink:href="#DejaVuSans-53"/>
       <use x="63.623047" xlink:href="#DejaVuSans-48"/>
       <use x="127.246094" xlink:href="#DejaVuSans-48"/>
      </g>
     </g>
    </g>
    <g id="text_6">
     <!-- Binding Energy [eV] -->
     <g transform="translate(130.479719 340.835562)scale(0.14 -0.14)">
      <defs>
       <path d="M 19.671875 34.8125 
L 19.671875 8.109375 
L 35.5 8.109375 
Q 43.453125 8.109375 47.28125 11.40625 
Q 51.125 14.703125 51.125 21.484375 
Q 51.125 28.328125 47.28125 31.5625 
Q 43.453125 34.8125 35.5 34.8125 
z
M 19.671875 64.796875 
L 19.671875 42.828125 
L 34.28125 42.828125 
Q 41.5 42.828125 45.03125 45.53125 
Q 48.578125 48.25 48.578125 53.8125 
Q 48.578125 59.328125 45.03125 62.0625 
Q 41.5 64.796875 34.28125 64.796875 
z
M 9.8125 72.90625 
L 35.015625 72.90625 
Q 46.296875 72.90625 52.390625 68.21875 
Q 58.5 63.53125 58.5 54.890625 
Q 58.5 48.1875 55.375 44.234375 
Q 52.25 40.28125 46.1875 39.3125 
Q 53.46875 37.75 57.5 32.78125 
Q 61.53125 27.828125 61.53125 20.40625 
Q 61.53125 10.640625 54.890625 5.3125 
Q 48.25 0 35.984375 0 
L 9.8125 0 
z
" id="DejaVuSans-66"/>
       <path d="M 9.421875 54.6875 
L 18.40625 54.6875 
L 18.40625 0 
L 9.421875 0 
z
M 9.421875 75.984375 
L 18.40625 75.984375 
L 18.40625 64.59375 
L 9.421875 64.59375 
z
" id="DejaVuSans-105"/>
       <path d="M 54.890625 33.015625 
L 54.890625 0 
L 45.90625 0 
L 45.90625 32.71875 
Q 45.90625 40.484375 42.875 44.328125 
Q 39.84375 48.1875 33.796875 48.1875 
Q 26.515625 48.1875 22.3125 43.546875 
Q 18.109375 38.921875 18.109375 30.90625 
L 18.109375 0 
L 9.078125 0 
L 9.078125 54.6875 
L 18.109375 54.6875 
L 18.109375 46.1875 
Q 21.34375 51.125 25.703125 53.5625 
Q 30.078125 56 35.796875 56 
Q 45.21875 56 50.046875 50.171875 
Q 54.890625 44.34375 54.890625 33.015625 
z
" id="DejaVuSans-110"/>
       <path d="M 45.40625 46.390625 
L 45.40625 75.984375 
L 54.390625 75.984375 
L 54.390625 0 
L 45.40625 0 
L 45.40625 8.203125 
Q 42.578125 3.328125 38.25 0.953125 
Q 33.9375 -1.421875 27.875 -1.421875 
Q 17.96875 -1.421875 11.734375 6.484375 
Q 5.515625 14.40625 5.515625 27.296875 
Q 5.515625 40.1875 11.734375 48.09375 
Q 17.96875 56 27.875 56 
Q 33.9375 56 38.25 53.625 
Q 42.578125 51.265625 45.40625 46.390625 
z
M 14.796875 27.296875 
Q 14.796875 17.390625 18.875 11.75 
Q 22.953125 6.109375 30.078125 6.109375 
Q 37.203125 6.109375 41.296875 11.75 
Q 45.40625 17.390625 45.40625 27.296875 
Q 45.40625 37.203125 41.296875 42.84375 
Q 37.203125 48.484375 30.078125 48.484375 
Q 22.953125 48.484375 18.875 42.84375 
Q 14.796875 37.203125 14.796875 27.296875 
z
" id="DejaVuSans-100"/>
       <path d="M 45.40625 27.984375 
Q 45.40625 37.75 41.375 43.109375 
Q 37.359375 48.484375 30.078125 48.484375 
Q 22.859375 48.484375 18.828125 43.109375 
Q 14.796875 37.75 14.796875 27.984375 
Q 14.796875 18.265625 18.828125 12.890625 
Q 22.859375 7.515625 30.078125 7.515625 
Q 37.359375 7.515625 41.375 12.890625 
Q 45.40625 18.265625 45.40625 27.984375 
z
M 54.390625 6.78125 
Q 54.390625 -7.171875 48.1875 -13.984375 
Q 42 -20.796875 29.203125 -20.796875 
Q 24.46875 -20.796875 20.265625 -20.09375 
Q 16.0625 -19.390625 12.109375 -17.921875 
L 12.109375 -9.1875 
Q 16.0625 -11.328125 19.921875 -12.34375 
Q 23.78125 -13.375 27.78125 -13.375 
Q 36.625 -13.375 41.015625 -8.765625 
Q 45.40625 -4.15625 45.40625 5.171875 
L 45.40625 9.625 
Q 42.625 4.78125 38.28125 2.390625 
Q 33.9375 0 27.875 0 
Q 17.828125 0 11.671875 7.65625 
Q 5.515625 15.328125 5.515625 27.984375 
Q 5.515625 40.671875 11.671875 48.328125 
Q 17.828125 56 27.875 56 
Q 33.9375 56 38.28125 53.609375 
Q 42.625 51.21875 45.40625 46.390625 
L 45.40625 54.6875 
L 54.390625 54.6875 
z
" id="DejaVuSans-103"/>
       <path id="DejaVuSans-32"/>
       <path d="M 9.8125 72.90625 
L 55.90625 72.90625 
L 55.90625 64.59375 
L 19.671875 64.59375 
L 19.671875 43.015625 
L 54.390625 43.015625 
L 54.390625 34.71875 
L 19.671875 34.71875 
L 19.671875 8.296875 
L 56.78125 8.296875 
L 56.78125 0 
L 9.8125 0 
z
" id="DejaVuSans-69"/>
       <path d="M 56.203125 29.59375 
L 56.203125 25.203125 
L 14.890625 25.203125 
Q 15.484375 15.921875 20.484375 11.0625 
Q 25.484375 6.203125 34.421875 6.203125 
Q 39.59375 6.203125 44.453125 7.46875 
Q 49.3125 8.734375 54.109375 11.28125 
L 54.109375 2.78125 
Q 49.265625 0.734375 44.1875 -0.34375 
Q 39.109375 -1.421875 33.890625 -1.421875 
Q 20.796875 -1.421875 13.15625 6.1875 
Q 5.515625 13.8125 5.515625 26.8125 
Q 5.515625 40.234375 12.765625 48.109375 
Q 20.015625 56 32.328125 56 
Q 43.359375 56 49.78125 48.890625 
Q 56.203125 41.796875 56.203125 29.59375 
z
M 47.21875 32.234375 
Q 47.125 39.59375 43.09375 43.984375 
Q 39.0625 48.390625 32.421875 48.390625 
Q 24.90625 48.390625 20.390625 44.140625 
Q 15.875 39.890625 15.1875 32.171875 
z
" id="DejaVuSans-101"/>
       <path d="M 41.109375 46.296875 
Q 39.59375 47.171875 37.8125 47.578125 
Q 36.03125 48 33.890625 48 
Q 26.265625 48 22.1875 43.046875 
Q 18.109375 38.09375 18.109375 28.8125 
L 18.109375 0 
L 9.078125 0 
L 9.078125 54.6875 
L 18.109375 54.6875 
L 18.109375 46.1875 
Q 20.953125 51.171875 25.484375 53.578125 
Q 30.03125 56 36.53125 56 
Q 37.453125 56 38.578125 55.875 
Q 39.703125 55.765625 41.0625 55.515625 
z
" id="DejaVuSans-114"/>
       <path d="M 32.171875 -5.078125 
Q 28.375 -14.84375 24.75 -17.8125 
Q 21.140625 -20.796875 15.09375 -20.796875 
L 7.90625 -20.796875 
L 7.90625 -13.28125 
L 13.1875 -13.28125 
Q 16.890625 -13.28125 18.9375 -11.515625 
Q 21 -9.765625 23.484375 -3.21875 
L 25.09375 0.875 
L 2.984375 54.6875 
L 12.5 54.6875 
L 29.59375 11.921875 
L 46.6875 54.6875 
L 56.203125 54.6875 
z
" id="DejaVuSans-121"/>
       <path d="M 8.59375 75.984375 
L 29.296875 75.984375 
L 29.296875 69 
L 17.578125 69 
L 17.578125 -6.203125 
L 29.296875 -6.203125 
L 29.296875 -13.1875 
L 8.59375 -13.1875 
z
" id="DejaVuSans-91"/>
       <path d="M 28.609375 0 
L 0.78125 72.90625 
L 11.078125 72.90625 
L 34.1875 11.53125 
L 57.328125 72.90625 
L 67.578125 72.90625 
L 39.796875 0 
z
" id="DejaVuSans-86"/>
       <path d="M 30.421875 75.984375 
L 30.421875 -13.1875 
L 9.71875 -13.1875 
L 9.71875 -6.203125 
L 21.390625 -6.203125 
L 21.390625 69 
L 9.71875 69 
L 9.71875 75.984375 
z
" id="DejaVuSans-93"/>
      </defs>
      <use xlink:href="#DejaVuSans-66"/>
      <use x="68.603516" xlink:href="#DejaVuSans-105"/>
      <use x="96.386719" xlink:href="#DejaVuSans-110"/>
      <use x="159.765625" xlink:href="#DejaVuSans-100"/>
      <use x="223.242188" xlink:href="#DejaVuSans-105"/>
      <use x="251.025391" xlink:href="#DejaVuSans-110"/>
      <use x="314.404297" xlink:href="#DejaVuSans-103"/>
      <use x="377.880859" xlink:href="#DejaVuSans-32"/>
      <use x="409.667969" xlink:href="#DejaVuSans-69"/>
      <use x="472.851562" xlink:href="#DejaVuSans-110"/>
      <use x="536.230469" xlink:href="#DejaVuSans-101"/>
      <use x="597.753906" xlink:href="#DejaVuSans-114"/>
      <use x="637.117188" xlink:href="#DejaVuSans-103"/>
      <use x="700.59375" xlink:href="#DejaVuSans-121"/>
      <use x="759.773438" xlink:href="#DejaVuSans-32"/>
      <use x="791.560547" xlink:href="#DejaVuSans-91"/>
      <use x="830.574219" xlink:href="#DejaVuSans-101"/>
      <use x="892.097656" xlink:href="#DejaVuSans-86"/>
      <use x="960.505859" xlink:href="#DejaVuSans-93"/>
     </g>
    </g>
   </g>
   <g id="matplotlib.axis_2">
    <g id="ytick_1"/>
    <g id="ytick_2"/>
    <g id="ytick_3"/>
    <g id="ytick_4"/>
    <g id="ytick_5"/>
    <g id="ytick_6"/>
    <g id="ytick_7"/>
    <g id="ytick_8"/>
    <g id="text_7">
     <!-- Intensity [a.u.] -->
     <g transform="translate(50.688437 225.857687)rotate(-90)scale(0.14 -0.14)">
      <defs>
       <path d="M 9.8125 72.90625 
L 19.671875 72.90625 
L 19.671875 0 
L 9.8125 0 
z
" id="DejaVuSans-73"/>
       <path d="M 18.3125 70.21875 
L 18.3125 54.6875 
L 36.8125 54.6875 
L 36.8125 47.703125 
L 18.3125 47.703125 
L 18.3125 18.015625 
Q 18.3125 11.328125 20.140625 9.421875 
Q 21.96875 7.515625 27.59375 7.515625 
L 36.8125 7.515625 
L 36.8125 0 
L 27.59375 0 
Q 17.1875 0 13.234375 3.875 
Q 9.28125 7.765625 9.28125 18.015625 
L 9.28125 47.703125 
L 2.6875 47.703125 
L 2.6875 54.6875 
L 9.28125 54.6875 
L 9.28125 70.21875 
z
" id="DejaVuSans-116"/>
       <path d="M 44.28125 53.078125 
L 44.28125 44.578125 
Q 40.484375 46.53125 36.375 47.5 
Q 32.28125 48.484375 27.875 48.484375 
Q 21.1875 48.484375 17.84375 46.4375 
Q 14.5 44.390625 14.5 40.28125 
Q 14.5 37.15625 16.890625 35.375 
Q 19.28125 33.59375 26.515625 31.984375 
L 29.59375 31.296875 
Q 39.15625 29.25 43.1875 25.515625 
Q 47.21875 21.78125 47.21875 15.09375 
Q 47.21875 7.46875 41.1875 3.015625 
Q 35.15625 -1.421875 24.609375 -1.421875 
Q 20.21875 -1.421875 15.453125 -0.5625 
Q 10.6875 0.296875 5.421875 2 
L 5.421875 11.28125 
Q 10.40625 8.6875 15.234375 7.390625 
Q 20.0625 6.109375 24.8125 6.109375 
Q 31.15625 6.109375 34.5625 8.28125 
Q 37.984375 10.453125 37.984375 14.40625 
Q 37.984375 18.0625 35.515625 20.015625 
Q 33.0625 21.96875 24.703125 23.78125 
L 21.578125 24.515625 
Q 13.234375 26.265625 9.515625 29.90625 
Q 5.8125 33.546875 5.8125 39.890625 
Q 5.8125 47.609375 11.28125 51.796875 
Q 16.75 56 26.8125 56 
Q 31.78125 56 36.171875 55.265625 
Q 40.578125 54.546875 44.28125 53.078125 
z
" id="DejaVuSans-115"/>
       <path d="M 34.28125 27.484375 
Q 23.390625 27.484375 19.1875 25 
Q 14.984375 22.515625 14.984375 16.5 
Q 14.984375 11.71875 18.140625 8.90625 
Q 21.296875 6.109375 26.703125 6.109375 
Q 34.1875 6.109375 38.703125 11.40625 
Q 43.21875 16.703125 43.21875 25.484375 
L 43.21875 27.484375 
z
M 52.203125 31.203125 
L 52.203125 0 
L 43.21875 0 
L 43.21875 8.296875 
Q 40.140625 3.328125 35.546875 0.953125 
Q 30.953125 -1.421875 24.3125 -1.421875 
Q 15.921875 -1.421875 10.953125 3.296875 
Q 6 8.015625 6 15.921875 
Q 6 25.140625 12.171875 29.828125 
Q 18.359375 34.515625 30.609375 34.515625 
L 43.21875 34.515625 
L 43.21875 35.40625 
Q 43.21875 41.609375 39.140625 45 
Q 35.0625 48.390625 27.6875 48.390625 
Q 23 48.390625 18.546875 47.265625 
Q 14.109375 46.140625 10.015625 43.890625 
L 10.015625 52.203125 
Q 14.9375 54.109375 19.578125 55.046875 
Q 24.21875 56 28.609375 56 
Q 40.484375 56 46.34375 49.84375 
Q 52.203125 43.703125 52.203125 31.203125 
z
" id="DejaVuSans-97"/>
       <path d="M 10.6875 12.40625 
L 21 12.40625 
L 21 0 
L 10.6875 0 
z
" id="DejaVuSans-46"/>
       <path d="M 8.5 21.578125 
L 8.5 54.6875 
L 17.484375 54.6875 
L 17.484375 21.921875 
Q 17.484375 14.15625 20.5 10.265625 
Q 23.53125 6.390625 29.59375 6.390625 
Q 36.859375 6.390625 41.078125 11.03125 
Q 45.3125 15.671875 45.3125 23.6875 
L 45.3125 54.6875 
L 54.296875 54.6875 
L 54.296875 0 
L 45.3125 0 
L 45.3125 8.40625 
Q 42.046875 3.421875 37.71875 1 
Q 33.40625 -1.421875 27.6875 -1.421875 
Q 18.265625 -1.421875 13.375 4.4375 
Q 8.5 10.296875 8.5 21.578125 
z
M 31.109375 56 
z
" id="DejaVuSans-117"/>
      </defs>
      <use xlink:href="#DejaVuSans-73"/>
      <use x="29.492188" xlink:href="#DejaVuSans-110"/>
      <use x="92.871094" xlink:href="#DejaVuSans-116"/>
      <use x="132.080078" xlink:href="#DejaVuSans-101"/>
      <use x="193.603516" xlink:href="#DejaVuSans-110"/>
      <use x="256.982422" xlink:href="#DejaVuSans-115"/>
      <use x="309.082031" xlink:href="#DejaVuSans-105"/>
      <use x="336.865234" xlink:href="#DejaVuSans-116"/>
      <use x="376.074219" xlink:href="#DejaVuSans-121"/>
      <use x="435.253906" xlink:href="#DejaVuSans-32"/>
      <use x="467.041016" xlink:href="#DejaVuSans-91"/>
      <use x="506.054688" xlink:href="#DejaVuSans-97"/>
      <use x="567.333984" xlink:href="#DejaVuSans-46"/>
      <use x="599.121094" xlink:href="#DejaVuSans-117"/>
      <use x="662.5" xlink:href="#DejaVuSans-46"/>
      <use x="694.287109" xlink:href="#DejaVuSans-93"/>
     </g>
    </g>
   </g>
   <g id="line2d_6">
    <path clip-path="url(#p5da16bdcfc)" d="M 70.586182 80.968038 
L 75.780655 81.670174 
L 80.975127 81.075286 
L 86.1696 81.033392 
L 91.364073 80.569212 
L 96.558545 81.33335 
L 101.753018 80.862467 
L 106.947491 81.291456 
L 112.141964 80.086599 
L 117.336436 79.952539 
L 122.530909 77.631638 
L 127.725382 74.870017 
L 132.919855 70.715856 
L 138.114327 67.496758 
L 143.3088 62.627055 
L 148.503273 61.356843 
L 153.697745 64.363122 
L 158.892218 71.062734 
L 164.086691 76.461971 
L 169.281164 80.388232 
L 174.475636 81.1088 
L 179.670109 82.012025 
L 184.864582 82.553289 
L 190.059055 83.329157 
L 195.253527 83.451486 
L 200.448 83.622412 
L 205.642473 83.211855 
L 210.836945 82.833138 
L 216.031418 82.595183 
L 221.225891 82.04554 
L 226.420364 79.929079 
L 231.614836 77.608178 
L 236.809309 74.229884 
L 242.003782 69.16412 
L 247.198255 61.934974 
L 252.392727 55.949228 
L 257.5872 53.568 
L 262.781673 57.871302 
L 267.976145 67.412971 
L 273.170618 75.937464 
L 278.365091 80.830627 
L 283.559564 82.476205 
L 288.754036 83.322454 
L 293.948509 83.882152 
L 299.142982 84.361413 
L 304.337455 84.378171 
L 309.531927 84.65802 
L 314.7264 84.765267 
L 319.920873 84.146919 
L 325.115345 84.48877 
L 330.309818 83.883827 
" style="fill:none;stroke:#4e5f69;stroke-linecap:square;stroke-width:1.5;"/>
   </g>
   <g id="line2d_7">
    <path clip-path="url(#p5da16bdcfc)" d="M 70.586182 89.340039 
L 75.780655 89.908116 
L 80.975127 90.593494 
L 86.1696 89.318255 
L 91.364073 89.549507 
L 96.558545 89.234468 
L 101.753018 89.341715 
L 106.947491 88.545738 
L 112.141964 88.884238 
L 117.336436 87.508455 
L 122.530909 86.097481 
L 127.725382 83.89053 
L 132.919855 79.367706 
L 138.114327 74.538221 
L 143.3088 70.491307 
L 148.503273 68.591016 
L 153.697745 73.018324 
L 158.892218 80.237415 
L 164.086691 85.262962 
L 169.281164 89.229441 
L 174.475636 89.869574 
L 179.670109 91.748079 
L 184.864582 90.576736 
L 190.059055 91.615695 
L 195.253527 91.069404 
L 200.448 91.592235 
L 205.642473 91.912302 
L 210.836945 92.111715 
L 216.031418 91.483312 
L 221.225891 90.244939 
L 226.420364 88.914401 
L 231.614836 85.842768 
L 236.809309 82.22652 
L 242.003782 76.249152 
L 247.198255 70.28519 
L 252.392727 64.259226 
L 257.5872 61.407116 
L 262.781673 65.723824 
L 267.976145 76.349697 
L 273.170618 84.151946 
L 278.365091 89.175817 
L 283.559564 91.29898 
L 288.754036 92.173717 
L 293.948509 92.515568 
L 299.142982 92.849041 
L 304.337455 93.123862 
L 309.531927 93.143971 
L 314.7264 92.683142 
L 319.920873 93.261273 
L 325.115345 92.760226 
L 330.309818 92.626167 
" style="fill:none;stroke:#51636e;stroke-linecap:square;stroke-width:1.5;"/>
   </g>
   <g id="line2d_8">
    <path clip-path="url(#p5da16bdcfc)" d="M 70.586182 98.146057 
L 75.780655 98.355525 
L 80.975127 97.861181 
L 86.1696 98.405797 
L 91.364073 97.777394 
L 96.558545 98.216439 
L 101.753018 98.256656 
L 106.947491 98.040486 
L 112.141964 97.288078 
L 117.336436 95.830184 
L 122.530909 94.446022 
L 127.725382 91.449797 
L 132.919855 86.844861 
L 138.114327 82.251656 
L 143.3088 77.976841 
L 148.503273 77.366871 
L 153.697745 80.413368 
L 158.892218 88.218969 
L 164.086691 94.357207 
L 169.281164 97.016608 
L 174.475636 98.265035 
L 179.670109 99.139772 
L 184.864582 99.764823 
L 190.059055 100.113377 
L 195.253527 99.935749 
L 200.448 100.49377 
L 205.642473 100.540691 
L 210.836945 100.363063 
L 216.031418 99.58887 
L 221.225891 99.091175 
L 226.420364 97.123856 
L 231.614836 94.591811 
L 236.809309 89.562913 
L 242.003782 84.828945 
L 247.198255 77.065238 
L 252.392727 71.555402 
L 257.5872 69.698681 
L 262.781673 74.910235 
L 267.976145 84.182109 
L 273.170618 93.346736 
L 278.365091 98.127624 
L 283.559564 99.645845 
L 288.754036 100.803782 
L 293.948509 100.517231 
L 299.142982 101.380237 
L 304.337455 101.998586 
L 309.531927 102.375627 
L 314.7264 101.789118 
L 319.920873 101.763982 
L 325.115345 101.340019 
L 330.309818 101.09201 
" style="fill:none;stroke:#546772;stroke-linecap:square;stroke-width:1.5;"/>
   </g>
   <g id="line2d_9">
    <path clip-path="url(#p5da16bdcfc)" d="M 70.586182 106.526437 
L 75.780655 106.608549 
L 80.975127 106.117557 
L 86.1696 106.930291 
L 91.364073 107.027484 
L 96.558545 107.357605 
L 101.753018 106.482868 
L 106.947491 106.563304 
L 112.141964 105.596401 
L 117.336436 104.32619 
L 122.530909 102.891755 
L 127.725382 99.369348 
L 132.919855 95.907268 
L 138.114327 90.819719 
L 143.3088 86.78621 
L 148.503273 85.385291 
L 153.697745 90.147746 
L 158.892218 97.83437 
L 164.086691 103.089493 
L 169.281164 105.712027 
L 174.475636 106.797907 
L 179.670109 107.724592 
L 184.864582 108.604356 
L 190.059055 109.123836 
L 195.253527 108.904314 
L 200.448 108.646249 
L 205.642473 109.184162 
L 210.836945 108.43343 
L 216.031418 107.915626 
L 221.225891 107.667617 
L 226.420364 105.413745 
L 231.614836 102.593474 
L 236.809309 98.603535 
L 242.003782 92.146905 
L 247.198255 85.537783 
L 252.392727 78.402479 
L 257.5872 77.472443 
L 262.781673 83.109635 
L 267.976145 93.370196 
L 273.170618 101.852796 
L 278.365091 106.546546 
L 283.559564 107.642481 
L 288.754036 109.288058 
L 293.948509 109.898028 
L 299.142982 109.559528 
L 304.337455 110.030411 
L 309.531927 110.228149 
L 314.7264 109.877919 
L 319.920873 110.040466 
L 325.115345 109.866189 
L 330.309818 109.691912 
" style="fill:none;stroke:#586b76;stroke-linecap:square;stroke-width:1.5;"/>
   </g>
   <g id="line2d_10">
    <path clip-path="url(#p5da16bdcfc)" d="M 70.586182 115.077743 
L 75.780655 115.761445 
L 80.975127 115.587168 
L 86.1696 115.292238 
L 91.364073 115.178287 
L 96.558545 115.746363 
L 101.753018 114.55156 
L 106.947491 114.595129 
L 112.141964 114.34712 
L 117.336436 112.517211 
L 122.530909 110.655463 
L 127.725382 107.754755 
L 132.919855 103.583836 
L 138.114327 98.833111 
L 143.3088 94.501321 
L 148.503273 93.779077 
L 153.697745 98.769433 
L 158.892218 105.143951 
L 164.086691 110.928608 
L 169.281164 113.723744 
L 174.475636 115.560356 
L 179.670109 116.857379 
L 184.864582 116.730023 
L 190.059055 116.828892 
L 195.253527 117.192528 
L 200.448 117.041711 
L 205.642473 116.961275 
L 210.836945 116.550719 
L 216.031418 115.825123 
L 221.225891 115.758094 
L 226.420364 113.44222 
L 231.614836 111.134725 
L 236.809309 106.333727 
L 242.003782 100.066456 
L 247.198255 93.430523 
L 252.392727 87.957553 
L 257.5872 85.217717 
L 262.781673 91.925707 
L 267.976145 102.295192 
L 273.170618 110.903472 
L 278.365091 114.886708 
L 283.559564 117.033332 
L 288.754036 117.705304 
L 293.948509 117.668438 
L 299.142982 118.454361 
L 304.337455 118.286786 
L 309.531927 118.481172 
L 314.7264 118.077319 
L 319.920873 119.290555 
L 325.115345 118.715776 
L 330.309818 117.971747 
" style="fill:none;stroke:#5b6f7b;stroke-linecap:square;stroke-width:1.5;"/>
   </g>
   <g id="line2d_11">
    <path clip-path="url(#p5da16bdcfc)" d="M 70.586182 123.365957 
L 75.780655 122.66047 
L 80.975127 123.686023 
L 86.1696 123.003997 
L 91.364073 124.279236 
L 96.558545 123.322388 
L 101.753018 123.677645 
L 106.947491 122.792853 
L 112.141964 122.796205 
L 117.336436 121.40534 
L 122.530909 118.942001 
L 127.725382 116.0547 
L 132.919855 112.0966 
L 138.114327 107.112947 
L 143.3088 103.312366 
L 148.503273 103.077763 
L 153.697745 107.743025 
L 158.892218 114.511342 
L 164.086691 120.38649 
L 169.281164 122.950373 
L 174.475636 124.135122 
L 179.670109 124.865745 
L 184.864582 124.909314 
L 190.059055 125.614801 
L 195.253527 125.613125 
L 200.448 126.011952 
L 205.642473 125.100349 
L 210.836945 125.512581 
L 216.031418 124.942829 
L 221.225891 124.1988 
L 226.420364 122.429218 
L 231.614836 119.020761 
L 236.809309 114.975523 
L 242.003782 109.041724 
L 247.198255 102.052209 
L 252.392727 96.282634 
L 257.5872 94.523106 
L 262.781673 100.585936 
L 267.976145 110.997314 
L 273.170618 118.863241 
L 278.365091 123.267088 
L 283.559564 124.760173 
L 288.754036 126.223095 
L 293.948509 126.213041 
L 299.142982 126.541486 
L 304.337455 127.292218 
L 309.531927 127.221836 
L 314.7264 127.305624 
L 319.920873 127.148104 
L 325.115345 126.667166 
L 330.309818 126.199635 
" style="fill:none;stroke:#5e7380;stroke-linecap:square;stroke-width:1.5;"/>
   </g>
   <g id="line2d_12">
    <path clip-path="url(#p5da16bdcfc)" d="M 70.586182 132.02451 
L 75.780655 131.608926 
L 80.975127 131.734607 
L 86.1696 131.888775 
L 91.364073 131.416216 
L 96.558545 132.279222 
L 101.753018 131.235236 
L 106.947491 131.355889 
L 112.141964 131.044201 
L 117.336436 129.722042 
L 122.530909 127.474873 
L 127.725382 124.564112 
L 132.919855 120.639527 
L 138.114327 115.977616 
L 143.3088 112.202171 
L 148.503273 111.531875 
L 153.697745 116.071457 
L 158.892218 123.389417 
L 164.086691 128.115006 
L 169.281164 131.270426 
L 174.475636 132.580856 
L 179.670109 133.286343 
L 184.864582 133.675114 
L 190.059055 133.606409 
L 195.253527 134.440928 
L 200.448 134.00356 
L 205.642473 133.777335 
L 210.836945 133.970045 
L 216.031418 132.9646 
L 221.225891 132.552368 
L 226.420364 130.223088 
L 231.614836 127.446386 
L 236.809309 123.622345 
L 242.003782 117.093659 
L 247.198255 110.19631 
L 252.392727 104.389868 
L 257.5872 103.632433 
L 262.781673 109.293085 
L 267.976145 120.33119 
L 273.170618 127.394438 
L 278.365091 131.784879 
L 283.559564 133.988478 
L 288.754036 134.181188 
L 293.948509 134.900081 
L 299.142982 135.12463 
L 304.337455 134.633638 
L 309.531927 135.347504 
L 314.7264 135.337449 
L 319.920873 135.630704 
L 325.115345 135.117927 
L 330.309818 134.95538 
" style="fill:none;stroke:#617784;stroke-linecap:square;stroke-width:1.5;"/>
   </g>
   <g id="line2d_13">
    <path clip-path="url(#p5da16bdcfc)" d="M 70.586182 140.899233 
L 75.780655 140.388132 
L 80.975127 139.96417 
L 86.1696 139.96417 
L 91.364073 140.052984 
L 96.558545 140.636142 
L 101.753018 140.227261 
L 106.947491 139.448042 
L 112.141964 139.662536 
L 117.336436 138.164424 
L 122.530909 135.942392 
L 127.725382 132.832217 
L 132.919855 128.807087 
L 138.114327 124.255775 
L 143.3088 120.559091 
L 148.503273 119.856956 
L 153.697745 124.451837 
L 158.892218 131.399458 
L 164.086691 136.374733 
L 169.281164 139.151435 
L 174.475636 140.733335 
L 179.670109 141.648289 
L 184.864582 141.62818 
L 190.059055 141.983437 
L 195.253527 142.028682 
L 200.448 142.434212 
L 205.642473 141.881217 
L 210.836945 142.564919 
L 216.031418 141.601369 
L 221.225891 141.036644 
L 226.420364 138.916832 
L 231.614836 136.161914 
L 236.809309 132.069755 
L 242.003782 126.179526 
L 247.198255 119.689381 
L 252.392727 113.422111 
L 257.5872 112.589268 
L 262.781673 118.130943 
L 267.976145 128.678055 
L 273.170618 136.021152 
L 278.365091 139.877031 
L 283.559564 140.996426 
L 288.754036 142.955367 
L 293.948509 143.11959 
L 299.142982 143.377654 
L 304.337455 144.078113 
L 309.531927 143.230189 
L 314.7264 143.70945 
L 319.920873 143.615609 
L 325.115345 144.208821 
L 330.309818 143.860267 
" style="fill:none;stroke:#657b89;stroke-linecap:square;stroke-width:1.5;"/>
   </g>
   <g id="line2d_14">
    <path clip-path="url(#p5da16bdcfc)" d="M 70.586182 148.37974 
L 75.780655 148.755106 
L 80.975127 149.551083 
L 86.1696 148.414931 
L 91.364073 149.514217 
L 96.558545 148.999764 
L 101.753018 148.740024 
L 106.947491 147.878694 
L 112.141964 147.766419 
L 117.336436 146.58167 
L 122.530909 145.271241 
L 127.725382 141.532663 
L 132.919855 137.08022 
L 138.114327 133.346669 
L 143.3088 128.595944 
L 148.503273 128.480318 
L 153.697745 133.544407 
L 158.892218 139.985954 
L 164.086691 145.298053 
L 169.281164 147.930642 
L 174.475636 149.678439 
L 179.670109 149.892934 
L 184.864582 150.548149 
L 190.059055 151.069304 
L 195.253527 150.760968 
L 200.448 151.655813 
L 205.642473 150.070563 
L 210.836945 149.919746 
L 216.031418 150.430847 
L 221.225891 149.128796 
L 226.420364 147.210073 
L 231.614836 144.503752 
L 236.809309 139.521774 
L 242.003782 134.64872 
L 247.198255 128.126737 
L 252.392727 121.50756 
L 257.5872 120.559091 
L 262.781673 127.164861 
L 267.976145 136.421654 
L 273.170618 144.168603 
L 278.365091 148.532233 
L 283.559564 150.281706 
L 288.754036 150.910109 
L 293.948509 151.632353 
L 299.142982 151.769764 
L 304.337455 152.176969 
L 309.531927 152.664609 
L 314.7264 151.753006 
L 319.920873 152.352922 
L 325.115345 152.118318 
L 330.309818 152.106588 
" style="fill:none;stroke:#687f8d;stroke-linecap:square;stroke-width:1.5;"/>
   </g>
   <g id="line2d_15">
    <path clip-path="url(#p5da16bdcfc)" d="M 70.586182 157.004778 
L 75.780655 157.180731 
L 80.975127 157.244409 
L 86.1696 157.804107 
L 91.364073 157.440471 
L 96.558545 157.807458 
L 101.753018 156.882449 
L 106.947491 157.009805 
L 112.141964 155.627319 
L 117.336436 155.003944 
L 122.530909 152.77856 
L 127.725382 149.775632 
L 132.919855 146.090678 
L 138.114327 141.353359 
L 143.3088 136.942809 
L 148.503273 136.155211 
L 153.697745 141.629856 
L 158.892218 148.966249 
L 164.086691 154.117477 
L 169.281164 156.510435 
L 174.475636 157.981735 
L 179.670109 158.489485 
L 184.864582 158.84139 
L 190.059055 159.11286 
L 195.253527 159.062588 
L 200.448 159.38433 
L 205.642473 159.535147 
L 210.836945 159.134645 
L 216.031418 158.380561 
L 221.225891 157.296357 
L 226.420364 156.279182 
L 231.614836 152.853968 
L 236.809309 148.357956 
L 242.003782 142.30518 
L 247.198255 135.624001 
L 252.392727 130.182871 
L 257.5872 128.478642 
L 262.781673 134.873269 
L 267.976145 145.311459 
L 273.170618 152.922674 
L 278.365091 156.564058 
L 283.559564 158.801172 
L 288.754036 159.920567 
L 293.948509 160.520482 
L 299.142982 159.957434 
L 304.337455 160.733302 
L 309.531927 160.52551 
L 314.7264 160.141765 
L 319.920873 160.592539 
L 325.115345 159.598825 
L 330.309818 160.419938 
" style="fill:none;stroke:#6b8392;stroke-linecap:square;stroke-width:1.5;"/>
   </g>
   <g id="line2d_16">
    <path clip-path="url(#p5da16bdcfc)" d="M 70.586182 165.822526 
L 75.780655 165.343265 
L 80.975127 164.902545 
L 86.1696 166.099024 
L 91.364073 164.976277 
L 96.558545 165.406943 
L 101.753018 165.482351 
L 106.947491 164.95952 
L 112.141964 164.103216 
L 117.336436 163.112853 
L 122.530909 161.32819 
L 127.725382 157.685129 
L 132.919855 154.016932 
L 138.114327 148.595911 
L 143.3088 144.314393 
L 148.503273 144.902578 
L 153.697745 149.633194 
L 158.892218 156.213829 
L 164.086691 161.949889 
L 169.281164 165.120391 
L 174.475636 166.422442 
L 179.670109 166.336979 
L 184.864582 167.164795 
L 190.059055 167.406101 
L 195.253527 167.863579 
L 200.448 167.081008 
L 205.642473 166.725751 
L 210.836945 167.181552 
L 216.031418 167.163119 
L 221.225891 165.244396 
L 226.420364 164.140083 
L 231.614836 161.61139 
L 236.809309 156.270804 
L 242.003782 150.412414 
L 247.198255 143.077696 
L 252.392727 137.665053 
L 257.5872 136.004394 
L 262.781673 143.463117 
L 267.976145 153.437126 
L 273.170618 162.147627 
L 278.365091 165.544353 
L 283.559564 167.578703 
L 288.754036 168.471873 
L 293.948509 168.498685 
L 299.142982 168.776857 
L 304.337455 169.081842 
L 309.531927 169.073464 
L 314.7264 169.313095 
L 319.920873 169.036597 
L 325.115345 169.088545 
L 330.309818 169.197468 
" style="fill:none;stroke:#6e8796;stroke-linecap:square;stroke-width:1.5;"/>
   </g>
   <g id="line2d_17">
    <path clip-path="url(#p5da16bdcfc)" d="M 70.586182 174.102362 
L 75.780655 173.966627 
L 80.975127 173.616397 
L 86.1696 174.095659 
L 91.364073 173.726996 
L 96.558545 174.274963 
L 101.753018 173.391848 
L 106.947491 173.220922 
L 112.141964 172.161854 
L 117.336436 171.607184 
L 122.530909 169.763869 
L 127.725382 165.711928 
L 132.919855 161.628147 
L 138.114327 157.021536 
L 143.3088 152.99473 
L 148.503273 152.40487 
L 153.697745 157.490743 
L 158.892218 164.812055 
L 164.086691 170.347027 
L 169.281164 172.840529 
L 174.475636 174.729089 
L 179.670109 175.183215 
L 184.864582 175.54685 
L 190.059055 175.959083 
L 195.253527 176.027788 
L 200.448 175.845132 
L 205.642473 176.203741 
L 210.836945 175.124564 
L 216.031418 175.665828 
L 221.225891 174.045387 
L 226.420364 172.900856 
L 231.614836 169.418666 
L 236.809309 164.820433 
L 242.003782 157.956599 
L 247.198255 151.260339 
L 252.392727 144.564078 
L 257.5872 144.10325 
L 262.781673 150.683884 
L 267.976145 161.380137 
L 273.170618 169.220929 
L 278.365091 173.845973 
L 283.559564 175.833402 
L 288.754036 175.989246 
L 293.948509 177.125398 
L 299.142982 177.173995 
L 304.337455 177.561091 
L 309.531927 177.445465 
L 314.7264 177.643202 
L 319.920873 177.881157 
L 325.115345 177.546009 
L 330.309818 177.195779 
" style="fill:none;stroke:#728b9a;stroke-linecap:square;stroke-width:1.5;"/>
   </g>
   <g id="line2d_18">
    <path clip-path="url(#p5da16bdcfc)" d="M 70.586182 182.169378 
L 75.780655 181.750443 
L 80.975127 182.46766 
L 86.1696 182.851405 
L 91.364073 182.249814 
L 96.558545 182.040346 
L 101.753018 182.486093 
L 106.947491 181.695144 
L 112.141964 181.075119 
L 117.336436 179.747933 
L 122.530909 177.958241 
L 127.725382 174.259881 
L 132.919855 169.534292 
L 138.114327 165.070119 
L 143.3088 160.766816 
L 148.503273 160.414911 
L 153.697745 165.86442 
L 158.892218 173.130432 
L 164.086691 178.965362 
L 169.281164 181.777255 
L 174.475636 183.007249 
L 179.670109 183.355803 
L 184.864582 183.575325 
L 190.059055 184.074695 
L 195.253527 184.734937 
L 200.448 184.393086 
L 205.642473 184.18697 
L 210.836945 183.984205 
L 216.031418 184.014369 
L 221.225891 182.393927 
L 226.420364 180.404823 
L 231.614836 177.50244 
L 236.809309 173.676724 
L 242.003782 166.957003 
L 247.198255 159.253622 
L 252.392727 153.172359 
L 257.5872 152.894186 
L 262.781673 159.437954 
L 267.976145 170.330269 
L 273.170618 178.279984 
L 278.365091 182.367116 
L 283.559564 183.878634 
L 288.754036 184.341138 
L 293.948509 185.276202 
L 299.142982 185.54432 
L 304.337455 185.869414 
L 309.531927 185.62308 
L 314.7264 185.88282 
L 319.920873 185.978337 
L 325.115345 185.613026 
L 330.309818 184.748343 
" style="fill:none;stroke:#758f9f;stroke-linecap:square;stroke-width:1.5;"/>
   </g>
   <g id="line2d_19">
    <path clip-path="url(#p5da16bdcfc)" d="M 70.586182 189.862704 
L 75.780655 190.801119 
L 80.975127 190.623491 
L 86.1696 190.653654 
L 91.364073 190.657005 
L 96.558545 190.782686 
L 101.753018 190.472674 
L 106.947491 190.352021 
L 112.141964 188.902505 
L 117.336436 189.018131 
L 122.530909 186.251483 
L 127.725382 183.317261 
L 132.919855 179.039094 
L 138.114327 173.80408 
L 143.3088 169.509156 
L 148.503273 169.194117 
L 153.697745 174.41405 
L 158.892218 182.006831 
L 164.086691 187.43288 
L 169.281164 190.549758 
L 174.475636 191.122861 
L 179.670109 191.724452 
L 184.864582 192.391397 
L 190.059055 191.912135 
L 195.253527 192.503672 
L 200.448 192.801954 
L 205.642473 192.791899 
L 210.836945 192.677949 
L 216.031418 192.248959 
L 221.225891 190.558137 
L 226.420364 189.733672 
L 231.614836 186.001797 
L 236.809309 181.701846 
L 242.003782 175.27538 
L 247.198255 168.701449 
L 252.392727 161.840966 
L 257.5872 161.187427 
L 262.781673 168.339489 
L 267.976145 178.616808 
L 273.170618 186.82291 
L 278.365091 190.799443 
L 283.559564 192.682976 
L 288.754036 193.525874 
L 293.948509 193.442087 
L 299.142982 194.31012 
L 304.337455 194.011839 
L 309.531927 194.080544 
L 314.7264 194.243091 
L 319.920873 194.28666 
L 325.115345 194.042002 
L 330.309818 193.737017 
" style="fill:none;stroke:#7893a3;stroke-linecap:square;stroke-width:1.5;"/>
   </g>
   <g id="line2d_20">
    <path clip-path="url(#p5da16bdcfc)" d="M 70.586182 199.451293 
L 75.780655 199.297125 
L 80.975127 198.851378 
L 86.1696 199.107766 
L 91.364073 199.077603 
L 96.558545 198.672074 
L 101.753018 198.744131 
L 106.947491 198.031941 
L 112.141964 197.855988 
L 117.336436 196.619291 
L 122.530909 194.995498 
L 127.725382 191.523363 
L 132.919855 187.446286 
L 138.114327 182.509554 
L 143.3088 178.549778 
L 148.503273 178.409016 
L 153.697745 182.767618 
L 158.892218 190.584949 
L 164.086691 195.46303 
L 169.281164 198.23303 
L 174.475636 199.628922 
L 179.670109 200.471819 
L 184.864582 200.760047 
L 190.059055 200.889079 
L 195.253527 201.763816 
L 200.448 201.147143 
L 205.642473 201.229254 
L 210.836945 200.946054 
L 216.031418 200.607554 
L 221.225891 199.603786 
L 226.420364 198.688831 
L 231.614836 194.656999 
L 236.809309 190.22634 
L 242.003782 184.062965 
L 247.198255 176.81371 
L 252.392727 171.280414 
L 257.5872 170.889967 
L 262.781673 177.287945 
L 267.976145 187.821652 
L 273.170618 195.060852 
L 278.365091 199.478105 
L 283.559564 200.548904 
L 288.754036 201.979986 
L 293.948509 201.788952 
L 299.142982 202.21459 
L 304.337455 202.172696 
L 309.531927 202.673743 
L 314.7264 202.243078 
L 319.920873 202.492763 
L 325.115345 201.87609 
L 330.309818 202.571523 
" style="fill:none;stroke:#7b98a8;stroke-linecap:square;stroke-width:1.5;"/>
   </g>
   <g id="line2d_21">
    <path clip-path="url(#p5da16bdcfc)" d="M 70.586182 207.042399 
L 75.780655 207.312194 
L 80.975127 207.116132 
L 86.1696 207.017263 
L 91.364073 207.550149 
L 96.558545 207.235109 
L 101.753018 208.021032 
L 106.947491 207.419441 
L 112.141964 206.449187 
L 117.336436 205.061674 
L 122.530909 203.00554 
L 127.725382 200.290839 
L 132.919855 195.543466 
L 138.114327 191.360817 
L 143.3088 187.389311 
L 148.503273 187.14968 
L 153.697745 191.814942 
L 158.892218 198.82289 
L 164.086691 204.40981 
L 169.281164 207.829997 
L 174.475636 208.512024 
L 179.670109 208.481861 
L 184.864582 208.815333 
L 190.059055 209.070046 
L 195.253527 209.432006 
L 200.448 210.020191 
L 205.642473 209.849265 
L 210.836945 208.884038 
L 216.031418 209.048261 
L 221.225891 208.228824 
L 226.420364 205.921329 
L 231.614836 203.223386 
L 236.809309 197.904585 
L 242.003782 192.889092 
L 247.198255 185.782275 
L 252.392727 179.483166 
L 257.5872 179.389324 
L 262.781673 185.607998 
L 267.976145 195.397676 
L 273.170618 203.873573 
L 278.365091 206.868122 
L 283.559564 209.515793 
L 288.754036 209.487305 
L 293.948509 210.047003 
L 299.142982 210.596646 
L 304.337455 210.96866 
L 309.531927 210.794383 
L 314.7264 210.303391 
L 319.920873 210.791031 
L 325.115345 210.563131 
L 330.309818 210.422368 
" style="fill:none;stroke:#7e9cac;stroke-linecap:square;stroke-width:1.5;"/>
   </g>
   <g id="line2d_22">
    <path clip-path="url(#p5da16bdcfc)" d="M 70.586182 216.433251 
L 75.780655 215.468024 
L 80.975127 215.588677 
L 86.1696 216.150051 
L 91.364073 216.0914 
L 96.558545 215.211636 
L 101.753018 216.12659 
L 106.947491 215.243475 
L 112.141964 215.213311 
L 117.336436 213.579464 
L 122.530909 211.732798 
L 127.725382 208.220445 
L 132.919855 203.550155 
L 138.114327 199.349073 
L 143.3088 195.756285 
L 148.503273 195.536763 
L 153.697745 200.287488 
L 158.892218 207.444577 
L 164.086691 212.873977 
L 169.281164 215.464673 
L 174.475636 216.599149 
L 179.670109 217.068357 
L 184.864582 217.277824 
L 190.059055 217.92466 
L 195.253527 217.777195 
L 200.448 217.832494 
L 205.642473 217.690056 
L 210.836945 217.74368 
L 216.031418 217.028139 
L 221.225891 216.684612 
L 226.420364 214.687129 
L 231.614836 211.298781 
L 236.809309 206.708927 
L 242.003782 201.222551 
L 247.198255 194.023569 
L 252.392727 187.933927 
L 257.5872 186.834641 
L 262.781673 194.132492 
L 267.976145 204.067959 
L 273.170618 212.322659 
L 278.365091 215.972422 
L 283.559564 217.442047 
L 288.754036 218.38884 
L 293.948509 218.631823 
L 299.142982 218.956917 
L 304.337455 219.481423 
L 309.531927 218.824533 
L 314.7264 218.799397 
L 319.920873 219.466342 
L 325.115345 218.997134 
L 330.309818 218.502791 
" style="fill:none;stroke:#82a0b1;stroke-linecap:square;stroke-width:1.5;"/>
   </g>
   <g id="line2d_23">
    <path clip-path="url(#p5da16bdcfc)" d="M 70.586182 224.657787 
L 75.780655 224.724816 
L 80.975127 224.500267 
L 86.1696 224.384641 
L 91.364073 224.409777 
L 96.558545 223.932191 
L 101.753018 223.496498 
L 106.947491 223.305464 
L 112.141964 223.352385 
L 117.336436 222.129094 
L 122.530909 220.067933 
L 127.725382 216.456711 
L 132.919855 211.932211 
L 138.114327 207.657396 
L 143.3088 203.530046 
L 148.503273 203.823301 
L 153.697745 208.218769 
L 158.892218 215.935556 
L 164.086691 221.026456 
L 169.281164 223.793105 
L 174.475636 224.904121 
L 179.670109 225.500684 
L 184.864582 226.157575 
L 190.059055 225.921295 
L 195.253527 226.444127 
L 200.448 226.727327 
L 205.642473 226.620079 
L 210.836945 226.625107 
L 216.031418 225.482251 
L 221.225891 224.537133 
L 226.420364 222.971992 
L 231.614836 220.238858 
L 236.809309 215.09601 
L 242.003782 208.976204 
L 247.198255 202.278268 
L 252.392727 195.838396 
L 257.5872 195.999267 
L 262.781673 202.269889 
L 267.976145 212.989603 
L 273.170618 219.92717 
L 278.365091 223.925488 
L 283.559564 225.408519 
L 288.754036 226.574834 
L 293.948509 226.685433 
L 299.142982 227.704284 
L 304.337455 227.925481 
L 309.531927 227.54844 
L 314.7264 227.397623 
L 319.920873 227.664066 
L 325.115345 227.709311 
L 330.309818 227.307133 
" style="fill:none;stroke:#85a4b5;stroke-linecap:square;stroke-width:1.5;"/>
   </g>
   <g id="line2d_24">
    <path clip-path="url(#p5da16bdcfc)" d="M 70.586182 233.162171 
L 75.780655 233.090115 
L 80.975127 233.06833 
L 86.1696 232.329328 
L 91.364073 233.076709 
L 96.558545 232.07294 
L 101.753018 232.748263 
L 106.947491 231.669086 
L 112.141964 231.276963 
L 117.336436 229.64144 
L 122.530909 227.962348 
L 127.725382 224.951041 
L 132.919855 220.460056 
L 138.114327 215.427806 
L 143.3088 211.689229 
L 148.503273 212.466772 
L 153.697745 216.332706 
L 158.892218 224.644381 
L 164.086691 229.555977 
L 169.281164 233.133684 
L 174.475636 233.601216 
L 179.670109 233.740302 
L 184.864582 234.398868 
L 190.059055 234.913321 
L 195.253527 234.559739 
L 200.448 234.858021 
L 205.642473 234.60666 
L 210.836945 234.682068 
L 216.031418 233.596188 
L 221.225891 233.271095 
L 226.420364 230.66029 
L 231.614836 228.547181 
L 236.809309 223.005506 
L 242.003782 217.286203 
L 247.198255 209.437033 
L 252.392727 204.582412 
L 257.5872 204.304239 
L 262.781673 210.274903 
L 267.976145 221.306305 
L 273.170618 228.743243 
L 278.365091 232.466739 
L 283.559564 233.452075 
L 288.754036 235.256848 
L 293.948509 234.894887 
L 299.142982 235.863466 
L 304.337455 235.85006 
L 309.531927 235.888602 
L 314.7264 235.834978 
L 319.920873 235.628862 
L 325.115345 235.33058 
L 330.309818 236.014282 
" style="fill:none;stroke:#88a8ba;stroke-linecap:square;stroke-width:1.5;"/>
   </g>
   <g id="line2d_25">
    <path clip-path="url(#p5da16bdcfc)" d="M 70.586182 241.222485 
L 75.780655 240.496889 
L 80.975127 241.195673 
L 86.1696 240.550513 
L 91.364073 240.699654 
L 96.558545 240.641003 
L 101.753018 240.617542 
L 106.947491 241.331408 
L 112.141964 239.860108 
L 117.336436 238.596599 
L 122.530909 236.567277 
L 127.725382 234.046963 
L 132.919855 228.448313 
L 138.114327 224.275718 
L 143.3088 220.012633 
L 148.503273 219.535047 
L 153.697745 224.967799 
L 158.892218 232.62761 
L 164.086691 238.544651 
L 169.281164 240.770035 
L 174.475636 242.045274 
L 179.670109 242.065382 
L 184.864582 242.60162 
L 190.059055 242.903253 
L 195.253527 243.181426 
L 200.448 243.174723 
L 205.642473 243.509871 
L 210.836945 243.193156 
L 216.031418 242.668649 
L 221.225891 241.095129 
L 226.420364 240.067899 
L 231.614836 236.533762 
L 236.809309 231.34902 
L 242.003782 225.510739 
L 247.198255 218.481006 
L 252.392727 212.579047 
L 257.5872 211.509924 
L 262.781673 219.355743 
L 267.976145 230.278222 
L 273.170618 237.100162 
L 278.365091 241.101832 
L 283.559564 243.124451 
L 288.754036 243.742799 
L 293.948509 244.086326 
L 299.142982 243.999187 
L 304.337455 244.470071 
L 309.531927 244.43488 
L 314.7264 244.387959 
L 319.920873 244.443259 
L 325.115345 244.488504 
L 330.309818 244.305848 
" style="fill:none;stroke:#8bacbe;stroke-linecap:square;stroke-width:1.5;"/>
   </g>
   <g id="line2d_26">
    <path clip-path="url(#p5da16bdcfc)" d="M 70.586182 249.235877 
L 75.780655 249.10517 
L 80.975127 249.363234 
L 86.1696 249.728545 
L 91.364073 249.524105 
L 96.558545 249.110197 
L 101.753018 249.431939 
L 106.947491 248.711371 
L 112.141964 248.215351 
L 117.336436 246.925031 
L 122.530909 244.404717 
L 127.725382 241.425249 
L 132.919855 237.716835 
L 138.114327 231.610435 
L 143.3088 228.756649 
L 148.503273 228.423176 
L 153.697745 234.284918 
L 158.892218 241.383356 
L 164.086691 246.658588 
L 169.281164 248.632611 
L 174.475636 250.015097 
L 179.670109 251.230009 
L 184.864582 251.462937 
L 190.059055 251.178061 
L 195.253527 251.286984 
L 200.448 251.442828 
L 205.642473 251.834951 
L 210.836945 251.235036 
L 216.031418 250.227916 
L 221.225891 249.555944 
L 226.420364 247.816525 
L 231.614836 245.130312 
L 236.809309 239.603719 
L 242.003782 233.014706 
L 247.198255 226.139142 
L 252.392727 220.620927 
L 257.5872 220.024363 
L 262.781673 227.468004 
L 267.976145 237.329739 
L 273.170618 245.145394 
L 278.365091 249.058249 
L 283.559564 250.703826 
L 288.754036 251.935496 
L 293.948509 251.900305 
L 299.142982 253.051539 
L 304.337455 252.533735 
L 309.531927 253.012997 
L 314.7264 252.977807 
L 319.920873 252.922507 
L 325.115345 252.461679 
L 330.309818 252.651037 
" style="fill:none;stroke:#8fb0c3;stroke-linecap:square;stroke-width:1.5;"/>
   </g>
   <g id="line2d_27">
    <path clip-path="url(#p5da16bdcfc)" d="M 70.586182 258.160873 
L 75.780655 257.812319 
L 80.975127 257.968163 
L 86.1696 258.02849 
L 91.364073 258.04022 
L 96.558545 257.269379 
L 101.753018 257.175538 
L 106.947491 256.967746 
L 112.141964 256.542107 
L 117.336436 254.698793 
L 122.530909 252.994564 
L 127.725382 249.815684 
L 132.919855 245.581087 
L 138.114327 240.262285 
L 143.3088 237.185625 
L 148.503273 237.048214 
L 153.697745 242.46756 
L 158.892218 249.825738 
L 164.086691 255.022211 
L 169.281164 257.277758 
L 174.475636 258.675326 
L 179.670109 259.878507 
L 184.864582 260.052785 
L 190.059055 259.462924 
L 195.253527 260.196898 
L 200.448 259.843317 
L 205.642473 260.079596 
L 210.836945 258.973607 
L 216.031418 258.728949 
L 221.225891 257.968163 
L 226.420364 256.183499 
L 231.614836 252.857153 
L 236.809309 248.567257 
L 242.003782 241.981595 
L 247.198255 234.762504 
L 252.392727 229.988318 
L 257.5872 228.902438 
L 262.781673 236.010931 
L 267.976145 246.132405 
L 273.170618 254.417268 
L 278.365091 258.15417 
L 283.559564 259.607037 
L 288.754036 259.618768 
L 293.948509 260.729784 
L 299.142982 260.702972 
L 304.337455 260.863843 
L 309.531927 261.723498 
L 314.7264 261.524085 
L 319.920873 261.255966 
L 325.115345 261.09342 
L 330.309818 261.331375 
" style="fill:none;stroke:#92b4c8;stroke-linecap:square;stroke-width:1.5;"/>
   </g>
   <g id="line2d_28">
    <path clip-path="url(#p5da16bdcfc)" d="M 70.586182 265.835766 
L 75.780655 265.25596 
L 80.975127 266.539577 
L 86.1696 266.795966 
L 91.364073 265.981556 
L 96.558545 266.288216 
L 101.753018 265.549214 
L 106.947491 266.080424 
L 112.141964 265.178876 
L 117.336436 263.74109 
L 122.530909 261.869288 
L 127.725382 257.911188 
L 132.919855 254.630087 
L 138.114327 248.639314 
L 143.3088 245.525787 
L 148.503273 245.649792 
L 153.697745 250.326785 
L 158.892218 258.824466 
L 164.086691 263.0842 
L 169.281164 265.361531 
L 174.475636 266.987 
L 179.670109 267.278579 
L 184.864582 268.002499 
L 190.059055 268.131531 
L 195.253527 268.687877 
L 200.448 268.629226 
L 205.642473 268.847072 
L 210.836945 268.077907 
L 216.031418 267.397557 
L 221.225891 266.345191 
L 226.420364 264.878918 
L 231.614836 260.848761 
L 236.809309 256.781738 
L 242.003782 250.184347 
L 247.198255 243.303755 
L 252.392727 237.973223 
L 257.5872 237.865976 
L 262.781673 245.209072 
L 267.976145 255.111025 
L 273.170618 261.859233 
L 278.365091 266.372003 
L 283.559564 267.59697 
L 288.754036 268.964374 
L 293.948509 269.126921 
L 299.142982 269.423527 
L 304.337455 269.663158 
L 309.531927 269.289468 
L 314.7264 269.262656 
L 319.920873 269.165463 
L 325.115345 269.131948 
L 330.309818 269.012971 
" style="fill:none;stroke:#95b8cc;stroke-linecap:square;stroke-width:1.5;"/>
   </g>
   <g id="line2d_29">
    <path clip-path="url(#p5da16bdcfc)" d="M 70.586182 274.311663 
L 75.780655 274.975257 
L 80.975127 274.9032 
L 86.1696 274.122304 
L 91.364073 274.447398 
L 96.558545 274.5647 
L 101.753018 274.309987 
L 106.947491 274.10052 
L 112.141964 273.56931 
L 117.336436 272.287368 
L 122.530909 270.442378 
L 127.725382 266.604931 
L 132.919855 262.333468 
L 138.114327 258.179306 
L 143.3088 254.670305 
L 148.503273 253.75535 
L 153.697745 259.563468 
L 158.892218 266.762451 
L 164.086691 271.580206 
L 169.281164 274.164198 
L 174.475636 275.632147 
L 179.670109 276.220332 
L 184.864582 276.500181 
L 190.059055 276.88225 
L 195.253527 276.570562 
L 200.448 277.234155 
L 205.642473 276.568886 
L 210.836945 275.836587 
L 216.031418 276.560507 
L 221.225891 274.626702 
L 226.420364 273.401736 
L 231.614836 269.643049 
L 236.809309 264.837025 
L 242.003782 258.308338 
L 247.198255 252.034365 
L 252.392727 246.254735 
L 257.5872 246.330143 
L 262.781673 253.014673 
L 267.976145 263.873474 
L 273.170618 270.971912 
L 278.365091 274.422262 
L 283.559564 276.438178 
L 288.754036 277.768717 
L 293.948509 277.867585 
L 299.142982 277.875964 
L 304.337455 277.524058 
L 309.531927 278.060295 
L 314.7264 278.164191 
L 319.920873 277.788825 
L 325.115345 277.547519 
L 330.309818 277.679902 
" style="fill:none;stroke:#98bcd1;stroke-linecap:square;stroke-width:1.5;"/>
   </g>
   <g id="line2d_30">
    <path clip-path="url(#p5da16bdcfc)" d="M 70.586182 282.92162 
L 75.780655 282.552957 
L 80.975127 283.008758 
L 86.1696 283.005407 
L 91.364073 282.717179 
L 96.558545 282.859617 
L 101.753018 282.400464 
L 106.947491 282.388734 
L 112.141964 281.649732 
L 117.336436 280.791753 
L 122.530909 278.296575 
L 127.725382 274.985311 
L 132.919855 270.978615 
L 138.114327 266.502711 
L 143.3088 261.614575 
L 148.503273 262.784242 
L 153.697745 267.566806 
L 158.892218 275.844966 
L 164.086691 280.158323 
L 169.281164 282.754045 
L 174.475636 283.345582 
L 179.670109 285.068244 
L 184.864582 284.310809 
L 190.059055 285.813948 
L 195.253527 285.046459 
L 200.448 284.934184 
L 205.642473 285.287766 
L 210.836945 284.764934 
L 216.031418 284.547088 
L 221.225891 283.513156 
L 226.420364 281.242527 
L 231.614836 278.343496 
L 236.809309 273.433575 
L 242.003782 267.974011 
L 247.198255 260.713026 
L 252.392727 255.935489 
L 257.5872 255.074159 
L 262.781673 262.794296 
L 267.976145 272.632571 
L 273.170618 279.896907 
L 278.365091 283.03557 
L 283.559564 285.125219 
L 288.754036 285.574317 
L 293.948509 286.140718 
L 299.142982 286.048552 
L 304.337455 286.856259 
L 309.531927 286.625007 
L 314.7264 286.185963 
L 319.920873 286.284831 
L 325.115345 285.969792 
L 330.309818 285.937953 
" style="fill:none;stroke:#9cc0d5;stroke-linecap:square;stroke-width:1.5;"/>
   </g>
   <g id="line2d_31">
    <path clip-path="url(#p5da16bdcfc)" d="M 70.586182 291.603633 
L 75.780655 291.466222 
L 80.975127 291.799694 
L 86.1696 291.395841 
L 91.364073 291.543306 
L 96.558545 290.527807 
L 101.753018 291.219888 
L 106.947491 291.17967 
L 112.141964 290.430614 
L 117.336436 289.597771 
L 122.530909 287.206489 
L 127.725382 283.908631 
L 132.919855 279.737712 
L 138.114327 274.951796 
L 143.3088 271.055699 
L 148.503273 270.891476 
L 153.697745 276.163357 
L 158.892218 283.697488 
L 164.086691 288.570542 
L 169.281164 290.273095 
L 174.475636 292.111382 
L 179.670109 292.939198 
L 184.864582 293.069906 
L 190.059055 292.704594 
L 195.253527 293.465381 
L 200.448 293.416784 
L 205.642473 293.076609 
L 210.836945 293.671497 
L 216.031418 292.235387 
L 221.225891 291.338866 
L 226.420364 289.435224 
L 231.614836 287.037239 
L 236.809309 281.582703 
L 242.003782 275.963944 
L 247.198255 269.115191 
L 252.392727 263.37913 
L 257.5872 263.467944 
L 262.781673 270.537895 
L 267.976145 280.516931 
L 273.170618 288.258854 
L 278.365091 291.858345 
L 283.559564 293.284401 
L 288.754036 293.710039 
L 293.948509 294.681969 
L 299.142982 295.265126 
L 304.337455 295.203124 
L 309.531927 295.189718 
L 314.7264 294.929978 
L 319.920873 295.488 
L 325.115345 294.564667 
L 330.309818 294.772459 
" style="fill:none;stroke:#9fc4da;stroke-linecap:square;stroke-width:1.5;"/>
   </g>
   <g id="patch_3">
    <path d="M 57.6 307.584 
L 57.6 41.472 
" style="fill:none;stroke:#000000;stroke-linecap:square;stroke-linejoin:miter;stroke-width:0.8;"/>
   </g>
   <g id="patch_4">
    <path d="M 343.296 307.584 
L 343.296 41.472 
" style="fill:none;stroke:#000000;stroke-linecap:square;stroke-linejoin:miter;stroke-width:0.8;"/>
   </g>
   <g id="patch_5">
    <path d="M 57.6 307.584 
L 343.296 307.584 
" style="fill:none;stroke:#000000;stroke-linecap:square;stroke-linejoin:miter;stroke-width:0.8;"/>
   </g>
   <g id="patch_6">
    <path d="M 57.6 41.472 
L 343.296 41.472 
" style="fill:none;stroke:#000000;stroke-linecap:square;stroke-linejoin:miter;stroke-width:0.8;"/>
   </g>
   <g id="text_8">
    <!-- Tin 3d -->
    <g transform="translate(181.968 35.472)scale(0.12 -0.12)">
     <defs>
      <path d="M -0.296875 72.90625 
L 61.375 72.90625 
L 61.375 64.59375 
L 35.5 64.59375 
L 35.5 0 
L 25.59375 0 
L 25.59375 64.59375 
L -0.296875 64.59375 
z
" id="DejaVuSans-84"/>
      <path d="M 40.578125 39.3125 
Q 47.65625 37.796875 51.625 33 
Q 55.609375 28.21875 55.609375 21.1875 
Q 55.609375 10.40625 48.1875 4.484375 
Q 40.765625 -1.421875 27.09375 -1.421875 
Q 22.515625 -1.421875 17.65625 -0.515625 
Q 12.796875 0.390625 7.625 2.203125 
L 7.625 11.71875 
Q 11.71875 9.328125 16.59375 8.109375 
Q 21.484375 6.890625 26.8125 6.890625 
Q 36.078125 6.890625 40.9375 10.546875 
Q 45.796875 14.203125 45.796875 21.1875 
Q 45.796875 27.640625 41.28125 31.265625 
Q 36.765625 34.90625 28.71875 34.90625 
L 20.21875 34.90625 
L 20.21875 43.015625 
L 29.109375 43.015625 
Q 36.375 43.015625 40.234375 45.921875 
Q 44.09375 48.828125 44.09375 54.296875 
Q 44.09375 59.90625 40.109375 62.90625 
Q 36.140625 65.921875 28.71875 65.921875 
Q 24.65625 65.921875 20.015625 65.03125 
Q 15.375 64.15625 9.8125 62.3125 
L 9.8125 71.09375 
Q 15.4375 72.65625 20.34375 73.4375 
Q 25.25 74.21875 29.59375 74.21875 
Q 40.828125 74.21875 47.359375 69.109375 
Q 53.90625 64.015625 53.90625 55.328125 
Q 53.90625 49.265625 50.4375 45.09375 
Q 46.96875 40.921875 40.578125 39.3125 
z
" id="DejaVuSans-51"/>
     </defs>
     <use xlink:href="#DejaVuSans-84"/>
     <use x="57.958984" xlink:href="#DejaVuSans-105"/>
     <use x="85.742188" xlink:href="#DejaVuSans-110"/>
     <use x="149.121094" xlink:href="#DejaVuSans-32"/>
     <use x="180.908203" xlink:href="#DejaVuSans-51"/>
     <use x="244.53125" xlink:href="#DejaVuSans-100"/>
    </g>
   </g>
  </g>
  <g id="axes_2">
   <g id="patch_7">
    <path clip-path="url(#p442335198c)" d="M 361.152 41.472 
L 361.152 51.328 
L 361.152 297.728 
L 361.152 307.584 
L 374.4576 307.584 
L 374.4576 297.728 
L 374.4576 51.328 
L 374.4576 41.472 
z
" style="fill:#ffffff;stroke:#ffffff;stroke-linejoin:miter;stroke-width:0.01;"/>
   </g>
   <g id="QuadMesh_1">
    <path clip-path="url(#p442335198c)" d="M 361.152 41.472 
L 374.4576 41.472 
L 374.4576 51.328 
L 361.152 51.328 
L 361.152 41.472 
" style="fill:#4e5f69;"/>
    <path clip-path="url(#p442335198c)" d="M 361.152 51.328 
L 374.4576 51.328 
L 374.4576 61.184 
L 361.152 61.184 
L 361.152 51.328 
" style="fill:#51636e;"/>
    <path clip-path="url(#p442335198c)" d="M 361.152 61.184 
L 374.4576 61.184 
L 374.4576 71.04 
L 361.152 71.04 
L 361.152 61.184 
" style="fill:#546772;"/>
    <path clip-path="url(#p442335198c)" d="M 361.152 71.04 
L 374.4576 71.04 
L 374.4576 80.896 
L 361.152 80.896 
L 361.152 71.04 
" style="fill:#586b76;"/>
    <path clip-path="url(#p442335198c)" d="M 361.152 80.896 
L 374.4576 80.896 
L 374.4576 90.752 
L 361.152 90.752 
L 361.152 80.896 
" style="fill:#5b6f7b;"/>
    <path clip-path="url(#p442335198c)" d="M 361.152 90.752 
L 374.4576 90.752 
L 374.4576 100.608 
L 361.152 100.608 
L 361.152 90.752 
" style="fill:#5e7380;"/>
    <path clip-path="url(#p442335198c)" d="M 361.152 100.608 
L 374.4576 100.608 
L 374.4576 110.464 
L 361.152 110.464 
L 361.152 100.608 
" style="fill:#617784;"/>
    <path clip-path="url(#p442335198c)" d="M 361.152 110.464 
L 374.4576 110.464 
L 374.4576 120.32 
L 361.152 120.32 
L 361.152 110.464 
" style="fill:#657b89;"/>
    <path clip-path="url(#p442335198c)" d="M 361.152 120.32 
L 374.4576 120.32 
L 374.4576 130.176 
L 361.152 130.176 
L 361.152 120.32 
" style="fill:#687f8d;"/>
    <path clip-path="url(#p442335198c)" d="M 361.152 130.176 
L 374.4576 130.176 
L 374.4576 140.032 
L 361.152 140.032 
L 361.152 130.176 
" style="fill:#6b8392;"/>
    <path clip-path="url(#p442335198c)" d="M 361.152 140.032 
L 374.4576 140.032 
L 374.4576 149.888 
L 361.152 149.888 
L 361.152 140.032 
" style="fill:#6e8796;"/>
    <path clip-path="url(#p442335198c)" d="M 361.152 149.888 
L 374.4576 149.888 
L 374.4576 159.744 
L 361.152 159.744 
L 361.152 149.888 
" style="fill:#728b9a;"/>
    <path clip-path="url(#p442335198c)" d="M 361.152 159.744 
L 374.4576 159.744 
L 374.4576 169.6 
L 361.152 169.6 
L 361.152 159.744 
" style="fill:#758f9f;"/>
    <path clip-path="url(#p442335198c)" d="M 361.152 169.6 
L 374.4576 169.6 
L 374.4576 179.456 
L 361.152 179.456 
L 361.152 169.6 
" style="fill:#7893a3;"/>
    <path clip-path="url(#p442335198c)" d="M 361.152 179.456 
L 374.4576 179.456 
L 374.4576 189.312 
L 361.152 189.312 
L 361.152 179.456 
" style="fill:#7b98a8;"/>
    <path clip-path="url(#p442335198c)" d="M 361.152 189.312 
L 374.4576 189.312 
L 374.4576 199.168 
L 361.152 199.168 
L 361.152 189.312 
" style="fill:#7e9cac;"/>
    <path clip-path="url(#p442335198c)" d="M 361.152 199.168 
L 374.4576 199.168 
L 374.4576 209.024 
L 361.152 209.024 
L 361.152 199.168 
" style="fill:#82a0b1;"/>
    <path clip-path="url(#p442335198c)" d="M 361.152 209.024 
L 374.4576 209.024 
L 374.4576 218.88 
L 361.152 218.88 
L 361.152 209.024 
" style="fill:#85a4b5;"/>
    <path clip-path="url(#p442335198c)" d="M 361.152 218.88 
L 374.4576 218.88 
L 374.4576 228.736 
L 361.152 228.736 
L 361.152 218.88 
" style="fill:#88a8ba;"/>
    <path clip-path="url(#p442335198c)" d="M 361.152 228.736 
L 374.4576 228.736 
L 374.4576 238.592 
L 361.152 238.592 
L 361.152 228.736 
" style="fill:#8bacbe;"/>
    <path clip-path="url(#p442335198c)" d="M 361.152 238.592 
L 374.4576 238.592 
L 374.4576 248.448 
L 361.152 248.448 
L 361.152 238.592 
" style="fill:#8fb0c3;"/>
    <path clip-path="url(#p442335198c)" d="M 361.152 248.448 
L 374.4576 248.448 
L 374.4576 258.304 
L 361.152 258.304 
L 361.152 248.448 
" style="fill:#92b4c8;"/>
    <path clip-path="url(#p442335198c)" d="M 361.152 258.304 
L 374.4576 258.304 
L 374.4576 268.16 
L 361.152 268.16 
L 361.152 258.304 
" style="fill:#95b8cc;"/>
    <path clip-path="url(#p442335198c)" d="M 361.152 268.16 
L 374.4576 268.16 
L 374.4576 278.016 
L 361.152 278.016 
L 361.152 268.16 
" style="fill:#98bcd1;"/>
    <path clip-path="url(#p442335198c)" d="M 361.152 278.016 
L 374.4576 278.016 
L 374.4576 287.872 
L 361.152 287.872 
L 361.152 278.016 
" style="fill:#9cc0d5;"/>
    <path clip-path="url(#p442335198c)" d="M 361.152 287.872 
L 374.4576 287.872 
L 374.4576 297.728 
L 361.152 297.728 
L 361.152 287.872 
" style="fill:#9fc4da;"/>
    <path clip-path="url(#p442335198c)" d="M 361.152 297.728 
L 374.4576 297.728 
L 374.4576 307.584 
L 361.152 307.584 
L 361.152 297.728 
" style="fill:#a2c8de;"/>
   </g>
   <g id="matplotlib.axis_3"/>
   <g id="matplotlib.axis_4">
    <g id="ytick_9">
     <g id="line2d_32">
      <defs>
       <path d="M 0 0 
L 3.5 0 
" id="m1c3fc7d3e7" style="stroke:#000000;stroke-width:0.8;"/>
      </defs>
      <g>
       <use style="stroke:#000000;stroke-width:0.8;" x="374.4576" xlink:href="#m1c3fc7d3e7" y="41.472"/>
      </g>
     </g>
     <g id="text_9">
      <!-- 0 -->
      <g transform="translate(381.4576 46.031063)scale(0.12 -0.12)">
       <use xlink:href="#DejaVuSans-48"/>
      </g>
     </g>
    </g>
    <g id="ytick_10">
     <g id="line2d_33">
      <g>
       <use style="stroke:#000000;stroke-width:0.8;" x="374.4576" xlink:href="#m1c3fc7d3e7" y="94.6944"/>
      </g>
     </g>
     <g id="text_10">
      <!-- 5 -->
      <g transform="translate(381.4576 99.253463)scale(0.12 -0.12)">
       <use xlink:href="#DejaVuSans-53"/>
      </g>
     </g>
    </g>
    <g id="ytick_11">
     <g id="line2d_34">
      <g>
       <use style="stroke:#000000;stroke-width:0.8;" x="374.4576" xlink:href="#m1c3fc7d3e7" y="147.9168"/>
      </g>
     </g>
     <g id="text_11">
      <!-- 10 -->
      <g transform="translate(381.4576 152.475863)scale(0.12 -0.12)">
       <defs>
        <path d="M 12.40625 8.296875 
L 28.515625 8.296875 
L 28.515625 63.921875 
L 10.984375 60.40625 
L 10.984375 69.390625 
L 28.421875 72.90625 
L 38.28125 72.90625 
L 38.28125 8.296875 
L 54.390625 8.296875 
L 54.390625 0 
L 12.40625 0 
z
" id="DejaVuSans-49"/>
       </defs>
       <use xlink:href="#DejaVuSans-49"/>
       <use x="63.623047" xlink:href="#DejaVuSans-48"/>
      </g>
     </g>
    </g>
    <g id="ytick_12">
     <g id="line2d_35">
      <g>
       <use style="stroke:#000000;stroke-width:0.8;" x="374.4576" xlink:href="#m1c3fc7d3e7" y="201.1392"/>
      </g>
     </g>
     <g id="text_12">
      <!-- 15 -->
      <g transform="translate(381.4576 205.698263)scale(0.12 -0.12)">
       <use xlink:href="#DejaVuSans-49"/>
       <use x="63.623047" xlink:href="#DejaVuSans-53"/>
      </g>
     </g>
    </g>
    <g id="ytick_13">
     <g id="line2d_36">
      <g>
       <use style="stroke:#000000;stroke-width:0.8;" x="374.4576" xlink:href="#m1c3fc7d3e7" y="254.3616"/>
      </g>
     </g>
     <g id="text_13">
      <!-- 20 -->
      <g transform="translate(381.4576 258.920663)scale(0.12 -0.12)">
       <defs>
        <path d="M 19.1875 8.296875 
L 53.609375 8.296875 
L 53.609375 0 
L 7.328125 0 
L 7.328125 8.296875 
Q 12.9375 14.109375 22.625 23.890625 
Q 32.328125 33.6875 34.8125 36.53125 
Q 39.546875 41.84375 41.421875 45.53125 
Q 43.3125 49.21875 43.3125 52.78125 
Q 43.3125 58.59375 39.234375 62.25 
Q 35.15625 65.921875 28.609375 65.921875 
Q 23.96875 65.921875 18.8125 64.3125 
Q 13.671875 62.703125 7.8125 59.421875 
L 7.8125 69.390625 
Q 13.765625 71.78125 18.9375 73 
Q 24.125 74.21875 28.421875 74.21875 
Q 39.75 74.21875 46.484375 68.546875 
Q 53.21875 62.890625 53.21875 53.421875 
Q 53.21875 48.921875 51.53125 44.890625 
Q 49.859375 40.875 45.40625 35.40625 
Q 44.1875 33.984375 37.640625 27.21875 
Q 31.109375 20.453125 19.1875 8.296875 
z
" id="DejaVuSans-50"/>
       </defs>
       <use xlink:href="#DejaVuSans-50"/>
       <use x="63.623047" xlink:href="#DejaVuSans-48"/>
      </g>
     </g>
    </g>
    <g id="ytick_14">
     <g id="line2d_37">
      <g>
       <use style="stroke:#000000;stroke-width:0.8;" x="374.4576" xlink:href="#m1c3fc7d3e7" y="307.584"/>
      </g>
     </g>
     <g id="text_14">
      <!-- 25 -->
      <g transform="translate(381.4576 312.143062)scale(0.12 -0.12)">
       <use xlink:href="#DejaVuSans-50"/>
       <use x="63.623047" xlink:href="#DejaVuSans-53"/>
      </g>
     </g>
    </g>
    <g id="text_15">
     <!-- Sputter Time [min] -->
     <g transform="translate(411.365413 240.763312)rotate(-90)scale(0.14 -0.14)">
      <defs>
       <path d="M 53.515625 70.515625 
L 53.515625 60.890625 
Q 47.90625 63.578125 42.921875 64.890625 
Q 37.9375 66.21875 33.296875 66.21875 
Q 25.25 66.21875 20.875 63.09375 
Q 16.5 59.96875 16.5 54.203125 
Q 16.5 49.359375 19.40625 46.890625 
Q 22.3125 44.4375 30.421875 42.921875 
L 36.375 41.703125 
Q 47.40625 39.59375 52.65625 34.296875 
Q 57.90625 29 57.90625 20.125 
Q 57.90625 9.515625 50.796875 4.046875 
Q 43.703125 -1.421875 29.984375 -1.421875 
Q 24.8125 -1.421875 18.96875 -0.25 
Q 13.140625 0.921875 6.890625 3.21875 
L 6.890625 13.375 
Q 12.890625 10.015625 18.65625 8.296875 
Q 24.421875 6.59375 29.984375 6.59375 
Q 38.421875 6.59375 43.015625 9.90625 
Q 47.609375 13.234375 47.609375 19.390625 
Q 47.609375 24.75 44.3125 27.78125 
Q 41.015625 30.8125 33.5 32.328125 
L 27.484375 33.5 
Q 16.453125 35.6875 11.515625 40.375 
Q 6.59375 45.0625 6.59375 53.421875 
Q 6.59375 63.09375 13.40625 68.65625 
Q 20.21875 74.21875 32.171875 74.21875 
Q 37.3125 74.21875 42.625 73.28125 
Q 47.953125 72.359375 53.515625 70.515625 
z
" id="DejaVuSans-83"/>
       <path d="M 18.109375 8.203125 
L 18.109375 -20.796875 
L 9.078125 -20.796875 
L 9.078125 54.6875 
L 18.109375 54.6875 
L 18.109375 46.390625 
Q 20.953125 51.265625 25.265625 53.625 
Q 29.59375 56 35.59375 56 
Q 45.5625 56 51.78125 48.09375 
Q 58.015625 40.1875 58.015625 27.296875 
Q 58.015625 14.40625 51.78125 6.484375 
Q 45.5625 -1.421875 35.59375 -1.421875 
Q 29.59375 -1.421875 25.265625 0.953125 
Q 20.953125 3.328125 18.109375 8.203125 
z
M 48.6875 27.296875 
Q 48.6875 37.203125 44.609375 42.84375 
Q 40.53125 48.484375 33.40625 48.484375 
Q 26.265625 48.484375 22.1875 42.84375 
Q 18.109375 37.203125 18.109375 27.296875 
Q 18.109375 17.390625 22.1875 11.75 
Q 26.265625 6.109375 33.40625 6.109375 
Q 40.53125 6.109375 44.609375 11.75 
Q 48.6875 17.390625 48.6875 27.296875 
z
" id="DejaVuSans-112"/>
       <path d="M 52 44.1875 
Q 55.375 50.25 60.0625 53.125 
Q 64.75 56 71.09375 56 
Q 79.640625 56 84.28125 50.015625 
Q 88.921875 44.046875 88.921875 33.015625 
L 88.921875 0 
L 79.890625 0 
L 79.890625 32.71875 
Q 79.890625 40.578125 77.09375 44.375 
Q 74.3125 48.1875 68.609375 48.1875 
Q 61.625 48.1875 57.5625 43.546875 
Q 53.515625 38.921875 53.515625 30.90625 
L 53.515625 0 
L 44.484375 0 
L 44.484375 32.71875 
Q 44.484375 40.625 41.703125 44.40625 
Q 38.921875 48.1875 33.109375 48.1875 
Q 26.21875 48.1875 22.15625 43.53125 
Q 18.109375 38.875 18.109375 30.90625 
L 18.109375 0 
L 9.078125 0 
L 9.078125 54.6875 
L 18.109375 54.6875 
L 18.109375 46.1875 
Q 21.1875 51.21875 25.484375 53.609375 
Q 29.78125 56 35.6875 56 
Q 41.65625 56 45.828125 52.96875 
Q 50 49.953125 52 44.1875 
z
" id="DejaVuSans-109"/>
      </defs>
      <use xlink:href="#DejaVuSans-83"/>
      <use x="63.476562" xlink:href="#DejaVuSans-112"/>
      <use x="126.953125" xlink:href="#DejaVuSans-117"/>
      <use x="190.332031" xlink:href="#DejaVuSans-116"/>
      <use x="229.541016" xlink:href="#DejaVuSans-116"/>
      <use x="268.75" xlink:href="#DejaVuSans-101"/>
      <use x="330.273438" xlink:href="#DejaVuSans-114"/>
      <use x="371.386719" xlink:href="#DejaVuSans-32"/>
      <use x="403.173828" xlink:href="#DejaVuSans-84"/>
      <use x="461.132812" xlink:href="#DejaVuSans-105"/>
      <use x="488.916016" xlink:href="#DejaVuSans-109"/>
      <use x="586.328125" xlink:href="#DejaVuSans-101"/>
      <use x="647.851562" xlink:href="#DejaVuSans-32"/>
      <use x="679.638672" xlink:href="#DejaVuSans-91"/>
      <use x="718.652344" xlink:href="#DejaVuSans-109"/>
      <use x="816.064453" xlink:href="#DejaVuSans-105"/>
      <use x="843.847656" xlink:href="#DejaVuSans-110"/>
      <use x="907.226562" xlink:href="#DejaVuSans-93"/>
     </g>
    </g>
   </g>
   <g id="patch_8">
    <path d="M 361.152 41.472 
L 361.152 51.328 
L 361.152 297.728 
L 361.152 307.584 
L 374.4576 307.584 
L 374.4576 297.728 
L 374.4576 51.328 
L 374.4576 41.472 
z
" style="fill:none;stroke:#000000;stroke-linejoin:miter;stroke-width:0.8;"/>
   </g>
  </g>
 </g>
 <defs>
  <clipPath id="p5da16bdcfc">
   <rect height="266.112" width="285.696" x="57.6" y="41.472"/>
  </clipPath>
  <clipPath id="p442335198c">
   <rect height="266.112" width="13.3056" x="361.152" y="41.472"/>
  </clipPath>
 </defs>
</svg>
